<?xml version="1.0" standalone="no"?>
<!DOCTYPE svg PUBLIC "-//W3C//DTD SVG 1.1//EN" "http://www.w3.org/Graphics/SVG/1.1/DTD/svg11.dtd" >
<svg xmlns="http://www.w3.org/2000/svg" xmlns:xlink="http://www.w3.org/1999/xlink" version="1.1">
<metadata>
Created by FontForge 20170924 at Fri Mar  6 10:03:10 2009
 By www-data
Typeface and data copyright 2009 Microsoft Corporation. All Rights Reserved.
</metadata>
<defs>
<font id="Vani" horiz-adv-x="0" >
  <font-face 
    font-family="Vani"
    font-weight="400"
    font-stretch="normal"
    units-per-em="2048"
    panose-1="2 11 5 2 4 2 4 2 2 3"
    ascent="1638"
    descent="-410"
    x-height="986"
    cap-height="1419"
    bbox="-1044 -1519 3588 2168"
    underline-thickness="101"
    underline-position="-231"
    unicode-range="U+0020-25CC"
  />
<missing-glyph horiz-adv-x="2048" 
d="M256 0v1536h1536v-1536h-1536zM384 128h1280v1280h-1280v-1280z" />
    <glyph glyph-name=".notdef" horiz-adv-x="2048" 
d="M256 0v1536h1536v-1536h-1536zM384 128h1280v1280h-1280v-1280z" />
    <glyph glyph-name=".null" 
 />
    <glyph glyph-name="nonmarkingreturn" horiz-adv-x="494" 
 />
    <glyph glyph-name="space" unicode=" " horiz-adv-x="494" 
 />
    <glyph glyph-name="space" unicode="&#xa0;" horiz-adv-x="494" 
 />
    <glyph glyph-name="exclam" unicode="!" horiz-adv-x="678" 
d="M472 1321q0 -50 -33 -336t-58 -553h-78q-22 267 -54.5 553t-32.5 336q0 57 36 96t92 39t92 -38.5t36 -96.5zM481 115q0 -56 -40.5 -95.5t-96.5 -39.5t-96.5 39.5t-40.5 95.5t40.5 96.5t96.5 40.5t96.5 -40.5t40.5 -96.5z" />
    <glyph glyph-name="quotedbl" unicode="&#x22;" horiz-adv-x="843" 
d="M725 1417q0 -40 -26 -154t-58 -296h-62q-23 148 -51.5 282t-28.5 168q0 46 28 79t85 33q55 0 84 -33t29 -79zM343 1417q0 -40 -26 -154t-58 -296h-61q-27 170 -53.5 290.5t-26.5 159.5q0 46 28 79t85 33q54 0 83 -33t29 -79z" />
    <glyph glyph-name="numbersign" unicode="#" horiz-adv-x="1317" 
d="M1163 745h-249l-72 -251h261v-123h-296l-107 -371h-111l107 371h-217l-107 -371h-111l107 371h-214v123h249l73 251h-262v123h296l105 362h111l-105 -362h217l105 362h111l-105 -362h214v-123zM807 747h-222l-74 -255h221z" />
    <glyph glyph-name="dollar" unicode="$" horiz-adv-x="1249" 
d="M1018 580q40 -39 62.5 -91t22.5 -124q0 -157 -120 -263.5t-302 -118.5v-282h-82v280q-198 4 -321 94.5t-123 224.5q0 59 26 90.5t73 31.5q53 0 83 -26.5t30 -62.5q0 -27 -19 -81.5t-24 -74.5q29 -52 100.5 -84t174.5 -33v506q-44 16 -76.5 28t-85.5 34
q-115 47 -180 123.5t-65 198.5q0 144 120 243t287 102v229h82v-229q99 -2 175 -29t124 -67t72.5 -88t24.5 -93t-21 -76.5t-69 -31.5q-49 0 -81.5 25t-32.5 56q0 37 8 73.5t14 64.5q-3 6 -20 21.5t-40 28.5q-25 14 -66 25t-88 11v-464q39 -14 65.5 -24.5t65.5 -25.5
q62 -24 114 -52.5t92 -68.5zM599 775v440q-97 0 -163 -55t-66 -135q0 -87 41 -139t124 -86q12 -5 30 -12t34 -13zM915 284q0 82 -42.5 142.5t-144.5 100.5q-13 5 -24.5 9t-22.5 8v-483q117 7 175.5 66.5t58.5 156.5z" />
    <glyph glyph-name="percent" unicode="%" horiz-adv-x="1674" 
d="M788 1083q0 -176 -95 -273t-245 -97t-244.5 97t-94.5 273q0 166 92.5 268t247.5 102q153 0 246 -102t93 -268zM619 1083q0 130 -43 213t-127 83q-86 0 -128.5 -83t-42.5 -213q0 -133 43 -214.5t127 -81.5t127.5 81.5t43.5 214.5zM1565 338q0 -176 -95 -273t-245 -97
t-244.5 97t-94.5 273q0 166 92.5 268t247.5 102q153 0 246 -102t93 -268zM1396 338q0 130 -43 213t-127 83q-86 0 -128.5 -83t-42.5 -213q0 -133 43 -214.5t127 -81.5t127.5 81.5t43.5 214.5zM1499 1424l-1179 -1424h-138l1176 1424h141z" />
    <glyph glyph-name="ampersand" unicode="&#x26;" horiz-adv-x="1455" 
d="M1454 828q-59 -5 -119 -23.5t-92 -58.5q-21 -24 -42.5 -71t-51.5 -111t-61 -126t-80 -124q40 -48 98 -104.5t99 -81.5q40 -23 113.5 -39t120.5 -18v-71h-412l-149 170q-33 -36 -75.5 -74.5t-89.5 -66.5q-52 -30 -104.5 -47t-123.5 -17q-74 0 -147 21.5t-133 68.5
q-58 46 -94 118t-36 172q0 124 65.5 224.5t244.5 213.5q-81 107 -126 185t-45 175q0 69 27.5 126.5t77.5 100.5q46 39 112 61t134 22q80 0 140.5 -25.5t98.5 -66.5q35 -38 53.5 -88t18.5 -100q0 -120 -74.5 -206.5t-205.5 -155.5q94 -127 184 -231.5t173 -205.5
q67 107 104 201.5t37 166.5q0 32 -46.5 50.5t-128.5 35.5v71h535v-71zM747 1153q0 102 -45 156.5t-128 54.5q-47 0 -78 -19t-53 -48q-20 -28 -29 -60t-9 -57q0 -69 36 -139.5t112 -170.5q103 58 148.5 125.5t45.5 157.5zM825 228q-93 118 -209.5 258.5t-186.5 237.5
q-81 -56 -114.5 -131.5t-33.5 -172.5q0 -136 77.5 -225.5t207.5 -89.5q73 0 143.5 31.5t115.5 91.5z" />
    <glyph glyph-name="quotesingle" unicode="'" horiz-adv-x="441" 
d="M333 1417q0 -40 -26 -154t-58 -296h-61q-27 170 -53.5 290.5t-26.5 159.5q0 46 28 79t85 33q54 0 83 -33t29 -79z" />
    <glyph glyph-name="parenleft" unicode="(" horiz-adv-x="768" 
d="M701 -328q-273 34 -428.5 275t-155.5 649q0 415 155.5 657.5t428.5 278.5v-83q-192 -35 -292 -245t-100 -610q0 -381 98 -592.5t294 -247.5v-82z" />
    <glyph glyph-name="parenright" unicode=")" horiz-adv-x="768" 
d="M651 596q0 -408 -155.5 -649t-428.5 -275v82q196 36 294 247.5t98 592.5q0 400 -100 610t-292 245v83q273 -36 428.5 -278.5t155.5 -657.5z" />
    <glyph glyph-name="asterisk" unicode="*" horiz-adv-x="967" 
d="M882 1099q0 -37 -21 -54t-54 -17q-22 0 -105.5 21.5t-187.5 33.5q45 -62 84 -103.5t65 -69.5q27 -29 42 -51t15 -47q0 -27 -24 -47t-51 -20q-18 0 -34 10.5t-27 29.5q-16 29 -31.5 93t-68.5 188q-48 -119 -67 -188.5t-33 -92.5q-13 -20 -26.5 -30t-34.5 -10
q-28 0 -51.5 19t-23.5 48q0 24 14 45t43 53q25 26 66.5 71t82.5 102q-98 -10 -182.5 -32.5t-110.5 -22.5q-33 0 -54 16.5t-21 54.5q0 34 21 52.5t54 18.5q30 0 105.5 -21t187.5 -32q-39 53 -82 100.5t-67 72.5q-28 30 -42.5 51.5t-14.5 46.5q0 27 24 47t51 20q18 0 33.5 -10
t27.5 -30q14 -24 37 -107.5t63 -173.5q45 102 65.5 178.5t34.5 102.5q11 19 26.5 29.5t34.5 10.5q28 0 51.5 -19t23.5 -48q0 -41 -55.5 -96t-150.5 -175q108 12 187.5 32.5t105.5 20.5q33 0 54 -18t21 -53z" />
    <glyph glyph-name="plus" unicode="+" horiz-adv-x="1317" 
d="M1173 497h-451v-451h-127v451h-451v125h451v451h127v-451h451v-125z" />
    <glyph glyph-name="comma" unicode="," horiz-adv-x="552" 
d="M429 35q0 -72 -32.5 -136t-74.5 -110q-43 -48 -91 -85t-88 -58l-46 67q48 30 86 60t62 60q30 35 51 76t27 93h-51q-67 0 -104.5 35t-37.5 94q0 42 34 81.5t93 39.5q86 0 129 -57.5t43 -159.5z" />
    <glyph glyph-name="hyphen" unicode="-" horiz-adv-x="766" 
d="M681 465h-596v157h596v-157z" />
    <glyph glyph-name="hyphen" unicode="&#xad;" horiz-adv-x="766" 
d="M681 465h-596v157h596v-157z" />
    <glyph glyph-name="period" unicode="." horiz-adv-x="552" 
d="M415 115q0 -56 -40.5 -95.5t-96.5 -39.5t-96.5 39.5t-40.5 95.5t40.5 96.5t96.5 40.5t96.5 -40.5t40.5 -96.5z" />
    <glyph glyph-name="slash" unicode="/" horiz-adv-x="960" 
d="M870 1523l-691 -1947h-130l689 1947h132z" />
    <glyph glyph-name="zero" unicode="0" horiz-adv-x="1257" 
d="M1027 934q64 -77 95.5 -180.5t31.5 -216.5q0 -136 -39 -243.5t-107 -178.5q-70 -73 -166 -110t-214 -37q-129 0 -230 43t-164 118q-66 78 -98.5 182.5t-32.5 225.5q0 119 31.5 219t98.5 181q64 78 165 123t231 45q137 0 235 -46t163 -125zM933 537q0 238 -81.5 369
t-221.5 131q-142 0 -224 -131t-82 -369q0 -226 78.5 -363.5t225.5 -137.5t226 137.5t79 363.5z" />
    <glyph glyph-name="one" unicode="1" horiz-adv-x="880" 
d="M809 0h-674v71q30 2 93.5 8.5t87.5 13.5q31 10 47.5 32.5t16.5 67.5v702h-249v84h55q108 0 193.5 40t122.5 86h83q-3 -65 -6 -152t-3 -156v-593q0 -35 15.5 -62.5t44.5 -40.5q26 -11 85 -20t88 -10v-71z" />
    <glyph glyph-name="two" unicode="2" horiz-adv-x="1144" 
d="M1047 0h-937v136q27 31 75 69.5t114 83.5q40 27 96 59t127 70q79 42 121.5 74t77.5 79q23 31 37 77.5t14 132.5q0 125 -67 183.5t-172 58.5q-65 0 -123 -25.5t-87 -70.5q7 -32 17.5 -76t10.5 -86q0 -38 -31.5 -67.5t-93.5 -29.5q-50 0 -77 34.5t-27 92.5q0 54 30 108.5
t86 100.5q55 45 136 73t175 28q205 0 325.5 -91.5t120.5 -244.5q0 -73 -21.5 -133t-69.5 -106q-53 -51 -124 -87.5t-217 -101.5q-87 -39 -162 -81.5t-123 -82.5h769v-177z" />
    <glyph glyph-name="three" unicode="3" horiz-adv-x="1130" 
d="M487 -365q-94 0 -172 23.5t-134 63.5t-86.5 92t-30.5 107q0 49 24 88.5t77 39.5q60 0 91.5 -29.5t31.5 -67.5q0 -32 -10.5 -81t-16.5 -70q7 -9 25.5 -24t45.5 -27q32 -15 67 -24t99 -9q60 0 115.5 20t97.5 64q44 46 68.5 107.5t24.5 161.5q0 54 -11.5 107t-42.5 92
t-84.5 60.5t-135.5 21.5h-131v115h87q138 0 199 76t61 229q0 125 -59 188.5t-167 63.5q-52 0 -85.5 -12.5t-54.5 -24.5q-25 -14 -41 -31t-24 -25q7 -32 17 -78.5t10 -88.5q0 -37 -31.5 -66.5t-92.5 -29.5q-53 0 -77.5 38t-24.5 88q0 52 29 106t86 101t139 76t189 29
q123 0 203.5 -36.5t126.5 -88.5q45 -51 62 -107t17 -96q0 -50 -14 -100.5t-46 -93.5q-35 -47 -92.5 -85.5t-144.5 -62.5v-16q56 -5 119.5 -25t114.5 -59q53 -41 87 -105.5t34 -163.5q0 -192 -154 -311.5t-385 -119.5z" />
    <glyph glyph-name="four" unicode="4" horiz-adv-x="1157" 
d="M1084 90h-203v-455h-192v455h-640v154l701 855h131v-878h203v-131zM689 221v655l-540 -655h540z" />
    <glyph glyph-name="five" unicode="5" horiz-adv-x="1082" 
d="M843 469q66 -52 109.5 -134t43.5 -205q0 -215 -147 -355t-373 -140q-175 0 -296 83t-121 193q0 51 25 89t77 38q60 0 91.5 -31.5t31.5 -68.5q0 -32 -11 -80t-17 -71q8 -7 26 -19t43 -23q26 -11 63.5 -19.5t87.5 -8.5q64 0 121 26t96 77q43 56 64.5 127.5t21.5 181.5
q0 141 -78.5 233.5t-206.5 92.5q-80 0 -149.5 -30t-124.5 -100l-67 26l85 722h716v-178h-635l-52 -424q45 32 118.5 63.5t161.5 31.5q73 0 151.5 -22.5t144.5 -74.5z" />
    <glyph glyph-name="six" unicode="6" horiz-adv-x="1159" 
d="M1075 461q0 -104 -37.5 -195t-100.5 -155q-73 -73 -161.5 -108t-184.5 -35q-111 0 -201 41t-153 116q-64 76 -99 186t-35 247q0 357 212.5 602t569.5 294l18 -90l-90 -16q-217 -70 -335.5 -218t-153.5 -359q86 75 170 106t177 31q167 0 285.5 -128t118.5 -319zM858 434
q0 162 -74.5 260t-199.5 98q-75 0 -139.5 -28t-124.5 -94q-1 -12 -3 -55.5t-2 -68.5q0 -234 76.5 -366.5t201.5 -132.5q119 0 192 103.5t73 283.5z" />
    <glyph glyph-name="seven" unicode="7" horiz-adv-x="1029" 
d="M1029 1008l-713 -1373h-125l671 1270h-393q-87 0 -136 -2t-90 -19q-31 -13 -55.5 -66.5t-37.5 -136.5h-61v392h940v-65z" />
    <glyph glyph-name="eight" unicode="8" horiz-adv-x="1221" 
d="M1117 376q0 -168 -145 -289t-381 -121q-221 0 -354 111t-133 286q0 129 78.5 215.5t232.5 146.5q-127 71 -190 156t-63 192q0 163 138.5 273t331.5 110t312.5 -104t119.5 -261q0 -101 -66 -191.5t-194 -148.5q166 -71 239.5 -157t73.5 -218zM875 1102q0 122 -72.5 198.5
t-185.5 76.5t-185 -73.5t-72 -182.5q0 -105 82 -178t292 -156q75 48 108 127t33 188zM917 329q0 63 -27 110.5t-78 86.5q-49 38 -136.5 79.5t-189.5 84.5q-96 -52 -141 -132.5t-45 -183.5q0 -147 86.5 -237.5t230.5 -90.5q138 0 219 80t81 203z" />
    <glyph glyph-name="nine" unicode="9" horiz-adv-x="1159" 
d="M1056 516q0 -174 -55 -327.5t-158 -269.5q-101 -114 -246.5 -189.5t-325.5 -99.5l-18 90l90 16q215 68 336 209t156 358q-82 -70 -163.5 -102.5t-183.5 -32.5q-163 0 -283.5 127t-120.5 320q0 207 139.5 349t344.5 142q223 0 355.5 -159t132.5 -431zM844 528
q0 234 -76.5 366.5t-201.5 132.5q-119 0 -192 -102.5t-73 -282.5q0 -162 74.5 -260t199.5 -98q78 0 143 28.5t121 91.5q0 4 1.5 16t1.5 34q0 14 1 34t1 40z" />
    <glyph glyph-name="colon" unicode=":" horiz-adv-x="640" 
d="M457 853q0 -56 -40.5 -96t-96.5 -40t-96.5 40t-40.5 96t40 96.5t97 40.5t97 -40.5t40 -96.5zM457 115q0 -56 -40.5 -95.5t-96.5 -39.5t-96.5 39.5t-40.5 95.5t40.5 96.5t96.5 40.5t96.5 -40.5t40.5 -96.5z" />
    <glyph glyph-name="semicolon" unicode=";" horiz-adv-x="640" 
d="M457 853q0 -56 -40.5 -96t-96.5 -40t-96.5 40t-40.5 96t40 96.5t97 40.5t97 -40.5t40 -96.5zM474 35q0 -72 -32.5 -135.5t-74.5 -110.5q-43 -48 -91 -85t-88 -58l-46 67q48 30 85.5 60.5t62.5 59.5q30 35 51 76t27 93h-51q-67 0 -104.5 35t-37.5 94q0 42 34 81.5t93 39.5
q86 0 129 -57.5t43 -159.5z" />
    <glyph glyph-name="semicolon" unicode="&#x37e;" horiz-adv-x="640" 
d="M457 853q0 -56 -40.5 -96t-96.5 -40t-96.5 40t-40.5 96t40 96.5t97 40.5t97 -40.5t40 -96.5zM474 35q0 -72 -32.5 -135.5t-74.5 -110.5q-43 -48 -91 -85t-88 -58l-46 67q48 30 85.5 60.5t62.5 59.5q30 35 51 76t27 93h-51q-67 0 -104.5 35t-37.5 94q0 42 34 81.5t93 39.5
q86 0 129 -57.5t43 -159.5z" />
    <glyph glyph-name="less" unicode="&#x3c;" horiz-adv-x="1317" 
d="M1118 22l-925 481v113l925 481v-137l-769 -400l769 -401v-137z" />
    <glyph glyph-name="equal" unicode="=" horiz-adv-x="1317" 
d="M1163 683h-1009v125h1009v-125zM1163 311h-1009v125h1009v-125z" />
    <glyph glyph-name="greater" unicode="&#x3e;" horiz-adv-x="1317" 
d="M1124 503l-925 -481v137l769 401l-769 400v137l925 -481v-113z" />
    <glyph glyph-name="question" unicode="?" horiz-adv-x="980" 
d="M771 1329q55 -58 81.5 -130.5t26.5 -157.5q0 -185 -118 -302t-324 -141v-221h-92v379q63 5 125 20.5t111 50.5q51 37 79.5 89.5t28.5 146.5q0 150 -63.5 230t-185.5 80q-46 0 -80.5 -13.5t-50.5 -25.5q5 -24 13.5 -69t8.5 -69q0 -37 -32 -67.5t-93 -30.5q-54 0 -77 37
t-23 86q0 40 22 78.5t69 74.5q40 32 108.5 55t142.5 23q106 0 188 -33.5t135 -89.5zM531 115q0 -56 -40.5 -95.5t-96.5 -39.5t-96.5 39.5t-40.5 95.5t40.5 96.5t96.5 40.5t96.5 -40.5t40.5 -96.5z" />
    <glyph glyph-name="at" unicode="@" horiz-adv-x="1902" 
d="M1530 -119q-100 -87 -237.5 -140.5t-306.5 -53.5q-151 0 -297 48.5t-263 147.5q-116 99 -187 246.5t-71 347.5q0 171 64 332t183 287q115 123 284.5 198.5t369.5 75.5q173 0 300 -55.5t208 -146.5q81 -90 121.5 -207t40.5 -244q0 -244 -134 -412.5t-339 -168.5
q-85 0 -144 42.5t-66 119.5l-7 2q-48 -73 -109.5 -116.5t-124.5 -43.5q-41 0 -83.5 13.5t-75.5 44.5q-33 33 -52.5 86t-19.5 131q0 73 33.5 163.5t90.5 172.5q57 83 147.5 144t195.5 61q56 0 99.5 -31.5t53.5 -92.5h6l43 112h149l-189 -538q-9 -25 -14.5 -57.5t-5.5 -51.5
q0 -51 26 -74.5t67 -23.5q155 0 259 145.5t104 383.5q0 118 -37 218.5t-113 177.5q-73 76 -184 120t-254 44q-136 0 -265 -53t-235 -156q-103 -100 -167 -249t-64 -337q0 -181 50 -318.5t141 -230.5q89 -90 210 -135t262 -45q159 0 283 43t223 125zM1182 742q-14 81 -45 118
t-91 37q-64 0 -117.5 -51.5t-90.5 -122.5q-39 -74 -60.5 -161.5t-21.5 -161.5q0 -85 20.5 -130.5t67.5 -45.5q68 0 122 47t101 133z" />
    <glyph glyph-name="A" unicode="A" horiz-adv-x="1374" 
d="M1421 0h-591v71q78 5 129.5 20t51.5 37q0 9 -2 22t-6 23l-118 318h-497q-28 -70 -45.5 -122t-31.5 -96q-13 -43 -18 -70t-5 -44q0 -40 63 -62t142 -26v-71h-534v71q26 2 65 11.5t64 25.5q40 27 62 56.5t43 81.5q107 267 236 600t230 593h80l473 -1224q15 -39 34 -63
t53 -47q23 -14 60 -23.5t62 -10.5v-71zM849 580l-215 550l-211 -550h426z" />
    <glyph glyph-name="B" unicode="B" horiz-adv-x="1339" 
d="M1104 661q62 -42 103 -110t41 -165q0 -99 -43 -172t-112 -120q-67 -46 -151.5 -70t-174.5 -24h-672v71q24 2 70 8.5t66 15.5q31 14 44 37.5t13 60.5v1020q0 34 -11.5 60t-45.5 42q-30 15 -67 23t-62 10v71h655q76 0 145.5 -15t132.5 -53q59 -35 97 -95t38 -146
q0 -75 -27 -133.5t-76 -100.5q-46 -40 -105.5 -67.5t-128.5 -42.5v-9q61 -7 136.5 -30.5t134.5 -65.5zM863 875q37 43 51.5 94t14.5 121q0 117 -64 183.5t-202 66.5q-32 0 -80.5 -1.5t-81.5 -2.5v-545h127q82 0 140.5 21t94.5 63zM1001 422q0 126 -84.5 207t-241.5 81
q-64 0 -108 -1.5t-66 -2.5v-500q0 -63 51 -95t142 -32q149 0 228 87t79 256z" />
    <glyph glyph-name="C" unicode="C" horiz-adv-x="1315" 
d="M723 -33q-127 0 -243.5 50t-206.5 144q-89 94 -142 229.5t-53 305.5t52 308.5t144 238.5q91 99 215 153t265 54q105 0 190 -26t162 -73l41 68h80l9 -506h-82q-16 74 -48 160.5t-75 146.5q-48 68 -114 106.5t-151 38.5q-97 0 -180.5 -43t-144.5 -127q-58 -81 -91 -206
t-33 -279q0 -136 34.5 -249.5t98.5 -199.5q64 -85 151.5 -133t195.5 -48q81 0 149 25.5t118 67.5q50 44 88 100t62 122l75 -36q-86 -211 -228 -301.5t-338 -90.5z" />
    <glyph glyph-name="D" unicode="D" horiz-adv-x="1534" 
d="M1457 701q0 -181 -68 -314t-177 -218q-110 -85 -247 -127t-283 -42h-588v71q29 0 75.5 5.5t61.5 12.5q30 13 43.5 38.5t13.5 61.5v1024q0 34 -11.5 61t-45.5 43q-31 15 -67 22t-62 9v71h620q128 0 252 -39.5t216 -106.5q125 -89 196 -233t71 -339zM1212 702
q0 143 -38 258.5t-111 201.5q-69 82 -169.5 129t-223.5 47q-41 0 -92.5 -1.5t-76.5 -2.5v-1091q0 -91 53 -126t163 -35q127 0 222 45t154 125q62 84 90.5 194.5t28.5 255.5z" />
    <glyph glyph-name="E" unicode="E" horiz-adv-x="1338" 
d="M1291 418l-27 -418h-1178v71q30 2 80 8.5t65 13.5q32 15 44.5 39t12.5 61v1020q0 33 -11 58.5t-46 41.5q-27 13 -72.5 23t-72.5 12v71h1098v-342h-75q-20 76 -86.5 161.5t-126.5 93.5q-31 4 -74 6t-98 2h-223v-564h160q77 0 112.5 14.5t62.5 48.5q22 29 37.5 77.5
t20.5 91.5h75v-555h-75q-4 48 -21.5 101.5t-36.5 77.5q-31 39 -70.5 51t-104.5 12h-160v-426q0 -64 9 -101t35 -56t71 -24.5t128 -5.5h87t91 4q38 4 78.5 14.5t57.5 28.5q46 48 96.5 145.5t64.5 143.5h72z" />
    <glyph glyph-name="F" unicode="F" horiz-adv-x="1227" 
d="M1199 1064h-75q-21 79 -87.5 169t-127.5 99q-31 4 -73.5 6t-96.5 2h-238v-570h163q74 0 115 15.5t70 47.5q20 22 36.5 68.5t21.5 99.5h76v-557h-76q-3 44 -20.5 100t-37.5 81q-30 37 -75.5 50.5t-109.5 13.5h-163v-489q0 -33 13 -59t46 -42q15 -7 65 -17t76 -11v-71h-615
v71q30 2 80 6.5t65 11.5q30 13 43.5 38.5t13.5 61.5v1024q0 33 -11 58.5t-46 41.5q-27 13 -72.5 23t-72.5 12v71h1113v-355z" />
    <glyph glyph-name="G" unicode="G" horiz-adv-x="1485" 
d="M1471 567q-24 -3 -64.5 -9.5t-65.5 -18.5q-30 -15 -42.5 -42.5t-12.5 -64.5v-110q0 -120 1.5 -162t3.5 -69q-133 -60 -265 -92t-259 -32q-136 0 -262 51t-220 145q-95 95 -151 231t-56 304q0 162 53.5 300.5t151.5 240.5q95 100 226.5 155.5t281.5 55.5q120 0 209 -29
t157 -70l41 68h80l9 -496h-82q-21 82 -52 161.5t-80 142.5t-119.5 100.5t-168.5 37.5q-107 0 -191 -43.5t-146 -129.5q-61 -83 -94 -207t-33 -277q0 -135 32.5 -254.5t94.5 -206.5q62 -89 155 -140t211 -51q88 0 160.5 27t102.5 57q8 52 8.5 105t0.5 90v78q0 42 -11.5 74.5
t-47.5 47.5q-33 15 -89.5 22.5t-88.5 9.5v73h622v-73z" />
    <glyph glyph-name="H" unicode="H" horiz-adv-x="1669" 
d="M1567 0h-589v71q24 2 69.5 6t62.5 12q30 12 44 36.5t14 63.5v505h-667v-494q0 -35 11.5 -59t45.5 -42q17 -9 60.5 -18t68.5 -10v-71h-589v71q24 2 69.5 6t62.5 12q30 12 44 36.5t14 63.5v1024q0 32 -13 58.5t-45 41.5q-27 13 -65.5 23t-66.5 12v71h589v-71
q-28 -1 -68.5 -9t-60.5 -15q-34 -12 -45.5 -40t-11.5 -61v-440h667v430q0 32 -13 58.5t-45 41.5q-27 13 -65.5 23t-66.5 12v71h589v-71q-28 -1 -68.5 -9t-60.5 -15q-34 -12 -45.5 -40t-11.5 -61v-1023q0 -35 11.5 -59t45.5 -42q17 -9 60.5 -18t68.5 -10v-71z" />
    <glyph glyph-name="I" unicode="I" horiz-adv-x="798" 
d="M718 0h-639v71q27 2 78 6t72 12q33 13 48 35.5t15 62.5v1028q0 35 -11 58.5t-52 39.5q-30 12 -75.5 22.5t-74.5 12.5v71h639v-71q-31 -1 -74 -7.5t-75 -16.5q-38 -12 -51 -39t-13 -60v-1027q0 -33 14.5 -58.5t49.5 -40.5q21 -8 68.5 -17.5t80.5 -10.5v-71z" />
    <glyph glyph-name="J" unicode="J" horiz-adv-x="1060" 
d="M1006 1348q-28 -1 -69.5 -7.5t-70.5 -16.5q-34 -12 -46 -40t-12 -61v-841q0 -66 -26.5 -140t-77.5 -132q-59 -68 -140.5 -106t-186.5 -38q-163 0 -264.5 91.5t-101.5 246.5q0 68 35 120.5t102 52.5q60 0 96.5 -33.5t36.5 -88.5q0 -32 -13 -64t-29 -57q-15 -23 -34 -54
t-27 -56q21 -33 65.5 -58t119.5 -25q73 0 119.5 33.5t69.5 89.5q22 52 31.5 128t9.5 170v751q0 35 -11.5 58.5t-47.5 41.5q-31 16 -77.5 24.5t-76.5 10.5v71h626v-71z" />
    <glyph glyph-name="K" unicode="K" horiz-adv-x="1422" 
d="M1475 0h-398q-115 178 -255.5 353.5t-294.5 340.5h-26v-494q0 -33 12.5 -59t45.5 -42q16 -7 59.5 -17t72.5 -11v-71h-589v71q23 2 67 6t62 12q30 13 43.5 38.5t13.5 61.5v1024q0 34 -11.5 59t-45.5 41q-27 13 -64 23t-65 12v71h589v-71q-28 -1 -70 -9t-62 -15
q-34 -12 -46 -40t-12 -61v-490h20q90 76 177 158.5t158 164.5q79 91 115.5 145.5t36.5 96.5q0 15 -18.5 24.5t-42.5 15.5q-28 6 -50 7.5t-36 2.5v71h532v-71q-3 0 -13 -1t-23 -2q-14 -1 -28 -4t-36 -7q-35 -8 -72.5 -25.5t-61.5 -43.5q-103 -117 -215 -242t-222 -228
q152 -172 251.5 -296t211.5 -265q43 -54 86 -86.5t74 -48.5q26 -13 65 -20t65 -8v-71z" />
    <glyph glyph-name="L" unicode="L" horiz-adv-x="1236" 
d="M1237 422l-30 -422h-1109v71q24 2 69.5 7t63.5 13q30 13 43.5 38t13.5 64v1016q0 34 -11.5 60t-45.5 42q-23 12 -64.5 23.5t-68.5 13.5v71h599v-71q-28 -1 -72.5 -10t-64.5 -16q-34 -12 -46.5 -41t-12.5 -62v-953q0 -66 6.5 -102.5t30.5 -56.5q23 -18 68.5 -23.5
t127.5 -5.5q37 0 77 2t76 8q35 6 64.5 16.5t43.5 26.5q41 46 95.5 139.5t75.5 151.5h71z" />
    <glyph glyph-name="M" unicode="M" horiz-adv-x="1899" 
d="M1806 0h-627v71q34 1 87.5 7t73.5 17q31 19 45.5 43.5t14.5 61.5v1032h-15l-484 -1209h-50l-461 1234h-13v-847q0 -123 15.5 -187t47.5 -92q22 -21 91 -40t90 -20v-71h-573v71q45 4 94.5 15t76.5 33q35 28 48 86t13 194v726q0 63 -15 103t-43 65q-31 27 -76 40t-89 15v71
h484l406 -1064l347 890q19 49 32.5 102.5t14.5 71.5h463v-71q-28 -1 -71.5 -9t-63.5 -15q-34 -12 -46 -40t-12 -61v-1023q0 -35 12 -59t46 -42q18 -10 64 -18.5t73 -9.5v-71z" />
    <glyph glyph-name="N" unicode="N" horiz-adv-x="1571" 
d="M1554 1348q-28 -1 -86 -16t-83 -31q-36 -25 -48.5 -96t-12.5 -180v-1039h-87l-860 1161v-732q0 -123 15.5 -189t47.5 -94q23 -22 95 -41t95 -20v-71h-582v71q27 2 91 19.5t80 31.5q35 28 48 85.5t13 196.5v699q0 46 -16 92t-43 71q-36 33 -97.5 56.5t-99.5 25.5v71h405
l798 -1082v675q0 124 -16 190.5t-46 88.5q-28 19 -91.5 37t-96.5 20v71h577v-71z" />
    <glyph glyph-name="O" unicode="O" horiz-adv-x="1524" 
d="M1244 1251q94 -98 147 -236.5t53 -306.5q0 -169 -54 -307t-150 -235q-93 -96 -216 -148t-262 -52q-148 0 -273.5 55.5t-215.5 154.5q-90 97 -141.5 235.5t-51.5 296.5q0 173 54 308.5t149 234.5q94 98 218.5 150t260.5 52q141 0 266 -53t216 -149zM1095 245
q56 91 81.5 206t25.5 257q0 146 -28.5 268t-83.5 208q-55 85 -138 132.5t-190 47.5q-120 0 -204 -55t-137 -147q-50 -88 -74.5 -206t-24.5 -248q0 -144 26 -260t82 -206q54 -88 136 -137.5t196 -49.5q107 0 193 50t140 140z" />
    <glyph glyph-name="P" unicode="P" horiz-adv-x="1249" 
d="M1184 1069q0 -111 -43.5 -196.5t-120.5 -141.5q-76 -56 -167 -82t-193 -26h-159v-430q0 -35 11.5 -61.5t47.5 -40.5q18 -7 63.5 -13t83.5 -7v-71h-609v71q24 2 69.5 7t63.5 13q30 13 43.5 38t13.5 64v1024q0 35 -10 63t-47 42q-38 13 -75.5 18.5t-64.5 7.5v71h648
q198 0 321.5 -95.5t123.5 -254.5zM880 827q34 48 45 99.5t11 92.5q0 57 -13.5 116t-46.5 103q-35 47 -92 73t-142 26h-141v-627h102q108 0 175.5 33.5t101.5 83.5z" />
    <glyph glyph-name="Q" unicode="Q" horiz-adv-x="1524" 
d="M1244 1251q94 -98 147 -236.5t53 -306.5q0 -134 -35 -248t-99 -204q-61 -86 -145 -150t-188 -101q2 -110 79 -197.5t166 -87.5q82 0 125 5.5t71 10.5v-79q-45 -13 -112.5 -27.5t-187.5 -14.5q-67 0 -131 19.5t-116 62.5t-86.5 109t-44.5 162q-143 5 -265 61.5t-209 154.5
q-88 99 -137 232.5t-49 291.5q0 173 54 308.5t149 234.5q94 98 218.5 150t260.5 52q141 0 266 -53t216 -149zM1095 245q56 91 81.5 206t25.5 257q0 146 -28.5 268t-83.5 208q-55 85 -138 132.5t-190 47.5q-120 0 -204 -55t-137 -147q-50 -88 -74.5 -206t-24.5 -248
q0 -144 26 -260t82 -206q54 -88 136 -137.5t196 -49.5q107 0 193 50t140 140z" />
    <glyph glyph-name="R" unicode="R" horiz-adv-x="1437" 
d="M1480 0h-382q-127 199 -229.5 344t-222.5 299h-145v-450q0 -35 11 -61.5t47 -40.5q18 -7 63 -13t76 -7v-71h-600v71q24 2 69.5 7t63.5 13q30 13 43.5 38t13.5 64v1026q0 35 -10 62t-47 41q-25 9 -65 16.5t-68 9.5v71h655q90 0 169 -18.5t143 -59.5q62 -40 99 -104.5
t37 -155.5q0 -82 -25 -145t-74 -109q-45 -43 -108 -74.5t-139 -53.5q105 -139 174.5 -234t170.5 -231q44 -60 79.5 -88.5t70.5 -46.5q26 -13 65 -20t65 -8v-71zM954 1058q0 129 -74 204.5t-209 75.5h-170v-609h131q138 0 230 88.5t92 240.5z" />
    <glyph glyph-name="S" unicode="S" horiz-adv-x="1149" 
d="M981 651q45 -50 66.5 -109.5t21.5 -138.5q0 -188 -139 -310t-345 -122q-95 0 -190 29.5t-164 71.5l-43 -73h-80l-14 486h81q25 -90 58.5 -162.5t88.5 -135.5q52 -59 121.5 -94t161.5 -35q69 0 120.5 18t83.5 51t47.5 77.5t15.5 102.5q0 85 -48 158.5t-143 111.5
q-65 26 -149 57.5t-145 59.5q-120 54 -186.5 141.5t-66.5 228.5q0 81 33 151t94 125q58 52 137 81.5t165 29.5q98 0 175.5 -30t141.5 -70l41 68h80l8 -471h-81q-22 81 -49.5 155t-71.5 134q-43 58 -105 92.5t-152 34.5q-95 0 -162 -61t-67 -149q0 -92 43 -152.5t125 -99.5
q73 -35 143.5 -60.5t136.5 -54.5q60 -26 115.5 -59t96.5 -77z" />
    <glyph glyph-name="T" unicode="T" horiz-adv-x="1267" 
d="M1251 1034h-69q-9 36 -32.5 85.5t-52.5 93.5q-30 46 -65.5 80.5t-68.5 39.5q-31 4 -78 6t-87 2h-58v-1135q0 -33 14 -60.5t49 -42.5q18 -7 75.5 -19t89.5 -13v-71h-670v71q28 2 85.5 8t79.5 15q33 13 48.5 37.5t15.5 65.5v1144h-58q-31 0 -77 -1.5t-88 -6.5
q-33 -4 -68.5 -39.5t-65.5 -80.5t-53 -95.5t-32 -83.5h-70v385h1236v-385z" />
    <glyph glyph-name="U" unicode="U" horiz-adv-x="1549" 
d="M1533 1348q-28 -1 -82 -12t-88 -33q-34 -23 -47 -95t-13 -176v-617q0 -118 -49 -205t-129 -143q-79 -54 -166.5 -77.5t-167.5 -23.5q-128 0 -228 33.5t-168 90.5q-67 57 -101 130.5t-34 153.5v839q0 35 -11.5 58.5t-46.5 43.5q-25 14 -64 22.5t-64 10.5v71h591v-71
q-28 -1 -70.5 -9t-62.5 -15q-34 -12 -45.5 -40t-11.5 -61v-784q0 -57 12.5 -119.5t49.5 -116.5q39 -55 106 -90t184 -35q110 0 184.5 35t117.5 92q41 54 58 113t17 119v582q0 111 -16 181.5t-47 92.5q-35 25 -95.5 39t-92.5 16v71h580v-71z" />
    <glyph glyph-name="V" unicode="V" horiz-adv-x="1365" 
d="M1407 1348q-26 -1 -63 -11.5t-61 -25.5q-34 -21 -54.5 -54t-40.5 -78q-67 -159 -201 -495.5t-276 -701.5h-83q-144 387 -278 746t-182 485q-12 31 -32 54.5t-53 44.5q-27 17 -60 25.5t-61 10.5v71h587v-71q-75 -4 -126.5 -15t-51.5 -39q0 -11 4 -26t7 -24
q37 -98 120 -319.5t236 -630.5q76 185 175 437t133 346q33 91 38.5 126t5.5 57q0 23 -20.5 38.5t-54.5 26.5q-33 10 -67 15t-69 8v71h528v-71z" />
    <glyph glyph-name="W" unicode="W" horiz-adv-x="1998" 
d="M2028 1348q-25 -1 -58 -11.5t-61 -27.5q-35 -22 -56.5 -50.5t-37.5 -79.5q-71 -231 -165 -539.5t-203 -657.5h-92l-358 1092l-373 -1092h-88q-99 350 -205 726.5t-142 504.5q-9 31 -26.5 55t-47.5 44q-25 17 -58.5 25.5t-60.5 10.5v71h579v-71q-76 -4 -129.5 -15
t-53.5 -37q0 -10 3 -26.5t5 -26.5q23 -88 81.5 -290.5t173.5 -606.5l354 1053h98l357 -1076q72 248 124 433.5t86 317.5q24 93 30 127.5t6 58.5q0 34 -46.5 57t-150.5 31v71h515v-71z" />
    <glyph glyph-name="X" unicode="X" horiz-adv-x="1455" 
d="M1457 0h-664v71q82 2 132.5 15.5t50.5 41.5q0 15 -23 62t-59 105q-40 64 -95 150.5t-109 165.5q-88 -116 -200 -279.5t-112 -192.5q0 -33 30.5 -48.5t134.5 -19.5v-71h-530v71q26 2 66.5 7.5t66.5 18.5q52 28 83.5 60.5t63.5 76.5q64 88 164 219.5t177 239.5
q-58 85 -148 215.5t-192 279.5q-43 63 -67.5 89t-65.5 45q-24 11 -66.5 17.5t-67.5 8.5v71h657v-71q-58 -2 -120.5 -14.5t-62.5 -38.5q0 -19 25 -66.5t59 -101.5q35 -56 78 -124t105 -157q113 153 195 276t82 160q0 32 -37.5 47t-126.5 19v71h529v-71q-25 -1 -65.5 -7.5
t-67.5 -18.5q-52 -25 -77.5 -54t-68.5 -84q-80 -103 -147.5 -193.5t-162.5 -220.5q80 -114 178.5 -259t188.5 -277q31 -45 71 -85.5t65 -55.5q24 -14 64.5 -17.5t68.5 -4.5v-71z" />
    <glyph glyph-name="Y" unicode="Y" horiz-adv-x="1260" 
d="M1314 1348q-17 -1 -54 -13.5t-53 -24.5q-39 -24 -53 -37t-54 -68q-78 -110 -144 -223t-165 -287q-37 -64 -49 -103t-12 -113v-271q0 -36 14.5 -62.5t49.5 -42.5q21 -8 75 -19.5t87 -12.5v-71h-664v71q28 2 84 7.5t78 14.5q36 15 49.5 41t13.5 64v345q0 16 -19.5 58.5
t-46.5 94.5q-60 116 -133 251t-127 231q-33 57 -58.5 86t-58.5 51q-24 15 -57.5 23t-60.5 10v71h605v-71q-102 -2 -144 -14t-42 -34q0 -6 6 -21t17 -38q13 -26 31 -59.5t34 -64.5q47 -89 96 -177.5t128 -230.5q157 253 239.5 394.5t82.5 169.5q0 23 -17 37t-45 22
q-29 8 -63 10.5t-63 5.5v71h493v-71z" />
    <glyph glyph-name="Z" unicode="Z" horiz-adv-x="1232" 
d="M1214 443l-47 -443h-1140v35l893 1305h-327q-57 0 -95.5 -2t-70.5 -8q-66 -13 -148.5 -109t-124.5 -203h-70l43 401h1063v-35l-893 -1305h337q85 0 181 12t125 41q65 62 121 152t83 159h70z" />
    <glyph glyph-name="bracketleft" unicode="[" horiz-adv-x="768" 
d="M701 -310h-533v1829h533v-91h-355v-1646h355v-92z" />
    <glyph glyph-name="backslash" unicode="\" horiz-adv-x="960" 
d="M911 -424h-130l-691 1947h132z" />
    <glyph glyph-name="bracketright" unicode="]" horiz-adv-x="768" 
d="M600 -310h-533v92h355v1646h-355v91h533v-1829z" />
    <glyph glyph-name="asciicircum" unicode="^" horiz-adv-x="1317" 
d="M1126 796h-145l-321 524l-324 -524h-145l412 660h113z" />
    <glyph glyph-name="underscore" unicode="_" horiz-adv-x="1317" 
d="M1322 -282h-1327v101h1327v-101z" />
    <glyph glyph-name="grave" unicode="`" horiz-adv-x="1024" 
d="M739 1142l-38 -32q-103 82 -184 143.5t-120 93.5q-38 32 -53.5 52t-15.5 61q0 29 23 53.5t59 24.5q39 0 67 -18t60 -70q34 -55 80 -125.5t122 -182.5z" />
    <glyph glyph-name="a" unicode="a" horiz-adv-x="1032" 
d="M1006 18q-47 -17 -82.5 -27.5t-80.5 -10.5q-78 0 -124.5 36.5t-59.5 106.5h-6q-65 -72 -139.5 -110t-179.5 -38q-111 0 -182.5 68t-71.5 178q0 57 16 102t48 81q25 30 66 53.5t77 37.5q45 17 182.5 63t185.5 72v99q0 13 -5.5 50t-23.5 70q-20 37 -56.5 64.5t-103.5 27.5
q-46 0 -85.5 -15.5t-55.5 -32.5q0 -20 9.5 -59t9.5 -72q0 -35 -31.5 -64t-87.5 -29q-50 0 -73.5 35.5t-23.5 79.5q0 46 32.5 88t84.5 75q45 28 109 47.5t125 19.5q84 0 146.5 -11.5t113.5 -49.5q51 -37 77.5 -100.5t26.5 -163.5q0 -143 -3 -253.5t-3 -241.5q0 -39 13.5 -62
t41.5 -39q15 -9 47.5 -10t66.5 -1v-64zM657 546q-85 -25 -149 -49t-119 -60q-50 -34 -79 -80.5t-29 -110.5q0 -83 43.5 -122t110.5 -39q71 0 125 34.5t91 81.5z" />
    <glyph glyph-name="b" unicode="b" horiz-adv-x="1147" 
d="M1073 494q0 -222 -140 -373t-325 -151q-81 0 -159.5 25t-147.5 67l-74 -115l-62 14q5 74 7 178t2 201v976q0 34 -15.5 68t-39.5 49q-19 13 -63.5 19.5t-71.5 8.5v64l362 23l14 -15v-650l7 -2q62 66 135.5 99t144.5 33q182 0 304 -144t122 -375zM864 487q0 74 -16 151
t-50 134q-34 58 -89 94t-132 36q-70 0 -122.5 -27.5t-94.5 -74.5v-574q6 -24 23.5 -56t47.5 -61q30 -28 68 -45.5t93 -17.5q122 0 197 118t75 323z" />
    <glyph glyph-name="c" unicode="c" horiz-adv-x="930" 
d="M528 -26q-214 0 -335 142t-121 381q0 104 32.5 194.5t94.5 164.5q59 71 148 114.5t194 43.5q145 0 236 -69.5t91 -189.5q0 -50 -24 -88.5t-79 -38.5q-59 0 -91.5 30t-32.5 67q0 45 12 92.5t14 69.5q-18 31 -53.5 41.5t-76.5 10.5q-48 0 -91.5 -20.5t-84.5 -75.5
q-37 -50 -60 -135t-23 -203q0 -186 82.5 -303.5t216.5 -117.5q97 0 162.5 47t121.5 141l64 -42q-66 -118 -174 -187t-223 -69z" />
    <glyph glyph-name="d" unicode="d" horiz-adv-x="1176" 
d="M1152 18l-344 -22l-15 14v92l-8 2q-52 -58 -128.5 -95t-157.5 -37q-84 0 -162.5 37.5t-136.5 105.5q-59 69 -93.5 166t-34.5 214q0 107 37 203t102 168q61 67 149.5 107t180.5 40q69 0 135.5 -17.5t114.5 -44.5v343q0 42 -14 76.5t-39 52.5q-28 19 -75.5 27.5
t-102.5 12.5v62l403 23l15 -15v-1330q0 -35 13.5 -59.5t39.5 -41.5q19 -12 55 -15t66 -4v-65zM791 191v577q-8 26 -26 56t-45 55q-29 25 -68 41.5t-91 16.5q-60 0 -110.5 -31t-89.5 -89q-37 -56 -58.5 -142.5t-21.5 -191.5q0 -84 16 -152.5t54 -127.5q35 -56 89.5 -90
t129.5 -34q80 0 132.5 35t88.5 77z" />
    <glyph glyph-name="e" unicode="e" horiz-adv-x="990" 
d="M948 232q-62 -118 -166 -188t-239 -70q-119 0 -208.5 42t-147.5 114t-86.5 168t-28.5 203q0 96 30.5 188.5t89.5 166.5q57 71 141.5 114.5t189.5 43.5q108 0 185 -34t125 -93q46 -56 68.5 -132t22.5 -165v-66h-653q0 -97 18.5 -176t58.5 -139q39 -58 102 -91.5t150 -33.5
q89 0 153.5 41.5t124.5 149.5zM727 608q0 56 -9.5 120t-30.5 107q-23 46 -63 75t-103 29q-105 0 -174.5 -87.5t-75.5 -243.5h456z" />
    <glyph glyph-name="f" unicode="f" horiz-adv-x="666" 
d="M806 1429q0 -45 -24 -76t-73 -31q-31 0 -54.5 13t-43.5 35t-37 50t-29 45q-67 -3 -103.5 -93.5t-36.5 -288.5v-101h254v-96h-254v-708q0 -35 13.5 -57t42.5 -33q24 -9 64 -14.5t69 -7.5v-66h-520v66q23 2 47.5 4t42.5 8q28 9 41.5 31.5t13.5 58.5v718h-195v96h195v63
q0 225 116.5 364.5t291.5 139.5q89 0 134 -35t45 -85z" />
    <glyph glyph-name="g" unicode="g" horiz-adv-x="1043" 
d="M917 102q40 -38 63 -86t23 -119t-31 -133.5t-94 -108.5q-67 -47 -160 -73t-230 -26q-224 0 -335 65.5t-111 191.5q0 102 80 161t204 64v14q-30 9 -62 22.5t-55 31.5q-26 21 -42 49.5t-16 70.5q0 53 37.5 97.5t113.5 76.5v15q-96 45 -149 115.5t-53 163.5q0 140 104.5 230
t267.5 90q45 0 89.5 -9t90.5 -23h344v-96h-232v-6q37 -43 55 -95t18 -102q0 -130 -105.5 -220t-245.5 -90h-121q-23 -8 -48 -29t-25 -57q0 -37 21 -56.5t51 -26.5q29 -8 67.5 -10t79.5 -3q44 -1 120.5 -6t108.5 -6q46 -2 92.5 -22t84.5 -55zM647 687q0 117 -47.5 186.5
t-133.5 69.5q-47 0 -80.5 -19.5t-54.5 -55.5q-20 -33 -28.5 -79.5t-8.5 -95.5q0 -111 48.5 -181t125.5 -70q86 0 132.5 69.5t46.5 175.5zM839 -140q0 56 -26 92t-79 49q-28 4 -115 9t-202 5q-108 -21 -153.5 -70.5t-45.5 -127.5q0 -35 15 -67t52 -59q35 -26 94 -42.5
t144 -16.5q147 0 231.5 56.5t84.5 171.5z" />
    <glyph glyph-name="h" unicode="h" horiz-adv-x="1192" 
d="M1143 0h-484v66q23 2 51 4t46 8q28 9 41.5 31.5t13.5 58.5v507q0 105 -49.5 162t-120.5 57q-52 0 -96.5 -16.5t-79.5 -40.5q-34 -25 -52 -50t-28 -42v-567q0 -34 13.5 -56t41.5 -34q22 -10 45.5 -15t51.5 -7v-66h-484v66q23 2 48 4.5t42 7.5q28 9 42 31.5t14 58.5v1148
q0 34 -15.5 68t-40.5 51q-18 13 -63.5 18.5t-73.5 7.5v64l365 23l14 -15v-688h4q33 33 60 58.5t71 53.5q38 24 89.5 40t115.5 16q132 0 203 -83.5t71 -240.5v-513q0 -35 12.5 -56.5t41.5 -33.5q23 -9 41.5 -13.5t48.5 -6.5v-66z" />
    <glyph glyph-name="i" unicode="i" horiz-adv-x="600" 
d="M551 0h-477v66q23 2 47.5 4t42.5 8q28 9 41.5 31.5t13.5 58.5v609q0 32 -14.5 58.5t-40.5 44.5q-19 12 -55 20.5t-66 10.5v65l348 22l14 -14v-804q0 -35 13.5 -58t42.5 -34q22 -9 43 -14.5t47 -7.5v-66zM425 1387q0 -57 -37.5 -99.5t-92.5 -42.5q-51 0 -88.5 40.5
t-37.5 92.5q0 55 37.5 96t88.5 41q57 0 93.5 -38.5t36.5 -89.5z" />
    <glyph glyph-name="j" unicode="j" horiz-adv-x="598" 
d="M431 60q0 -110 -32 -206.5t-85 -159.5q-57 -67 -128.5 -102.5t-157.5 -35.5q-89 0 -134 35.5t-45 83.5q0 43 24 75.5t70 32.5q31 0 55 -13t42 -34q16 -18 32.5 -44.5t31.5 -51.5q76 0 108.5 92t32.5 295v742q0 32 -15.5 61.5t-40.5 47.5q-16 11 -76.5 22t-91.5 14v62
l396 22l14 -14v-924zM446 1388q0 -57 -37.5 -99.5t-92.5 -42.5q-51 0 -88.5 40.5t-37.5 92.5q0 55 37.5 96t88.5 41q57 0 93.5 -38.5t36.5 -89.5z" />
    <glyph glyph-name="k" unicode="k" horiz-adv-x="1097" 
d="M1117 0h-298q-78 113 -167 242t-185 251l-82 -77v-234q0 -36 13 -59.5t42 -34.5q24 -10 46 -15t51 -7v-66h-484v66q23 2 48 4.5t42 7.5q28 9 42 31.5t14 58.5v1146q0 37 -15.5 69.5t-40.5 49.5q-21 16 -65.5 21t-71.5 7v64l365 23l14 -15v-1043q78 78 168.5 167.5
t152.5 159.5q8 9 17.5 23.5t9.5 23.5q0 27 -43.5 40t-83.5 18v64h434v-62q-84 -25 -148.5 -62.5t-98.5 -67.5q-24 -20 -68 -65t-123 -118q82 -101 184.5 -242t149.5 -204q44 -59 79 -77t102 -22v-66z" />
    <glyph glyph-name="l" unicode="l" horiz-adv-x="586" 
d="M534 0h-481v66q23 2 49 4.5t43 7.5q28 9 42 31.5t14 58.5v1142q0 36 -15.5 67.5t-40.5 49.5q-18 12 -66 22t-77 12v64l371 23l14 -15v-1353q0 -35 13 -57.5t42 -34.5q22 -10 43.5 -15t48.5 -7v-66z" />
    <glyph glyph-name="m" unicode="m" horiz-adv-x="1804" 
d="M1761 0h-481v66q23 2 46.5 4t41.5 8q28 9 41.5 31.5t13.5 58.5v509q0 104 -47.5 160.5t-118.5 56.5q-49 0 -92 -15t-79 -42q-29 -22 -48.5 -47.5t-29.5 -42.5v-569q0 -35 12 -57.5t41 -34.5q23 -9 41.5 -13.5t48.5 -6.5v-66h-471v66q23 2 44.5 4t39.5 8q28 9 41.5 31.5
t13.5 58.5v509q0 104 -47.5 160.5t-118.5 56.5q-49 0 -92 -15.5t-79 -42.5q-29 -22 -49 -49.5t-30 -41.5v-565q0 -34 14 -57t42 -35q21 -10 43 -15t49 -7v-66h-479v66q23 2 47.5 4t42.5 8q28 9 41.5 31.5t13.5 58.5v613q0 32 -14.5 57.5t-40.5 43.5q-19 12 -47 19.5t-58 9.5
v65l330 22l14 -14v-141h7q25 25 61 59t67 55q35 24 87.5 40t113.5 16q96 0 165 -51.5t99 -124.5q36 35 63.5 61.5t72.5 56.5q38 26 89.5 42t114.5 16q125 0 198 -82t73 -252v-501q0 -35 12 -57.5t41 -34.5q23 -9 45.5 -13.5t50.5 -6.5v-66z" />
    <glyph glyph-name="n" unicode="n" horiz-adv-x="1210" 
d="M1161 0h-483v66q23 2 50.5 4t45.5 8q28 9 41.5 31.5t13.5 58.5v507q0 105 -49.5 162t-120.5 57q-53 0 -97 -16.5t-78 -40.5q-33 -23 -52.5 -49.5t-28.5 -42.5v-567q0 -34 14 -56t42 -34q21 -10 45.5 -15t50.5 -7v-66h-483v66q23 2 47.5 4t42.5 8q28 9 41.5 31.5
t13.5 58.5v609q0 34 -14.5 62.5t-40.5 46.5q-19 12 -45 17.5t-56 7.5v65l328 22l14 -14v-139h5q24 24 60 57.5t68 54.5q37 24 88 40t115 16q142 0 210.5 -88.5t68.5 -235.5v-513q0 -35 12 -56.5t41 -33.5q24 -10 41.5 -14t48.5 -6v-66z" />
    <glyph glyph-name="o" unicode="o" horiz-adv-x="1104" 
d="M1033 503q0 -104 -33 -204.5t-94 -170.5q-69 -80 -160 -119t-204 -39q-94 0 -179 35.5t-151 103.5q-65 67 -103.5 163.5t-38.5 216.5q0 231 134.5 378t352.5 147q207 0 341.5 -139.5t134.5 -371.5zM826 501q0 75 -15 158.5t-45 141.5q-32 62 -84 99.5t-127 37.5
q-77 0 -131.5 -38t-88.5 -104q-32 -61 -45 -139t-13 -151q0 -96 15.5 -177.5t49.5 -145.5t85.5 -100.5t127.5 -36.5q125 0 198 121t73 334z" />
    <glyph glyph-name="p" unicode="p" horiz-adv-x="1170" 
d="M973 869q59 -70 91.5 -162.5t32.5 -211.5q0 -117 -39 -213.5t-103 -164.5q-67 -69 -149 -106t-174 -37q-89 0 -146 20t-93 47h-8v-296q0 -36 14 -60t43 -35q24 -9 68.5 -17.5t73.5 -9.5v-67h-551v67q31 2 60 5t52 10q30 10 42 35t12 59v1049q0 30 -15 58t-39 45
q-18 12 -50 18.5t-62 8.5v65l336 22l14 -12v-111l8 -2q52 60 129 100t153 40q92 0 168.5 -39t131.5 -105zM810 160q40 62 59 144t19 183q0 74 -16 151t-50 134q-34 58 -89 94t-132 36q-74 0 -126 -32.5t-90 -77.5v-583q9 -27 29.5 -56t45.5 -50q31 -25 67 -40.5t88 -15.5
q56 0 108 29.5t87 83.5z" />
    <glyph glyph-name="q" unicode="q" horiz-adv-x="1146" 
d="M1154 -444h-533v67q31 2 61 5t54 10q31 10 43 35t12 59v364l-6 2q-16 -18 -45.5 -41.5t-61.5 -38.5q-40 -21 -77 -32.5t-93 -11.5q-90 0 -169.5 37.5t-138.5 106.5q-59 68 -93.5 167.5t-34.5 218.5q0 113 40 205.5t106 161.5q63 65 151.5 103.5t175.5 38.5
q65 0 115.5 -12.5t86.5 -29.5q31 -13 62 -33.5t44 -27.5l85 130l57 -8q-4 -74 -10.5 -182t-6.5 -189v-912q0 -35 13 -60.5t42 -38.5q24 -10 61 -17.5t60 -9.5v-67zM791 183v589q-8 25 -27 55.5t-45 53.5q-28 24 -68.5 40t-93.5 16q-117 0 -196.5 -121t-79.5 -333
q0 -84 15.5 -152t53.5 -127q36 -56 91 -89.5t139 -33.5q72 0 123 30.5t88 71.5z" />
    <glyph glyph-name="r" unicode="r" horiz-adv-x="839" 
d="M827 859q0 -51 -25 -90.5t-77 -39.5q-56 0 -85.5 29t-29.5 64q0 22 3.5 40t6.5 36q-47 0 -110 -38t-107 -108v-574q0 -35 13.5 -57t42.5 -33q25 -10 64.5 -15t68.5 -7v-66h-520v66q23 2 47.5 4t42.5 8q28 9 41.5 31.5t13.5 58.5v609q0 31 -14.5 61t-40.5 48
q-19 12 -45 17.5t-56 7.5v65l328 22l14 -14v-139h5q62 81 138 123t139 42t102.5 -41t39.5 -110z" />
    <glyph glyph-name="s" unicode="s" horiz-adv-x="885" 
d="M723 483q41 -36 63 -83t22 -115q0 -137 -102.5 -224t-265.5 -87q-86 0 -158.5 31t-103.5 57l-20 -65h-75l-10 343h69q8 -39 34 -91t63 -94q39 -44 93.5 -74t122.5 -30q96 0 148 43.5t52 124.5q0 42 -16.5 72.5t-48.5 53.5q-33 23 -81 41.5t-107 36.5q-47 14 -104.5 38.5
t-98.5 57.5q-44 35 -72 86t-28 120q0 121 90 205t241 84q58 0 118.5 -15t98.5 -36l23 52h72l15 -317h-69q-21 106 -90.5 172.5t-169.5 66.5q-82 0 -129 -41t-47 -99q0 -45 15.5 -75t46.5 -51q30 -20 75.5 -37.5t112.5 -39.5q66 -21 124.5 -49t96.5 -62z" />
    <glyph glyph-name="t" unicode="t" horiz-adv-x="707" 
d="M681 43q-65 -27 -123 -45.5t-142 -18.5q-124 0 -174.5 62.5t-50.5 176.5v668h-178v96h182v307h182v-307h283v-96h-281v-551q0 -62 4.5 -103.5t21.5 -72.5q16 -29 48 -44t86 -15q25 0 73.5 4.5t68.5 11.5v-73z" />
    <glyph glyph-name="u" unicode="u" horiz-adv-x="1178" 
d="M1129 18l-321 -22l-15 14v125h-6q-24 -25 -54 -53.5t-69 -51.5q-45 -27 -87 -41t-119 -14q-131 0 -199.5 85.5t-68.5 248.5v472q0 36 -13.5 60.5t-39.5 42.5q-18 12 -45 17.5t-57 7.5v65l329 24l15 -14v-685q0 -107 48 -161t115 -54q55 0 98 17t72 40q27 21 47.5 44.5
t31.5 43.5v559q0 33 -14 58.5t-39 43.5q-18 12 -53.5 14.5t-79.5 4.5v65l358 24l15 -14v-783q0 -34 14 -58t39 -41q18 -11 43 -14.5t55 -4.5v-65z" />
    <glyph glyph-name="v" unicode="v" horiz-adv-x="1017" 
d="M1046 925q-45 -8 -85.5 -32.5t-69.5 -86.5q-59 -134 -122 -279.5t-131 -305.5q-20 -46 -42.5 -109t-41.5 -121h-78q-95 235 -175 428.5t-166 396.5q-20 46 -64.5 71.5t-89.5 32.5v66h456v-70q-30 -1 -75 -12.5t-45 -31.5q0 -3 5 -15.5t10 -28.5q41 -102 116 -285
t122 -295q36 86 90.5 214t117.5 286q10 27 19 50.5t9 47.5q0 17 -16.5 30.5t-39.5 23.5t-45 15t-36 7v64h377v-61z" />
    <glyph glyph-name="w" unicode="w" horiz-adv-x="1510" 
d="M1541 922q-42 -4 -90.5 -35t-70.5 -93q-50 -147 -94.5 -278.5t-99.5 -295.5q-18 -52 -36.5 -112t-33.5 -115h-86l-265 726l-267 -726h-82q-75 222 -146.5 440.5t-126.5 380.5q-16 47 -61 74t-87 32v66h440v-70q-33 -1 -71.5 -11t-38.5 -33q0 -4 3.5 -17t8.5 -28
q32 -105 72.5 -234.5t104.5 -336.5l252 710h96l257 -700q43 134 85.5 259.5t74.5 235.5q7 26 13.5 47.5t6.5 42.5q0 18 -16 32t-39 23q-20 8 -43.5 12t-34.5 4v64h375v-64z" />
    <glyph glyph-name="x" unicode="x" horiz-adv-x="1034" 
d="M1022 0h-452v66q45 5 76.5 10t31.5 26q0 9 -10 28t-20 35q-25 39 -68.5 104.5t-106.5 156.5q-52 -65 -96 -126.5t-92 -130.5q-7 -10 -14.5 -25t-7.5 -24q0 -22 28.5 -36.5t85.5 -19.5v-64h-365v62q68 20 109.5 48.5t76.5 70.5q31 40 86.5 110t143.5 190
q-51 73 -124.5 178.5t-121.5 175.5q-26 38 -59.5 61.5t-94.5 23.5v66h429v-66q-32 0 -63 -4t-31 -18q0 -9 6 -20t15 -24q22 -34 68.5 -105t100.5 -150q35 48 81.5 112t85.5 122q4 7 8 17.5t4 20.5q0 21 -34.5 33.5t-65.5 17.5v64h364v-62q-77 -20 -120 -47.5t-73 -63.5
q-33 -41 -78.5 -101t-127.5 -168q91 -128 148 -210t115 -169q29 -44 64.5 -69.5t97.5 -29.5v-66z" />
    <glyph glyph-name="y" unicode="y" horiz-adv-x="1008" 
d="M-3 -322q0 50 27.5 81.5t68.5 31.5q32 0 55 -12t41 -31q15 -15 32 -41t27 -43q50 27 119.5 141t100.5 200q-95 237 -172 424t-161 387q-19 46 -64 71.5t-90 32.5v66h450v-70q-30 -1 -72 -12.5t-42 -26.5q0 -6 4.5 -20t10.5 -29q38 -99 116 -285.5t121 -298.5
q45 107 93.5 221.5t108.5 270.5q7 19 20 52.5t13 57.5q0 26 -45.5 48.5t-86.5 27.5v64h366v-62q-30 -5 -79 -34.5t-73 -83.5q-119 -276 -211.5 -503t-140.5 -334q-63 -140 -112.5 -218.5t-96.5 -123.5q-46 -42 -83.5 -56.5t-77.5 -14.5q-78 0 -122.5 37t-44.5 85z" />
    <glyph glyph-name="z" unicode="z" horiz-adv-x="909" 
d="M853 0h-798v53l558 852h-138q-87 0 -136 -3t-90 -20q-28 -11 -52.5 -63t-42.5 -136h-61v303h754v-41l-567 -864q36 -1 79 -1.5t93 -0.5q40 0 83.5 1t111.5 5q40 2 60.5 27t31.5 57q11 29 26.5 80t27.5 99h60v-348z" />
    <glyph glyph-name="braceleft" unicode="{" horiz-adv-x="881" 
d="M814 -333q-105 0 -189 14.5t-141 54.5q-58 41 -87.5 109.5t-29.5 181.5q0 60 7.5 129.5t7.5 124.5q0 72 -21 119.5t-62 76.5q-40 29 -99 42t-128 18v129q70 6 130.5 20.5t97.5 41.5q43 31 62.5 78.5t19.5 115.5q0 57 -7.5 126t-7.5 129q0 104 29.5 175t87.5 113
q57 41 142 56.5t188 15.5v-82q-40 -2 -93 -10.5t-84 -25.5q-36 -20 -58.5 -63.5t-22.5 -117.5v-234q0 -105 -25 -174t-74 -112q-45 -40 -107 -63.5t-138 -37.5v-31q72 -14 135.5 -37t109.5 -64q47 -42 73 -111t26 -175v-233q0 -71 21 -115t60 -67q37 -21 86.5 -28t90.5 -9
v-80z" />
    <glyph glyph-name="bar" unicode="|" horiz-adv-x="768" 
d="M448 -424h-127v1947h127v-1947z" />
    <glyph glyph-name="braceright" unicode="}" horiz-adv-x="881" 
d="M809 537q-69 -5 -128.5 -18.5t-98.5 -41.5q-41 -29 -62 -76.5t-21 -119.5q0 -55 7.5 -124.5t7.5 -129.5q0 -113 -29.5 -181.5t-87.5 -109.5q-56 -39 -140.5 -54t-189.5 -15v80q41 2 91 9t86 28q39 23 60 67t21 115v233q0 106 26 175t73 111q46 41 109.5 64t135.5 37v31
q-76 14 -138 37.5t-107 63.5q-49 43 -74 112t-25 174v234q0 74 -22.5 117.5t-58.5 63.5q-31 17 -84 25.5t-93 10.5v82q103 0 188 -15.5t142 -56.5q58 -42 87.5 -113t29.5 -175q0 -60 -7.5 -129t-7.5 -126q0 -68 19.5 -115.5t62.5 -78.5q37 -26 97.5 -41t130.5 -21v-129z" />
    <glyph glyph-name="asciitilde" unicode="~" horiz-adv-x="1317" 
d="M1187 714q-14 -37 -46.5 -92.5t-72.5 -95.5q-49 -49 -103.5 -77.5t-118.5 -28.5q-72 0 -132 21.5t-110 46.5q-51 26 -100.5 47t-99.5 21q-67 0 -110.5 -46t-85.5 -130l-78 31q13 38 46.5 92t73.5 96q39 42 99.5 74t121.5 32q74 0 133.5 -21.5t110.5 -46.5
q54 -27 98.5 -47.5t99.5 -20.5q70 0 114.5 49t81.5 127z" />
    <glyph glyph-name="Adieresis" unicode="&#xc4;" horiz-adv-x="1374" 
d="M1421 0h-591v71q78 5 129.5 20t51.5 37q0 9 -2 22t-6 23l-118 318h-497q-28 -70 -45.5 -122t-31.5 -96q-13 -43 -18 -70t-5 -44q0 -40 63 -62t142 -26v-71h-534v71q26 2 65 11.5t64 25.5q40 27 62 56.5t43 81.5q107 267 236 600t230 593h80l473 -1224q15 -39 34 -63
t53 -47q23 -14 60 -23.5t62 -10.5v-71zM849 580l-215 550l-211 -550h426zM1038 1720q0 -51 -34.5 -87t-83.5 -36t-83.5 36t-34.5 87t34.5 87t83.5 36t83.5 -36t34.5 -87zM588 1720q0 -51 -34.5 -87t-83.5 -36t-83.5 36t-34.5 87t34.5 87t83.5 36t83.5 -36t34.5 -87z" />
    <glyph glyph-name="Aring" unicode="&#xc5;" horiz-adv-x="1374" 
d="M1421 0h-591v71q78 5 129.5 20t51.5 37q0 9 -2 22t-6 23l-118 318h-497q-28 -70 -45.5 -122t-31.5 -96q-13 -42 -18 -69.5t-5 -44.5q0 -40 63 -62t142 -26v-71h-534v71q26 2 65.5 11.5t63.5 25.5q40 27 62 56.5t43 81.5q102 255 226.5 577t234.5 602q-101 12 -158 71.5
t-57 149.5q0 98 75 160t183 62q112 0 185 -60.5t73 -161.5q0 -86 -58 -147t-153 -73l468 -1211q15 -39 34 -63t53 -47q22 -15 59.5 -24t62.5 -10v-71zM849 580l-215 550l-211 -550h426zM829 1646q0 68 -33.5 113t-98.5 45q-63 0 -97.5 -43t-34.5 -115q0 -69 34 -115t98 -46
t98 45.5t34 115.5z" />
    <glyph glyph-name="Ccedilla" unicode="&#xc7;" horiz-adv-x="1315" 
d="M723 -33q-127 0 -243.5 50t-206.5 144q-89 94 -142 229.5t-53 305.5t52 308.5t144 238.5q91 99 215 153t265 54q105 0 190 -26t162 -73l41 68h80l9 -506h-82q-16 74 -48 160.5t-75 146.5q-48 68 -114 106.5t-151 38.5q-97 0 -180.5 -43t-144.5 -127q-58 -81 -91 -206
t-33 -279q0 -136 34.5 -249.5t98.5 -199.5q64 -85 151.5 -133t195.5 -48q81 0 149 25.5t118 67.5q50 44 88 100t62 122l75 -36q-86 -211 -228 -301.5t-338 -90.5zM902 -129q34 -16 55 -45.5t21 -73.5q0 -58 -32 -98t-89 -62q-55 -20 -122 -28t-156 -8v72q41 0 89 1t82 9
q40 9 62 27.5t22 52.5q0 49 -55 62t-110 13v224h79v-116q45 0 81 -5.5t73 -24.5z" />
    <glyph glyph-name="Eacute" unicode="&#xc9;" horiz-adv-x="1338" 
d="M1291 418l-27 -418h-1178v71q30 2 80 8.5t65 13.5q32 15 44.5 39t12.5 61v1020q0 33 -11 58.5t-46 41.5q-27 13 -72.5 23t-72.5 12v71h1098v-342h-75q-20 76 -86.5 161.5t-126.5 93.5q-31 4 -74 6t-98 2h-223v-564h160q77 0 112.5 14.5t62.5 48.5q22 29 37.5 77.5
t20.5 91.5h75v-555h-75q-4 48 -21.5 101.5t-36.5 77.5q-31 39 -70.5 51t-104.5 12h-160v-426q0 -64 9 -101t35 -56t71 -24.5t128 -5.5h87t91 4q38 4 78.5 14.5t57.5 28.5q46 48 96.5 145.5t64.5 143.5h72zM871 1675q-44 -22 -136.5 -66.5t-209.5 -101.5l-31 39
q91 87 148.5 143.5t113.5 115.5q32 34 58.5 48.5t56.5 14.5q38 0 65 -23t27 -57q0 -43 -26 -68t-66 -45z" />
    <glyph glyph-name="Ntilde" unicode="&#xd1;" horiz-adv-x="1571" 
d="M1554 1348q-28 -1 -86 -16t-83 -31q-36 -25 -48.5 -96t-12.5 -180v-1039h-87l-860 1161v-732q0 -123 15.5 -189t47.5 -94q23 -22 95 -41t95 -20v-71h-582v71q27 2 91 19.5t80 31.5q35 28 48 85.5t13 196.5v699q0 46 -16 92t-43 71q-36 33 -97.5 56.5t-99.5 25.5v71h405
l798 -1082v675q0 124 -16 190.5t-46 88.5q-28 19 -91.5 37t-96.5 20v71h577v-71zM1194 1835q-10 -38 -30 -78t-55 -79q-36 -39 -75.5 -62.5t-94.5 -23.5q-57 0 -100 16.5t-74 34.5q-35 20 -66.5 36t-69.5 16q-31 0 -46.5 -8t-32.5 -27q-16 -18 -32 -47.5t-30 -53.5l-58 25
q10 32 34 77t52 79q30 36 73 61.5t90 25.5q56 0 96.5 -16.5t74.5 -35.5q38 -21 64 -36t64 -15q40 0 64.5 9.5t38.5 26.5q16 19 26.5 41t25.5 57z" />
    <glyph glyph-name="Odieresis" unicode="&#xd6;" horiz-adv-x="1524" 
d="M1244 1251q94 -98 147 -236.5t53 -306.5q0 -169 -54 -307t-150 -235q-93 -96 -216 -148t-262 -52q-148 0 -273.5 55.5t-215.5 154.5q-90 97 -141.5 235.5t-51.5 296.5q0 173 54 308.5t149 234.5q94 98 218.5 150t260.5 52q141 0 266 -53t216 -149zM1095 245
q56 91 81.5 206t25.5 257q0 146 -28.5 268t-83.5 208q-55 85 -138 132.5t-190 47.5q-120 0 -204 -55t-137 -147q-50 -88 -74.5 -206t-24.5 -248q0 -144 26 -260t82 -206q54 -88 136 -137.5t196 -49.5q107 0 193 50t140 140zM1105 1730q0 -51 -34.5 -87t-83.5 -36t-83.5 36
t-34.5 87t34.5 87t83.5 36t83.5 -36t34.5 -87zM655 1730q0 -51 -34.5 -87t-83.5 -36t-83.5 36t-34.5 87t34.5 87t83.5 36t83.5 -36t34.5 -87z" />
    <glyph glyph-name="Udieresis" unicode="&#xdc;" horiz-adv-x="1549" 
d="M1533 1348q-28 -1 -82 -12t-88 -33q-34 -23 -47 -95t-13 -176v-617q0 -118 -49 -205t-129 -143q-79 -54 -166.5 -77.5t-167.5 -23.5q-128 0 -228 33.5t-168 90.5q-67 57 -101 130.5t-34 153.5v839q0 35 -11.5 58.5t-46.5 43.5q-25 14 -64 22.5t-64 10.5v71h591v-71
q-28 -1 -70.5 -9t-62.5 -15q-34 -12 -45.5 -40t-11.5 -61v-784q0 -57 12.5 -119.5t49.5 -116.5q39 -55 106 -90t184 -35q110 0 184.5 35t117.5 92q41 54 58 113t17 119v582q0 111 -16 181.5t-47 92.5q-35 25 -95.5 39t-92.5 16v71h580v-71zM1158 1730q0 -51 -34.5 -87
t-83.5 -36t-83.5 36t-34.5 87t34.5 87t83.5 36t83.5 -36t34.5 -87zM708 1730q0 -51 -34.5 -87t-83.5 -36t-83.5 36t-34.5 87t34.5 87t83.5 36t83.5 -36t34.5 -87z" />
    <glyph glyph-name="aacute" unicode="&#xe1;" horiz-adv-x="1032" 
d="M1006 18q-47 -17 -82.5 -27.5t-80.5 -10.5q-78 0 -124.5 36.5t-59.5 106.5h-6q-65 -72 -139.5 -110t-179.5 -38q-111 0 -182.5 68t-71.5 178q0 57 16 102t48 81q25 30 66 53.5t77 37.5q45 17 182.5 63t185.5 72v99q0 13 -5.5 50t-23.5 70q-20 37 -56.5 64.5t-103.5 27.5
q-46 0 -85.5 -15.5t-55.5 -32.5q0 -20 9.5 -59t9.5 -72q0 -35 -31.5 -64t-87.5 -29q-50 0 -73.5 35.5t-23.5 79.5q0 46 32.5 88t84.5 75q45 28 109 47.5t125 19.5q84 0 146.5 -11.5t113.5 -49.5q51 -37 77.5 -100.5t26.5 -163.5q0 -143 -3 -253.5t-3 -241.5q0 -39 13.5 -62
t41.5 -39q15 -9 47.5 -10t66.5 -1v-64zM657 546q-85 -25 -149 -49t-119 -60q-50 -34 -79 -80.5t-29 -110.5q0 -83 43.5 -122t110.5 -39q71 0 125 34.5t91 81.5zM738 1460q0 -38 -17.5 -62t-51.5 -51q-50 -40 -130.5 -102t-173.5 -135l-38 32q90 133 125.5 187.5t76.5 120.5
q31 51 60 69.5t67 18.5q36 0 59 -24.5t23 -53.5z" />
    <glyph glyph-name="agrave" unicode="&#xe0;" horiz-adv-x="1032" 
d="M1006 18q-47 -17 -82.5 -27.5t-80.5 -10.5q-78 0 -124.5 36.5t-59.5 106.5h-6q-65 -72 -139.5 -110t-179.5 -38q-111 0 -182.5 68t-71.5 178q0 57 16 102t48 81q25 30 66 53.5t77 37.5q45 17 182.5 63t185.5 72v99q0 13 -5.5 50t-23.5 70q-20 37 -56.5 64.5t-103.5 27.5
q-46 0 -85.5 -15.5t-55.5 -32.5q0 -20 9.5 -59t9.5 -72q0 -35 -31.5 -64t-87.5 -29q-50 0 -73.5 35.5t-23.5 79.5q0 46 32.5 88t84.5 75q45 28 109 47.5t125 19.5q84 0 146.5 -11.5t113.5 -49.5q51 -37 77.5 -100.5t26.5 -163.5q0 -143 -3 -253.5t-3 -241.5q0 -39 13.5 -62
t41.5 -39q15 -9 47.5 -10t66.5 -1v-64zM657 546q-85 -25 -149 -49t-119 -60q-50 -34 -79 -80.5t-29 -110.5q0 -83 43.5 -122t110.5 -39q71 0 125 34.5t91 81.5zM696 1142l-38 -32q-103 82 -184 143.5t-120 93.5q-38 32 -53.5 52t-15.5 61q0 29 23 53.5t59 24.5q39 0 67 -18
t60 -70q34 -55 80 -125.5t122 -182.5z" />
    <glyph glyph-name="acircumflex" unicode="&#xe2;" horiz-adv-x="1032" 
d="M1006 18q-47 -17 -82.5 -27.5t-80.5 -10.5q-78 0 -124.5 36.5t-59.5 106.5h-6q-65 -72 -139.5 -110t-179.5 -38q-111 0 -182.5 68t-71.5 178q0 57 16 102t48 81q25 30 66 53.5t77 37.5q45 17 182.5 63t185.5 72v99q0 13 -5.5 50t-23.5 70q-20 37 -56.5 64.5t-103.5 27.5
q-46 0 -85.5 -15.5t-55.5 -32.5q0 -20 9.5 -59t9.5 -72q0 -35 -31.5 -64t-87.5 -29q-50 0 -73.5 35.5t-23.5 79.5q0 46 32.5 88t84.5 75q45 28 109 47.5t125 19.5q84 0 146.5 -11.5t113.5 -49.5q51 -37 77.5 -100.5t26.5 -163.5q0 -143 -3 -253.5t-3 -241.5q0 -39 13.5 -62
t41.5 -39q15 -9 47.5 -10t66.5 -1v-64zM657 546q-85 -25 -149 -49t-119 -60q-50 -34 -79 -80.5t-29 -110.5q0 -83 43.5 -122t110.5 -39q71 0 125 34.5t91 81.5zM819 1156l-48 -32l-279 273l-275 -273l-48 32l237 347q17 25 32.5 35t57.5 10q40 0 55 -10.5t29 -30.5z" />
    <glyph glyph-name="adieresis" unicode="&#xe4;" horiz-adv-x="1032" 
d="M1006 18q-47 -17 -82.5 -27.5t-80.5 -10.5q-78 0 -124.5 36.5t-59.5 106.5h-6q-65 -72 -139.5 -110t-179.5 -38q-111 0 -182.5 68t-71.5 178q0 57 16 102t48 81q25 30 66 53.5t77 37.5q45 17 182.5 63t185.5 72v99q0 13 -5.5 50t-23.5 70q-20 37 -56.5 64.5t-103.5 27.5
q-46 0 -85.5 -15.5t-55.5 -32.5q0 -20 9.5 -59t9.5 -72q0 -35 -31.5 -64t-87.5 -29q-50 0 -73.5 35.5t-23.5 79.5q0 46 32.5 88t84.5 75q45 28 109 47.5t125 19.5q84 0 146.5 -11.5t113.5 -49.5q51 -37 77.5 -100.5t26.5 -163.5q0 -143 -3 -253.5t-3 -241.5q0 -39 13.5 -62
t41.5 -39q15 -9 47.5 -10t66.5 -1v-64zM657 546q-85 -25 -149 -49t-119 -60q-50 -34 -79 -80.5t-29 -110.5q0 -83 43.5 -122t110.5 -39q71 0 125 34.5t91 81.5zM828 1364q0 -51 -34.5 -87t-83.5 -36t-83.5 36t-34.5 87t34.5 87t83.5 36t83.5 -36t34.5 -87zM398 1364
q0 -51 -34.5 -87t-83.5 -36t-83.5 36t-34.5 87t34.5 87t83.5 36t83.5 -36t34.5 -87z" />
    <glyph glyph-name="atilde" unicode="&#xe3;" horiz-adv-x="1032" 
d="M1006 18q-47 -17 -82.5 -27.5t-80.5 -10.5q-78 0 -124.5 36.5t-59.5 106.5h-6q-65 -72 -139.5 -110t-179.5 -38q-111 0 -182.5 68t-71.5 178q0 57 16 102t48 81q25 30 66 53.5t77 37.5q45 17 182.5 63t185.5 72v99q0 13 -5.5 50t-23.5 70q-20 37 -56.5 64.5t-103.5 27.5
q-46 0 -85.5 -15.5t-55.5 -32.5q0 -20 9.5 -59t9.5 -72q0 -35 -31.5 -64t-87.5 -29q-50 0 -73.5 35.5t-23.5 79.5q0 46 32.5 88t84.5 75q45 28 109 47.5t125 19.5q84 0 146.5 -11.5t113.5 -49.5q51 -37 77.5 -100.5t26.5 -163.5q0 -143 -3 -253.5t-3 -241.5q0 -39 13.5 -62
t41.5 -39q15 -9 47.5 -10t66.5 -1v-64zM657 546q-85 -25 -149 -49t-119 -60q-50 -34 -79 -80.5t-29 -110.5q0 -83 43.5 -122t110.5 -39q71 0 125 34.5t91 81.5zM890 1467q-10 -38 -30 -78t-55 -79q-36 -39 -75.5 -62.5t-94.5 -23.5q-57 0 -100 16.5t-74 34.5
q-35 20 -66.5 36t-69.5 16q-31 0 -46.5 -8t-32.5 -27q-16 -18 -32 -47.5t-30 -53.5l-58 25q10 32 34 77t52 79q30 36 73 61.5t90 25.5q56 0 96.5 -16.5t74.5 -35.5q38 -21 64 -36t64 -15q40 0 64.5 9.5t38.5 26.5q16 19 26.5 41t25.5 57z" />
    <glyph glyph-name="aring" unicode="&#xe5;" horiz-adv-x="1032" 
d="M1006 18q-47 -17 -82.5 -27.5t-80.5 -10.5q-78 0 -124.5 36.5t-59.5 106.5h-6q-65 -72 -139.5 -110t-179.5 -38q-111 0 -182.5 68t-71.5 178q0 57 16 102t48 81q25 30 66 53.5t77 37.5q45 17 182.5 63t185.5 72v99q0 13 -5.5 50t-23.5 70q-20 37 -56.5 64.5t-103.5 27.5
q-46 0 -85.5 -15.5t-55.5 -32.5q0 -20 9.5 -59t9.5 -72q0 -35 -31.5 -64t-87.5 -29q-50 0 -73.5 35.5t-23.5 79.5q0 46 32.5 88t84.5 75q45 28 109 47.5t125 19.5q84 0 146.5 -11.5t113.5 -49.5q51 -37 77.5 -100.5t26.5 -163.5q0 -143 -3 -253.5t-3 -241.5q0 -39 13.5 -62
t41.5 -39q15 -9 47.5 -10t66.5 -1v-64zM657 546q-85 -25 -149 -49t-119 -60q-50 -34 -79 -80.5t-29 -110.5q0 -83 43.5 -122t110.5 -39q71 0 125 34.5t91 81.5zM753 1337q0 -98 -71 -160.5t-187 -62.5q-117 0 -187.5 61t-70.5 162q0 98 75 160t183 62q112 0 185 -60.5
t73 -161.5zM627 1337q0 68 -33.5 113t-98.5 45q-63 0 -97.5 -43t-34.5 -115q0 -69 34 -114t98 -45t98 44t34 115z" />
    <glyph glyph-name="ccedilla" unicode="&#xe7;" horiz-adv-x="930" 
d="M528 -26q-214 0 -335 142t-121 381q0 104 32.5 194.5t94.5 164.5q59 71 148 114.5t194 43.5q145 0 236 -69.5t91 -189.5q0 -50 -24 -88.5t-79 -38.5q-59 0 -91.5 30t-32.5 67q0 45 12 92.5t14 69.5q-18 31 -53.5 41.5t-76.5 10.5q-48 0 -91.5 -20.5t-84.5 -75.5
q-37 -50 -60 -135t-23 -203q0 -186 82.5 -303.5t216.5 -117.5q97 0 162.5 47t121.5 141l64 -42q-66 -118 -174 -187t-223 -69zM692 -129q34 -16 55 -45.5t21 -73.5q0 -58 -32 -98t-89 -62q-55 -20 -122 -28t-156 -8v72q41 0 89 1t82 9q40 9 62 27.5t22 52.5q0 49 -55 62
t-110 13v224h79v-116q45 0 81 -5.5t73 -24.5z" />
    <glyph glyph-name="eacute" unicode="&#xe9;" horiz-adv-x="990" 
d="M948 232q-62 -118 -166 -188t-239 -70q-119 0 -208.5 42t-147.5 114t-86.5 168t-28.5 203q0 96 30.5 188.5t89.5 166.5q57 71 141.5 114.5t189.5 43.5q108 0 185 -34t125 -93q46 -56 68.5 -132t22.5 -165v-66h-653q0 -97 18.5 -176t58.5 -139q39 -58 102 -91.5t150 -33.5
q89 0 153.5 41.5t124.5 149.5zM727 608q0 56 -9.5 120t-30.5 107q-23 46 -63 75t-103 29q-105 0 -174.5 -87.5t-75.5 -243.5h456zM763 1460q0 -38 -17.5 -62t-51.5 -51q-50 -40 -130.5 -102t-173.5 -135l-38 32q90 133 125.5 187.5t76.5 120.5q31 51 60 69.5t67 18.5
q36 0 59 -24.5t23 -53.5z" />
    <glyph glyph-name="egrave" unicode="&#xe8;" horiz-adv-x="990" 
d="M948 232q-62 -118 -166 -188t-239 -70q-119 0 -208.5 42t-147.5 114t-86.5 168t-28.5 203q0 96 30.5 188.5t89.5 166.5q57 71 141.5 114.5t189.5 43.5q108 0 185 -34t125 -93q46 -56 68.5 -132t22.5 -165v-66h-653q0 -97 18.5 -176t58.5 -139q39 -58 102 -91.5t150 -33.5
q89 0 153.5 41.5t124.5 149.5zM727 608q0 56 -9.5 120t-30.5 107q-23 46 -63 75t-103 29q-105 0 -174.5 -87.5t-75.5 -243.5h456zM697 1142l-38 -32q-103 82 -184 143.5t-120 93.5q-38 32 -53.5 52t-15.5 61q0 29 23 53.5t59 24.5q39 0 67 -18t60 -70q34 -55 80 -125.5
t122 -182.5z" />
    <glyph glyph-name="ecircumflex" unicode="&#xea;" horiz-adv-x="990" 
d="M948 232q-62 -118 -166 -188t-239 -70q-119 0 -208.5 42t-147.5 114t-86.5 168t-28.5 203q0 96 30.5 188.5t89.5 166.5q57 71 141.5 114.5t189.5 43.5q108 0 185 -34t125 -93q46 -56 68.5 -132t22.5 -165v-66h-653q0 -97 18.5 -176t58.5 -139q39 -58 102 -91.5t150 -33.5
q89 0 153.5 41.5t124.5 149.5zM727 608q0 56 -9.5 120t-30.5 107q-23 46 -63 75t-103 29q-105 0 -174.5 -87.5t-75.5 -243.5h456zM847 1150l-48 -32l-279 273l-275 -273l-48 32l237 347q17 25 32.5 35t57.5 10q40 0 55 -10.5t29 -30.5z" />
    <glyph glyph-name="edieresis" unicode="&#xeb;" horiz-adv-x="990" 
d="M948 232q-62 -118 -166 -188t-239 -70q-119 0 -208.5 42t-147.5 114t-86.5 168t-28.5 203q0 96 30.5 188.5t89.5 166.5q57 71 141.5 114.5t189.5 43.5q108 0 185 -34t125 -93q46 -56 68.5 -132t22.5 -165v-66h-653q0 -97 18.5 -176t58.5 -139q39 -58 102 -91.5t150 -33.5
q89 0 153.5 41.5t124.5 149.5zM727 608q0 56 -9.5 120t-30.5 107q-23 46 -63 75t-103 29q-105 0 -174.5 -87.5t-75.5 -243.5h456zM862 1364q0 -51 -34.5 -87t-83.5 -36t-83.5 36t-34.5 87t34.5 87t83.5 36t83.5 -36t34.5 -87zM432 1364q0 -51 -34.5 -87t-83.5 -36t-83.5 36
t-34.5 87t34.5 87t83.5 36t83.5 -36t34.5 -87z" />
    <glyph glyph-name="iacute" unicode="&#xed;" horiz-adv-x="600" 
d="M551 0h-477v66q23 2 47.5 4t42.5 8q28 9 41.5 31.5t13.5 58.5v609q0 32 -14.5 58.5t-40.5 44.5q-19 12 -55 20.5t-66 10.5v65l348 22l14 -14v-804q0 -35 13.5 -58t42.5 -34q22 -9 43 -14.5t47 -7.5v-66zM513 1460q0 -38 -17.5 -62t-51.5 -51q-50 -40 -130.5 -102
t-173.5 -135l-38 32q90 133 125.5 187.5t76.5 120.5q31 51 60 69.5t67 18.5q36 0 59 -24.5t23 -53.5z" />
    <glyph glyph-name="igrave" unicode="&#xec;" horiz-adv-x="600" 
d="M551 0h-477v66q23 2 47.5 4t42.5 8q28 9 41.5 31.5t13.5 58.5v609q0 32 -14.5 58.5t-40.5 44.5q-19 12 -55 20.5t-66 10.5v65l348 22l14 -14v-804q0 -35 13.5 -58t42.5 -34q22 -9 43 -14.5t47 -7.5v-66zM454 1142l-38 -32q-103 82 -184 143.5t-120 93.5q-38 32 -53.5 52
t-15.5 61q0 29 23 53.5t59 24.5q39 0 67 -18t60 -70q34 -55 80 -125.5t122 -182.5z" />
    <glyph glyph-name="icircumflex" unicode="&#xee;" horiz-adv-x="600" 
d="M551 0h-477v66q23 2 47.5 4t42.5 8q28 9 41.5 31.5t13.5 58.5v609q0 32 -14.5 58.5t-40.5 44.5q-19 12 -55 20.5t-66 10.5v65l348 22l14 -14v-804q0 -35 13.5 -58t42.5 -34q22 -9 43 -14.5t47 -7.5v-66zM560 1150l-48 -29l-244 270l-240 -270l-48 29l202 343
q11 20 30 34.5t60 14.5q44 0 60.5 -16t23.5 -29z" />
    <glyph glyph-name="idieresis" unicode="&#xef;" horiz-adv-x="600" 
d="M551 0h-477v66q23 2 47.5 4t42.5 8q28 9 41.5 31.5t13.5 58.5v609q0 32 -14.5 58.5t-40.5 44.5q-19 12 -55 20.5t-66 10.5v65l348 22l14 -14v-804q0 -35 13.5 -58t42.5 -34q22 -9 43 -14.5t47 -7.5v-66zM566 1364q0 -51 -33 -87t-82 -36t-82 36t-33 87t33 87t82 36
t82 -36t33 -87zM216 1364q0 -51 -33 -87t-82 -36t-82 36t-33 87t33 87t82 36t82 -36t33 -87z" />
    <glyph glyph-name="ntilde" unicode="&#xf1;" horiz-adv-x="1210" 
d="M1161 0h-483v66q23 2 50.5 4t45.5 8q28 9 41.5 31.5t13.5 58.5v507q0 105 -49.5 162t-120.5 57q-53 0 -97 -16.5t-78 -40.5q-33 -23 -52.5 -49.5t-28.5 -42.5v-567q0 -34 14 -56t42 -34q21 -10 45.5 -15t50.5 -7v-66h-483v66q23 2 47.5 4t42.5 8q28 9 41.5 31.5
t13.5 58.5v609q0 34 -14.5 62.5t-40.5 46.5q-19 12 -45 17.5t-56 7.5v65l328 22l14 -14v-139h5q24 24 60 57.5t68 54.5q37 24 88 40t115 16q142 0 210.5 -88.5t68.5 -235.5v-513q0 -35 12 -56.5t41 -33.5q24 -10 41.5 -14t48.5 -6v-66zM986 1467q-10 -38 -30 -78t-55 -79
q-36 -39 -75.5 -62.5t-94.5 -23.5q-57 0 -100 16.5t-74 34.5q-35 20 -66.5 36t-69.5 16q-31 0 -46.5 -8t-32.5 -27q-16 -18 -32 -47.5t-30 -53.5l-58 25q10 32 34 77t52 79q30 36 73 61.5t90 25.5q56 0 96.5 -16.5t74.5 -35.5q38 -21 64 -36t64 -15q40 0 64.5 9.5t38.5 26.5
q16 19 26.5 41t25.5 57z" />
    <glyph glyph-name="oacute" unicode="&#xf3;" horiz-adv-x="1104" 
d="M1033 503q0 -104 -33 -204.5t-94 -170.5q-69 -80 -160 -119t-204 -39q-94 0 -179 35.5t-151 103.5q-65 67 -103.5 163.5t-38.5 216.5q0 231 134.5 378t352.5 147q207 0 341.5 -139.5t134.5 -371.5zM826 501q0 75 -15 158.5t-45 141.5q-32 62 -84 99.5t-127 37.5
q-77 0 -131.5 -38t-88.5 -104q-32 -61 -45 -139t-13 -151q0 -96 15.5 -177.5t49.5 -145.5t85.5 -100.5t127.5 -36.5q125 0 198 121t73 334zM743 1460q0 -38 -17.5 -62t-51.5 -51q-50 -40 -130.5 -102t-173.5 -135l-38 32q90 133 125.5 187.5t76.5 120.5q31 51 60 69.5
t67 18.5q36 0 59 -24.5t23 -53.5z" />
    <glyph glyph-name="ograve" unicode="&#xf2;" horiz-adv-x="1104" 
d="M1033 503q0 -104 -33 -204.5t-94 -170.5q-69 -80 -160 -119t-204 -39q-94 0 -179 35.5t-151 103.5q-65 67 -103.5 163.5t-38.5 216.5q0 231 134.5 378t352.5 147q207 0 341.5 -139.5t134.5 -371.5zM826 501q0 75 -15 158.5t-45 141.5q-32 62 -84 99.5t-127 37.5
q-77 0 -131.5 -38t-88.5 -104q-32 -61 -45 -139t-13 -151q0 -96 15.5 -177.5t49.5 -145.5t85.5 -100.5t127.5 -36.5q125 0 198 121t73 334zM786 1142l-38 -32q-103 82 -184 143.5t-120 93.5q-38 32 -53.5 52t-15.5 61q0 29 23 53.5t59 24.5q39 0 67 -18t60 -70
q34 -55 80 -125.5t122 -182.5z" />
    <glyph glyph-name="ocircumflex" unicode="&#xf4;" horiz-adv-x="1104" 
d="M1033 503q0 -104 -33 -204.5t-94 -170.5q-69 -80 -160 -119t-204 -39q-94 0 -179 35.5t-151 103.5q-65 67 -103.5 163.5t-38.5 216.5q0 231 134.5 378t352.5 147q207 0 341.5 -139.5t134.5 -371.5zM826 501q0 75 -15 158.5t-45 141.5q-32 62 -84 99.5t-127 37.5
q-77 0 -131.5 -38t-88.5 -104q-32 -61 -45 -139t-13 -151q0 -96 15.5 -177.5t49.5 -145.5t85.5 -100.5t127.5 -36.5q125 0 198 121t73 334zM884 1150l-48 -32l-279 273l-275 -273l-48 32l237 347q17 25 32.5 35t57.5 10q40 0 55 -10.5t29 -30.5z" />
    <glyph glyph-name="odieresis" unicode="&#xf6;" horiz-adv-x="1104" 
d="M1033 503q0 -104 -33 -204.5t-94 -170.5q-69 -80 -160 -119t-204 -39q-94 0 -179 35.5t-151 103.5q-65 67 -103.5 163.5t-38.5 216.5q0 231 134.5 378t352.5 147q207 0 341.5 -139.5t134.5 -371.5zM826 501q0 75 -15 158.5t-45 141.5q-32 62 -84 99.5t-127 37.5
q-77 0 -131.5 -38t-88.5 -104q-32 -61 -45 -139t-13 -151q0 -96 15.5 -177.5t49.5 -145.5t85.5 -100.5t127.5 -36.5q125 0 198 121t73 334zM892 1364q0 -51 -34.5 -87t-83.5 -36t-83.5 36t-34.5 87t34.5 87t83.5 36t83.5 -36t34.5 -87zM462 1364q0 -51 -34.5 -87t-83.5 -36
t-83.5 36t-34.5 87t34.5 87t83.5 36t83.5 -36t34.5 -87z" />
    <glyph glyph-name="otilde" unicode="&#xf5;" horiz-adv-x="1104" 
d="M1033 503q0 -104 -33 -204.5t-94 -170.5q-69 -80 -160 -119t-204 -39q-94 0 -179 35.5t-151 103.5q-65 67 -103.5 163.5t-38.5 216.5q0 231 134.5 378t352.5 147q207 0 341.5 -139.5t134.5 -371.5zM826 501q0 75 -15 158.5t-45 141.5q-32 62 -84 99.5t-127 37.5
q-77 0 -131.5 -38t-88.5 -104q-32 -61 -45 -139t-13 -151q0 -96 15.5 -177.5t49.5 -145.5t85.5 -100.5t127.5 -36.5q125 0 198 121t73 334zM941 1467q-10 -38 -30 -78t-55 -79q-36 -39 -75.5 -62.5t-94.5 -23.5q-57 0 -100 16.5t-74 34.5q-35 20 -66.5 36t-69.5 16
q-31 0 -46.5 -8t-32.5 -27q-16 -18 -32 -47.5t-30 -53.5l-58 25q10 32 34 77t52 79q30 36 73 61.5t90 25.5q56 0 96.5 -16.5t74.5 -35.5q38 -21 64 -36t64 -15q40 0 64.5 9.5t38.5 26.5q16 19 26.5 41t25.5 57z" />
    <glyph glyph-name="uacute" unicode="&#xfa;" horiz-adv-x="1178" 
d="M1129 18l-321 -22l-15 14v125h-6q-24 -25 -54 -53.5t-69 -51.5q-45 -27 -87 -41t-119 -14q-131 0 -199.5 85.5t-68.5 248.5v472q0 36 -13.5 60.5t-39.5 42.5q-18 12 -45 17.5t-57 7.5v65l329 24l15 -14v-685q0 -107 48 -161t115 -54q55 0 98 17t72 40q27 21 47.5 44.5
t31.5 43.5v559q0 33 -14 58.5t-39 43.5q-18 12 -53.5 14.5t-79.5 4.5v65l358 24l15 -14v-783q0 -34 14 -58t39 -41q18 -11 43 -14.5t55 -4.5v-65zM808 1460q0 -38 -17.5 -62t-51.5 -51q-50 -40 -130.5 -102t-173.5 -135l-38 32q90 133 125.5 187.5t76.5 120.5q31 51 60 69.5
t67 18.5q36 0 59 -24.5t23 -53.5z" />
    <glyph glyph-name="ugrave" unicode="&#xf9;" horiz-adv-x="1178" 
d="M1129 18l-321 -22l-15 14v125h-6q-24 -25 -54 -53.5t-69 -51.5q-45 -27 -87 -41t-119 -14q-131 0 -199.5 85.5t-68.5 248.5v472q0 36 -13.5 60.5t-39.5 42.5q-18 12 -45 17.5t-57 7.5v65l329 24l15 -14v-685q0 -107 48 -161t115 -54q55 0 98 17t72 40q27 21 47.5 44.5
t31.5 43.5v559q0 33 -14 58.5t-39 43.5q-18 12 -53.5 14.5t-79.5 4.5v65l358 24l15 -14v-783q0 -34 14 -58t39 -41q18 -11 43 -14.5t55 -4.5v-65zM769 1142l-38 -32q-103 82 -184 143.5t-120 93.5q-38 32 -53.5 52t-15.5 61q0 29 23 53.5t59 24.5q39 0 67 -18t60 -70
q34 -55 80 -125.5t122 -182.5z" />
    <glyph glyph-name="ucircumflex" unicode="&#xfb;" horiz-adv-x="1178" 
d="M1129 18l-321 -22l-15 14v125h-6q-24 -25 -54 -53.5t-69 -51.5q-45 -27 -87 -41t-119 -14q-131 0 -199.5 85.5t-68.5 248.5v472q0 36 -13.5 60.5t-39.5 42.5q-18 12 -45 17.5t-57 7.5v65l329 24l15 -14v-685q0 -107 48 -161t115 -54q55 0 98 17t72 40q27 21 47.5 44.5
t31.5 43.5v559q0 33 -14 58.5t-39 43.5q-18 12 -53.5 14.5t-79.5 4.5v65l358 24l15 -14v-783q0 -34 14 -58t39 -41q18 -11 43 -14.5t55 -4.5v-65zM898 1150l-48 -32l-279 273l-275 -273l-48 32l237 347q17 25 32.5 35t57.5 10q40 0 55 -10.5t29 -30.5z" />
    <glyph glyph-name="udieresis" unicode="&#xfc;" horiz-adv-x="1178" 
d="M1129 18l-321 -22l-15 14v125h-6q-24 -25 -54 -53.5t-69 -51.5q-45 -27 -87 -41t-119 -14q-131 0 -199.5 85.5t-68.5 248.5v472q0 36 -13.5 60.5t-39.5 42.5q-18 12 -45 17.5t-57 7.5v65l329 24l15 -14v-685q0 -107 48 -161t115 -54q55 0 98 17t72 40q27 21 47.5 44.5
t31.5 43.5v559q0 33 -14 58.5t-39 43.5q-18 12 -53.5 14.5t-79.5 4.5v65l358 24l15 -14v-783q0 -34 14 -58t39 -41q18 -11 43 -14.5t55 -4.5v-65zM906 1364q0 -51 -34.5 -87t-83.5 -36t-83.5 36t-34.5 87t34.5 87t83.5 36t83.5 -36t34.5 -87zM476 1364q0 -51 -34.5 -87
t-83.5 -36t-83.5 36t-34.5 87t34.5 87t83.5 36t83.5 -36t34.5 -87z" />
    <glyph glyph-name="dagger" unicode="&#x2020;" horiz-adv-x="967" 
d="M864 1068q0 -34 -21 -52.5t-54 -18.5q-25 0 -108 19.5t-173 29.5q15 -247 31.5 -484.5t16.5 -267.5q0 -33 -16.5 -54t-54.5 -21q-34 0 -52.5 21t-18.5 54q0 22 11 190.5t33 561.5q-98 -10 -176.5 -29.5t-104.5 -19.5q-33 0 -54 18t-21 53q0 37 21 54t54 17
q30 0 108.5 -22t172.5 -31q-12 107 -29 188t-17 106q0 33 19 54t54 21q37 0 55 -21t18 -54q0 -27 -19.5 -111t-30.5 -183q108 12 181.5 32.5t99.5 20.5q33 0 54 -16.5t21 -54.5z" />
    <glyph glyph-name="degree" unicode="&#xb0;" horiz-adv-x="859" 
d="M755 1128q0 -137 -91.5 -231t-234.5 -94q-144 0 -234.5 95t-90.5 230q0 141 93 233t232 92q143 0 234.5 -94t91.5 -231zM607 1120q0 125 -49 191.5t-130 66.5q-82 0 -129 -67t-47 -180q0 -117 47 -185t133 -68q67 0 121 61.5t54 180.5z" />
    <glyph glyph-name="cent" unicode="&#xa2;" horiz-adv-x="1137" 
d="M1040 234q-59 -100 -161.5 -172.5t-227.5 -80.5v-280h-82v281q-205 18 -316.5 160.5t-111.5 356.5q0 193 119 339.5t309 171.5v265h82v-260q146 -1 244 -71.5t98 -188.5q0 -61 -26.5 -94t-79.5 -33q-65 0 -93.5 30t-28.5 67q0 45 14.5 92t16.5 70q-17 26 -57 40t-88 17
v-856q5 0 9 -0.5t11 -0.5q104 0 176.5 48.5t134.5 144.5zM569 100v839q-44 -11 -84 -41.5t-71 -80.5t-50.5 -129.5t-19.5 -180.5q0 -160 59 -266t166 -141z" />
    <glyph glyph-name="sterling" unicode="&#xa3;" horiz-adv-x="1274" 
d="M299 177h866v-177h-1048v148q69 23 112.5 73t66.5 116q22 61 31 134.5t9 149.5h-167v96h167l-9 120t-6 132q0 212 126.5 349.5t328.5 137.5q88 0 154.5 -27t109.5 -67q44 -42 68 -94.5t24 -107.5q0 -50 -24 -87.5t-80 -37.5q-59 0 -93 29.5t-34 67.5q0 44 12.5 91
t17.5 69q-13 28 -55 56t-104 28q-35 0 -75.5 -10t-81.5 -43q-39 -32 -64 -91t-25 -149q0 -64 5 -177.5t5 -188.5h396v-96h-396q0 -136 -60 -247.5t-177 -187.5v-9z" />
    <glyph glyph-name="section" unicode="&#xa7;" horiz-adv-x="1024" 
d="M903 634q0 -100 -67 -186.5t-183 -129.5q110 -47 159 -113t49 -154q0 -65 -28 -122t-80 -98q-56 -43 -126 -66t-170 -23q-91 0 -147.5 17.5t-90.5 44.5t-47.5 56t-13.5 54q0 44 25.5 72.5t73.5 28.5q34 0 57 -19t38 -44q16 -25 31 -61t27 -62q16 -4 34.5 -7t48.5 -3
q91 0 153.5 55.5t62.5 125.5q0 61 -51.5 118.5t-227.5 124.5q-169 66 -239 151.5t-70 201.5q0 95 59 173t182 131q-107 51 -155.5 112.5t-48.5 148.5q0 62 26 114t79 93q49 39 127 62.5t170 23.5q90 0 149 -18.5t91 -44.5t45 -56.5t13 -54.5q0 -46 -26 -72.5t-73 -26.5
q-32 0 -55 18t-40 45q-19 31 -30.5 60t-27.5 63q-14 4 -38 7t-45 3q-92 0 -151.5 -52t-59.5 -127q0 -41 21 -71.5t60 -56.5q39 -27 106.5 -56.5t118.5 -50.5q149 -62 217 -143.5t68 -185.5zM748 587q0 88 -77.5 156t-224.5 119q-92 -38 -132 -95.5t-40 -130.5
q0 -98 75.5 -162t232.5 -127q92 52 129 110.5t37 129.5z" />
    <glyph glyph-name="bullet" unicode="&#x2022;" horiz-adv-x="804" 
d="M666 599q0 -109 -77.5 -186.5t-186.5 -77.5t-186.5 77.5t-77.5 186.5t77.5 186.5t186.5 77.5t186.5 -77.5t77.5 -186.5z" />
    <glyph glyph-name="paragraph" unicode="&#xb6;" horiz-adv-x="1024" 
d="M1000 1345h-111v-1561h-103v1561h-160v-1561h-103v922q-193 0 -308.5 92.5t-115.5 260.5q0 162 107 261t277 99h517v-74z" />
    <glyph glyph-name="germandbls" unicode="&#xdf;" horiz-adv-x="1123" 
d="M928 806q50 -52 83 -128.5t33 -179.5q0 -225 -125 -367t-309 -142q-32 0 -65 3t-56 8v81q23 -5 46 -7.5t43 -2.5q69 0 120 34t79 91q30 59 44 134.5t14 173.5q0 173 -74.5 280t-211.5 107h-20v85h36q39 0 80.5 15t74.5 46q35 34 55.5 84t20.5 119q0 113 -50 173.5
t-133 60.5q-117 0 -172.5 -107.5t-55.5 -306.5v-1060h-326v66q21 2 47 4.5t43 8.5q25 9 37 32.5t12 61.5v833q0 137 21 232.5t103 183.5q67 72 146 100t155 28q71 0 129.5 -16.5t110.5 -55.5q49 -37 78 -93t29 -139q0 -75 -27.5 -131.5t-67.5 -92.5t-86.5 -57t-85.5 -25v-9
q53 -11 113.5 -42t111.5 -83z" />
    <glyph glyph-name="registered" unicode="&#xae;" horiz-adv-x="1929" 
d="M1849 602q0 -366 -259.5 -624.5t-625.5 -258.5t-625 258.5t-259 624.5t259 624.5t625 258.5t625.5 -258.5t259.5 -624.5zM1750 602q0 325 -229 560t-557 235t-556.5 -235t-228.5 -560t228.5 -560t556.5 -235t557 235t229 560zM1542 145h-287q-95 134 -165 223.5
t-143 180.5h-105v-262q0 -22 8.5 -40.5t33.5 -27.5q11 -4 46 -9.5t53 -6.5v-58h-439v58q18 2 49 6t46 10q22 9 31.5 26t9.5 42v642q0 24 -7 41.5t-34 26.5q-21 7 -48 12.5t-47 7.5v58h492q56 0 110 -12t98 -38q43 -26 70 -68.5t27 -102.5q0 -109 -59.5 -171t-175.5 -94
q81 -98 136.5 -166.5t99.5 -123.5q28 -35 55 -52t52 -25q20 -7 48 -12.5t45 -6.5v-58zM1155 834q0 83 -50 126t-147 43h-116v-378h87q104 0 165 55t61 154z" />
    <glyph glyph-name="copyright" unicode="&#xa9;" horiz-adv-x="1929" 
d="M1849 602q0 -366 -259.5 -624.5t-625.5 -258.5t-625 258.5t-259 624.5t259 624.5t625 258.5t625.5 -258.5t259.5 -624.5zM1750 602q0 325 -229 560t-557 235t-556.5 -235t-228.5 -560t228.5 -560t556.5 -235t557 235t229 560zM1375 404q-21 -52 -55.5 -106t-80.5 -93
q-52 -44 -111 -69t-146 -25q-107 0 -197.5 33t-156.5 97q-65 63 -100.5 152t-35.5 199q0 105 38 196t108 160q67 66 164.5 105t208.5 39q58 0 122.5 -20t96.5 -44l45 66h59l5 -363h-54q-20 60 -41.5 108.5t-59.5 91.5q-35 40 -86 64t-126 24q-120 0 -196.5 -111.5
t-76.5 -305.5q0 -183 92.5 -289.5t231.5 -106.5q101 0 172 53.5t122 169.5z" />
    <glyph glyph-name="trademark" unicode="&#x2122;" horiz-adv-x="1930" 
d="M1856 733h-346v52q16 0 45.5 2.5t39.5 7.5q16 11 22 18t6 22v451h-15l-244 -531h-32l-237 541h-15v-364q0 -53 6.5 -80.5t22.5 -41.5q13 -8 44 -16.5t54 -8.5v-52h-315v50q16 3 47.5 7.5t47.5 15.5q17 13 23 36t6 86v347q0 24 -7.5 40t-21.5 28q-15 12 -37.5 17.5
t-51.5 7.5v51h278l211 -472l176 387q11 25 16.5 47.5t8.5 37.5h268v-51q-17 -1 -43.5 -5t-37.5 -8q-15 -3 -19 -14t-4 -22v-484q0 -14 4 -22.5t19 -15.5q10 -3 34.5 -7.5t46.5 -4.5v-52zM776 1221h-48q-10 33 -40.5 82.5t-59.5 55.5q-22 2 -43 3t-35 1h-49v-524
q0 -14 4.5 -23.5t20.5 -16.5q10 -3 37 -8.5t50 -5.5v-52h-353v52q20 0 49 3.5t38 6.5q15 5 20 16t5 22v530h-49q-15 0 -40 -1.5t-38 -2.5q-31 -5 -60.5 -55.5t-39.5 -82.5h-48v198h679v-198z" />
    <glyph glyph-name="acute" unicode="&#xb4;" horiz-adv-x="1024" 
d="M696 1460q0 -38 -17.5 -62t-51.5 -51q-50 -40 -130.5 -102t-173.5 -135l-38 32q90 133 125.5 187.5t76.5 120.5q31 51 60 69.5t67 18.5q36 0 59 -24.5t23 -53.5z" />
    <glyph glyph-name="dieresis" unicode="&#xa8;" horiz-adv-x="1024" 
d="M845 1364q0 -51 -34.5 -87t-83.5 -36t-83.5 36t-34.5 87t34.5 87t83.5 36t83.5 -36t34.5 -87zM415 1364q0 -51 -34.5 -87t-83.5 -36t-83.5 36t-34.5 87t34.5 87t83.5 36t83.5 -36t34.5 -87z" />
    <glyph glyph-name="AE" unicode="&#xc6;" horiz-adv-x="1988" 
d="M1941 418l-27 -418h-1168v71q24 2 74.5 7.5t70.5 14.5q32 15 44.5 39t12.5 61v409h-480q-43 -71 -80.5 -139.5t-98.5 -192.5q-13 -25 -22 -51t-9 -49q0 -45 42.5 -69.5t125.5 -29.5v-71h-523v71q28 2 66.5 13t63.5 25q35 20 65.5 55.5t55.5 79.5q154 265 303 529t309 553
q-25 9 -77 14.5t-93 7.5v71h1238v-342h-75q-19 76 -86 161.5t-127 93.5q-31 4 -74 6t-98 2h-213v-564h150q76 0 112.5 14.5t62.5 48.5q22 29 37.5 77.5t20.5 91.5h75v-555h-75q-4 48 -21.5 101.5t-36.5 77.5q-31 39 -70 51t-105 12h-150v-426q0 -64 9 -101t35 -56
q27 -19 71.5 -24.5t127.5 -5.5h85.5t87.5 4q41 5 77.5 14.5t53.5 28.5q46 48 96.5 145.5t64.5 143.5h72zM948 690v641h-77l-354 -641h431z" />
    <glyph glyph-name="Oslash" unicode="&#xd8;" horiz-adv-x="1524" 
d="M1444 708q0 -171 -55.5 -309.5t-148.5 -233.5q-93 -96 -216 -148t-262 -52q-128 0 -238 43t-195 117l-174 -210l-64 50l181 215q-90 99 -141 235.5t-51 292.5q0 173 54 308.5t149 234.5q94 99 219 151t260 52q122 0 232.5 -41.5t200.5 -119.5l151 183l65 -52l-158 -188
q88 -98 139.5 -230.5t51.5 -297.5zM1098 1176q-58 93 -142 141t-194 48q-119 0 -203 -53.5t-140 -149.5q-50 -86 -75 -205.5t-25 -248.5q0 -116 16.5 -216t49.5 -177zM1098 244q55 92 81 207t26 257q0 114 -16 214.5t-49 179.5l-714 -859q54 -88 138.5 -138.5t197.5 -50.5
q109 0 194 48.5t142 141.5z" />
    <glyph glyph-name="plusminus" unicode="&#xb1;" horiz-adv-x="1317" 
d="M1168 0h-1019v125h446v402h-446v125h446v451h127v-451h446v-125h-446v-402h446v-125z" />
    <glyph glyph-name="yen" unicode="&#xa5;" horiz-adv-x="1259" 
d="M1282 1348q-17 -1 -54 -13.5t-53 -24.5q-39 -24 -53.5 -36.5t-53.5 -68.5q-113 -168 -176.5 -277.5t-165.5 -284.5v-83h393v-96h-393v-257q0 -36 13 -62.5t45 -42.5q18 -8 66.5 -19t78.5 -12v-71h-610v71q24 2 74.5 7t70.5 14q29 13 43 38.5t14 66.5v267h-393v96h393v64
q-87 176 -148 286t-150 268q-33 57 -58.5 86t-58.5 51q-24 15 -57.5 23t-60.5 10v71h579v-71q-97 -4 -132 -14t-35 -34q0 -11 17 -46t59 -113t87.5 -159.5t124.5 -223.5q114 190 202.5 340t88.5 175q0 23 -15 37t-41 22q-27 8 -53 10.5t-60 5.5v71h472v-71z" />
    <glyph glyph-name="mu1" unicode="&#xb5;" horiz-adv-x="1160" 
d="M1133 19q-47 -17 -83.5 -27.5t-81.5 -10.5q-77 0 -128.5 39t-64.5 115h-6q-25 -26 -57.5 -58t-63.5 -50q-41 -24 -80 -36t-114 -12q-58 0 -111 24t-79 57h-6v-58q0 -68 26.5 -182t26.5 -162q0 -49 -31 -75.5t-68 -26.5q-40 0 -65.5 27t-25.5 73q0 59 18 154t24 146
q7 55 9.5 98.5t2.5 81.5v850h189v-677q0 -104 46.5 -160.5t117.5 -56.5q55 0 98.5 16t70.5 37q25 20 45 43t31 43v755h189v-784q0 -43 13 -68t43 -40q17 -9 49 -10t66 -1v-64z" />
    <glyph glyph-name="ordfeminine" unicode="&#xaa;" horiz-adv-x="1024" 
d="M933 648q-39 -13 -71.5 -22t-70.5 -9q-65 0 -103.5 31.5t-49.5 88.5h-5q-55 -58 -120 -91t-149 -33q-89 0 -148.5 57t-59.5 143q0 51 14 90t38 68q24 26 55 41.5t64 28.5q70 28 162.5 56.5t145.5 56.5v55q0 10 -5.5 41t-19.5 56q-16 30 -48 52.5t-85 22.5
q-33 0 -63.5 -12.5t-45.5 -27.5q2 -15 8.5 -45.5t6.5 -52.5q0 -29 -31 -50.5t-77 -21.5q-44 0 -62.5 30.5t-18.5 65.5q0 76 96 131t197 55q67 0 122.5 -10.5t96.5 -38.5q43 -30 66.5 -80t23.5 -134q0 -116 -2.5 -200.5t-2.5 -191.5q0 -30 11.5 -49t35.5 -32q15 -8 41.5 -8.5
t53.5 -0.5v-60zM636 1075q-77 -23 -124.5 -39.5t-94.5 -44.5q-40 -24 -63 -59t-23 -82q0 -66 32 -97t85 -31q68 0 111 26.5t73 60.5z" />
    <glyph glyph-name="ordmasculine" unicode="&#xba;" horiz-adv-x="1024" 
d="M908 1038q0 -185 -109 -308.5t-295 -123.5q-161 0 -274.5 118t-113.5 303q0 187 111 306.5t290 119.5q174 0 282.5 -116t108.5 -299zM673 785q24 47 37 111.5t13 139.5q0 63 -10.5 125t-34.5 110q-25 49 -65 78.5t-98 29.5q-61 0 -103 -30.5t-67 -81.5
q-25 -48 -35 -110.5t-10 -116.5q0 -75 12 -139t38 -113t66.5 -78.5t97.5 -29.5q54 0 94 28t65 77z" />
    <glyph glyph-name="ae" unicode="&#xe6;" horiz-adv-x="1509" 
d="M1468 233q-58 -123 -159.5 -191t-224.5 -68q-127 0 -215 45.5t-157 142.5h-6q-77 -100 -163.5 -144t-203.5 -44q-113 0 -185.5 66.5t-72.5 179.5q0 61 17 107.5t46 81.5q28 33 64.5 55t74.5 38q138 55 214 77t145 43v107q0 14 -5.5 49t-23.5 72q-18 36 -52.5 63.5
t-92.5 27.5q-50 0 -89.5 -15.5t-55.5 -32.5q0 -20 9.5 -59t9.5 -72q0 -35 -31.5 -64t-87.5 -29q-50 0 -73.5 35.5t-23.5 79.5q0 48 32 88.5t83 73.5q46 30 111.5 49t119.5 19q100 0 181 -25t130 -96q51 53 125.5 87t154.5 34q104 0 176 -33.5t116 -88.5q46 -56 67 -128.5
t21 -156.5v-58h-618q0 -228 74.5 -346.5t231.5 -118.5q104 0 164 51.5t103 140.5zM1246 631q0 40 -8 102t-25 100q-21 46 -59.5 76t-102.5 30q-100 0 -162.5 -90.5t-63.5 -217.5h421zM644 194v343q-80 -16 -141 -37t-115 -58q-51 -35 -79 -83t-28 -111q0 -83 39.5 -122.5
t104.5 -39.5q76 0 130 32.5t89 75.5z" />
    <glyph glyph-name="oslash" unicode="&#xf8;" horiz-adv-x="1104" 
d="M1033 503q0 -104 -33 -204.5t-94 -170.5q-69 -80 -160 -119t-204 -39q-79 0 -152 27t-135 78q-43 -52 -83 -102t-43 -54l-58 43l133 163q-61 68 -97.5 158.5t-36.5 205.5q0 231 134.5 378t352.5 147q88 0 159 -25t130 -72l111 141l58 -44l-118 -145q64 -69 100 -162.5
t36 -203.5zM763 815q-33 58 -81.5 90.5t-126.5 32.5q-81 0 -135.5 -39.5t-87.5 -102.5q-32 -61 -45.5 -139t-13.5 -151q0 -69 8.5 -136t25.5 -122zM763 180q35 67 51 144t16 177q0 63 -8 128t-26 119l-456 -569q34 -62 85 -97.5t130 -35.5q70 0 122.5 36.5t85.5 97.5z" />
    <glyph glyph-name="questiondown" unicode="&#xbf;" horiz-adv-x="980" 
d="M723 1311q0 -56 -40.5 -96.5t-96.5 -40.5t-96.5 40.5t-40.5 96.5t40.5 95.5t96.5 39.5t96.5 -39.5t40.5 -95.5zM874 205q0 -40 -22 -78.5t-69 -74.5q-41 -31 -109 -54.5t-142 -23.5q-106 0 -187.5 33t-135.5 90q-55 58 -81.5 130.5t-26.5 157.5q0 185 118 302t324 141
v221h92v-379q-63 -5 -125 -20.5t-111 -50.5q-51 -37 -79.5 -89.5t-28.5 -146.5q0 -150 63.5 -230t185.5 -80q46 0 80.5 13.5t50.5 25.5q-5 24 -13.5 69t-8.5 69q0 37 32 67.5t93 30.5q54 0 77 -37t23 -86z" />
    <glyph glyph-name="exclamdown" unicode="&#xa1;" horiz-adv-x="678" 
d="M481 1309q0 -56 -40.5 -95.5t-96.5 -39.5t-96.5 39.5t-40.5 95.5t40.5 96.5t96.5 40.5t96.5 -40.5t40.5 -96.5zM472 103q0 -57 -36 -96t-92 -39t-92 38.5t-36 96.5q0 65 32 332.5t55 556.5h78q23 -242 57 -537t34 -352z" />
    <glyph glyph-name="logicalnot" unicode="&#xac;" horiz-adv-x="1317" 
d="M1163 76h-132v451h-887v125h1019v-576z" />
    <glyph glyph-name="florin" unicode="&#x192;" horiz-adv-x="1063" 
d="M1054 1164q0 -48 -24.5 -76.5t-72.5 -28.5t-89.5 41t-83.5 134q-83 -13 -134 -104.5t-74 -290.5l-14 -121h257v-96h-266q-10 -105 -21 -206t-26 -197q-28 -179 -76 -288.5t-114 -177.5q-60 -60 -134 -91t-156 -31q-96 0 -149 40.5t-53 99.5q0 45 25 75t72 30t88.5 -39
t84.5 -134q81 11 129.5 109t76.5 286q23 158 37 286t25 238h-204v96h213q19 168 64 277t125 192q58 60 131 89.5t161 29.5q94 0 148 -41t54 -101z" />
    <glyph glyph-name="guillemotleft" unicode="&#xab;" horiz-adv-x="1190" 
d="M997 160l-49 -40l-355 332q-9 8 -25.5 27t-16.5 49t16.5 49t28.5 31l352 329l49 -41l-259 -367zM616 160l-49 -40l-355 332q-9 8 -25.5 27t-16.5 49t15.5 48t29.5 32l352 329l49 -41l-259 -367z" />
    <glyph glyph-name="guillemotright" unicode="&#xbb;" horiz-adv-x="1190" 
d="M1020 528q0 -32 -17 -50.5t-25 -25.5l-355 -332l-49 40l259 369l-259 367l49 41l352 -329q11 -10 28 -32.5t17 -47.5zM639 528q0 -32 -17 -50.5t-25 -25.5l-355 -332l-49 40l259 369l-259 367l49 41l352 -329q10 -9 27.5 -30.5t17.5 -49.5z" />
    <glyph glyph-name="ellipsis" unicode="&#x2026;" horiz-adv-x="1653" 
d="M1512 109q0 -53 -39 -91t-92 -38t-92 38t-39 91t38.5 92t92.5 39t92.5 -39t38.5 -92zM961 109q0 -54 -39.5 -91.5t-91.5 -37.5q-53 0 -92 38t-39 91t38.5 92t92.5 39q53 0 92 -39t39 -92zM410 109q0 -54 -39.5 -91.5t-91.5 -37.5q-53 0 -92 38t-39 91t38.5 92t92.5 39
q53 0 92 -39t39 -92z" />
    <glyph glyph-name="Agrave" unicode="&#xc0;" horiz-adv-x="1374" 
d="M1421 0h-591v71q78 5 129.5 20t51.5 37q0 9 -2 22t-6 23l-118 318h-497q-28 -70 -45.5 -122t-31.5 -96q-13 -43 -18 -70t-5 -44q0 -40 63 -62t142 -26v-71h-534v71q26 2 65 11.5t64 25.5q40 27 62 56.5t43 81.5q107 267 236 600t230 593h80l473 -1224q15 -39 34 -63
t53 -47q23 -14 60 -23.5t62 -10.5v-71zM849 580l-215 550l-211 -550h426zM939 1546l-31 -39q-117 58 -209.5 102t-136.5 66q-49 25 -70.5 48.5t-21.5 64.5q0 35 25 57.5t67 22.5q30 0 55.5 -13.5t59.5 -49.5q46 -48 103.5 -105.5t158.5 -153.5z" />
    <glyph glyph-name="Atilde" unicode="&#xc3;" horiz-adv-x="1374" 
d="M1421 0h-591v71q78 5 129.5 20t51.5 37q0 9 -2 22t-6 23l-118 318h-497q-28 -70 -45.5 -122t-31.5 -96q-13 -43 -18 -70t-5 -44q0 -40 63 -62t142 -26v-71h-534v71q26 2 65 11.5t64 25.5q40 27 62 56.5t43 81.5q107 267 236 600t230 593h80l473 -1224q15 -39 34 -63
t53 -47q23 -14 60 -23.5t62 -10.5v-71zM849 580l-215 550l-211 -550h426zM1087 1825q-10 -38 -30 -78t-55 -79q-36 -39 -75.5 -62.5t-94.5 -23.5q-57 0 -100 16.5t-74 34.5q-35 20 -66.5 36t-69.5 16q-31 0 -46.5 -8t-32.5 -27q-16 -18 -32 -47.5t-30 -53.5l-58 25
q10 32 34 77t52 79q30 36 73 61.5t90 25.5q56 0 96.5 -16.5t74.5 -35.5q38 -21 64 -36t64 -15q40 0 64.5 9.5t38.5 26.5q16 19 26.5 41t25.5 57z" />
    <glyph glyph-name="Otilde" unicode="&#xd5;" horiz-adv-x="1524" 
d="M1244 1251q94 -98 147 -236.5t53 -306.5q0 -169 -54 -307t-150 -235q-93 -96 -216 -148t-262 -52q-148 0 -273.5 55.5t-215.5 154.5q-90 97 -141.5 235.5t-51.5 296.5q0 173 54 308.5t149 234.5q94 98 218.5 150t260.5 52q141 0 266 -53t216 -149zM1095 245
q56 91 81.5 206t25.5 257q0 146 -28.5 268t-83.5 208q-55 85 -138 132.5t-190 47.5q-120 0 -204 -55t-137 -147q-50 -88 -74.5 -206t-24.5 -248q0 -144 26 -260t82 -206q54 -88 136 -137.5t196 -49.5q107 0 193 50t140 140zM1144 1835q-10 -38 -30 -78t-55 -79
q-36 -39 -75.5 -62.5t-94.5 -23.5q-57 0 -100 16.5t-74 34.5q-35 20 -66.5 36t-69.5 16q-31 0 -46.5 -8t-32.5 -27q-16 -18 -32 -47.5t-30 -53.5l-58 25q10 32 34 77t52 79q30 36 73 61.5t90 25.5q56 0 96.5 -16.5t74.5 -35.5q38 -21 64 -36t64 -15q40 0 64.5 9.5t38.5 26.5
q16 19 26.5 41t25.5 57z" />
    <glyph glyph-name="OE" unicode="&#x152;" horiz-adv-x="2044" 
d="M1003 87v1244q-41 2 -84.5 3.5t-70.5 1.5q-116 0 -209 -34.5t-166 -111.5q-70 -73 -110.5 -192t-40.5 -281q0 -284 149.5 -459.5t392.5 -175.5q27 0 62.5 1.5t76.5 3.5zM1216 269q0 -62 9 -100.5t35 -56.5q27 -19 71.5 -24.5t127.5 -5.5h85.5t87.5 4q41 5 77.5 15
t53.5 28q46 48 96.5 145.5t64.5 143.5h72l-27 -418h-1154q-213 0 -392.5 99.5t-265.5 266.5q-36 70 -56.5 158t-20.5 195q0 178 66 310.5t177 220.5q108 86 247 127.5t280 41.5h1039v-342h-75q-19 75 -86 161t-127 94q-31 4 -74 6t-98 2h-213v-564h150q72 0 108 12.5
t67 50.5q22 29 37.5 77.5t20.5 91.5h75v-555h-75q-4 48 -21.5 101.5t-36.5 77.5q-29 37 -68.5 50t-106.5 13h-150v-426z" />
    <glyph glyph-name="oe" unicode="&#x153;" horiz-adv-x="1672" 
d="M1631 233q-58 -123 -159.5 -191t-224.5 -68q-113 0 -208 51.5t-153 143.5q-62 -92 -152.5 -145.5t-203.5 -53.5q-90 0 -173.5 35.5t-147.5 103.5q-64 67 -101.5 163.5t-37.5 216.5q0 110 31 204t94 168q60 71 150.5 112t203.5 41q114 0 205 -57.5t140 -134.5
q53 84 139.5 138t190.5 54t174.5 -32.5t117.5 -89.5q46 -56 68 -132.5t22 -163.5v-72h-624q3 -221 81.5 -330.5t230.5 -109.5q104 0 164 51.5t103 140.5zM1410 608q0 58 -6 115.5t-28 106.5q-21 48 -60.5 78.5t-103.5 30.5q-102 0 -166 -96.5t-64 -234.5h428zM788 490
q0 84 -11 168t-38 144q-28 62 -77 99.5t-123 37.5q-77 0 -127.5 -39.5t-81.5 -103.5q-29 -60 -41.5 -138t-12.5 -153q0 -99 15.5 -182t45.5 -143q32 -63 81.5 -99t120.5 -36q119 0 184 109.5t65 335.5z" />
    <glyph glyph-name="endash" unicode="&#x2013;" horiz-adv-x="1317" 
d="M1215 497h-1113v125h1113v-125z" />
    <glyph glyph-name="emdash" unicode="&#x2014;" horiz-adv-x="1755" 
d="M1653 497h-1551v125h1551v-125z" />
    <glyph glyph-name="quotedblleft" unicode="&#x201c;" horiz-adv-x="840" 
d="M375 1466q-47 -27 -76 -46.5t-59 -51.5q-28 -30 -43 -63t-21 -85h48q62 0 97.5 -30.5t35.5 -89.5q0 -42 -31.5 -78.5t-86.5 -36.5q-86 0 -123 56.5t-37 148.5q0 65 28 118.5t68 95.5q41 43 87 73t77 49zM745 1466q-47 -27 -76 -46.5t-59 -51.5q-29 -31 -43.5 -63.5
t-20.5 -84.5h48q62 0 97.5 -30.5t35.5 -89.5q0 -42 -31.5 -78.5t-86.5 -36.5q-86 0 -123 56.5t-37 148.5q0 65 28 118.5t68 95.5q41 43 87 73t77 49z" />
    <glyph glyph-name="quotedblright" unicode="&#x201d;" horiz-adv-x="840" 
d="M391 1325q0 -66 -29 -120.5t-68 -94.5q-40 -41 -88 -73.5t-77 -47.5l-34 59q41 24 78.5 49.5t57.5 48.5q27 30 43 62.5t20 85.5h-48q-63 0 -98 32t-35 89q0 41 32 77.5t87 36.5q85 0 122 -56.5t37 -147.5zM761 1325q0 -66 -29 -120.5t-68 -94.5q-40 -41 -88 -73.5
t-77 -47.5l-34 59q41 24 78.5 49.5t57.5 48.5q27 30 43 62.5t20 85.5h-48q-63 0 -98 32t-35 89q0 41 32 77.5t87 36.5q85 0 122 -56.5t37 -147.5z" />
    <glyph glyph-name="quoteleft" unicode="&#x2018;" horiz-adv-x="464" 
d="M372 1466q-47 -27 -76 -46.5t-59 -51.5q-28 -29 -43 -62.5t-21 -85.5h48q62 0 97.5 -30.5t35.5 -89.5q0 -42 -31.5 -78.5t-86.5 -36.5q-86 0 -123 56.5t-37 148.5q0 65 28 118.5t68 95.5q41 43 87 73t77 49z" />
    <glyph glyph-name="quoteright" unicode="&#x2019;" horiz-adv-x="464" 
d="M388 1325q0 -66 -28.5 -120.5t-68.5 -94.5q-40 -41 -88 -73.5t-77 -47.5l-34 59q41 24 78.5 49.5t57.5 48.5q27 30 43 62.5t20 85.5h-48q-63 0 -98 32t-35 89q0 41 32 77.5t87 36.5q85 0 122 -56.5t37 -147.5z" />
    <glyph glyph-name="divide" unicode="&#xf7;" horiz-adv-x="1317" 
d="M788 966q0 -53 -38 -91t-91 -38t-91 38t-38 91t38 90t91 37t91 -37t38 -90zM1173 497h-1029v125h1029v-125zM788 153q0 -53 -38 -90t-91 -37t-91 37t-38 90t38 91t91 38t91 -38t38 -91z" />
    <glyph glyph-name="ydieresis" unicode="&#xff;" horiz-adv-x="1008" 
d="M-3 -322q0 50 27.5 81.5t68.5 31.5q32 0 55 -12t41 -31q15 -15 32 -41t27 -43q50 27 119.5 141t100.5 200q-95 237 -172 424t-161 387q-19 46 -64 71.5t-90 32.5v66h450v-70q-30 -1 -72 -12.5t-42 -26.5q0 -6 4.5 -20t10.5 -29q38 -99 116 -285.5t121 -298.5
q45 107 93.5 221.5t108.5 270.5q7 19 20 52.5t13 57.5q0 26 -45.5 48.5t-86.5 27.5v64h366v-62q-30 -5 -79 -34.5t-73 -83.5q-119 -276 -211.5 -503t-140.5 -334q-63 -140 -112.5 -218.5t-96.5 -123.5q-46 -42 -83.5 -56.5t-77.5 -14.5q-78 0 -122.5 37t-44.5 85zM876 1364
q0 -51 -34.5 -87t-83.5 -36t-83.5 36t-34.5 87t34.5 87t83.5 36t83.5 -36t34.5 -87zM446 1364q0 -51 -34.5 -87t-83.5 -36t-83.5 36t-34.5 87t34.5 87t83.5 36t83.5 -36t34.5 -87z" />
    <glyph glyph-name="Ydieresis" unicode="&#x178;" horiz-adv-x="1260" 
d="M1314 1348q-17 -1 -54 -13.5t-53 -24.5q-39 -24 -53 -37t-54 -68q-78 -110 -144 -223t-165 -287q-37 -64 -49 -103t-12 -113v-271q0 -36 14.5 -62.5t49.5 -42.5q21 -8 75 -19.5t87 -12.5v-71h-664v71q28 2 84 7.5t78 14.5q36 15 49.5 41t13.5 64v345q0 16 -19.5 58.5
t-46.5 94.5q-60 116 -133 251t-127 231q-33 57 -58.5 86t-58.5 51q-24 15 -57.5 23t-60.5 10v71h605v-71q-102 -2 -144 -14t-42 -34q0 -6 6 -21t17 -38q13 -26 31 -59.5t34 -64.5q47 -89 96 -177.5t128 -230.5q157 253 239.5 394.5t82.5 169.5q0 23 -17 37t-45 22
q-29 8 -63 10.5t-63 5.5v71h493v-71zM1012 1730q0 -51 -34.5 -87t-83.5 -36t-83.5 36t-34.5 87t34.5 87t83.5 36t83.5 -36t34.5 -87zM562 1730q0 -51 -34.5 -87t-83.5 -36t-83.5 36t-34.5 87t34.5 87t83.5 36t83.5 -36t34.5 -87z" />
    <glyph glyph-name="fraction" unicode="&#x2044;" horiz-adv-x="166" 
d="M519 1419l-739 -1419h-135l737 1419h137z" />
    <glyph glyph-name="fraction" unicode="&#x2215;" horiz-adv-x="166" 
d="M519 1419l-739 -1419h-135l737 1419h137z" />
    <glyph glyph-name="Euro" unicode="&#x20ac;" horiz-adv-x="1315" 
d="M1289 359q-86 -211 -223 -301.5t-333 -90.5q-127 0 -236.5 49t-198.5 144q-62 65 -109.5 165.5t-61.5 204.5h-127l36 96h81q-2 26 -2 34.5v35.5q0 16 1.5 50.5t3.5 53.5h-120l36 96h97q19 93 59 181.5t107 164.5q89 101 206.5 154.5t258.5 53.5q105 0 185 -26t157 -73
l41 68h80l9 -506h-82q-16 74 -48 160.5t-75 146.5q-48 68 -109 106.5t-146 38.5q-97 0 -174 -43t-136 -128q-43 -63 -66.5 -138t-34.5 -160h394l-36 -96h-367q-1 -14 -1.5 -46t-0.5 -44q0 -32 0.5 -48.5t1.5 -35.5h301l-36 -96h-255q14 -82 40 -149.5t65 -120.5
q63 -85 149.5 -132.5t186.5 -47.5q81 0 144 25.5t113 67.5q50 44 88 100t62 122z" />
    <glyph glyph-name="guilsinglleft" unicode="&#x2039;" horiz-adv-x="850" 
d="M641 160l-49 -40l-375 332q-10 9 -26 27.5t-16 48.5t15.5 48.5t29.5 31.5l372 329l49 -41l-269 -367z" />
    <glyph glyph-name="guilsinglright" unicode="&#x203a;" horiz-adv-x="850" 
d="M675 528q0 -32 -16.5 -50t-25.5 -26l-375 -332l-49 40l269 369l-269 367l49 41l372 -329q11 -9 28 -32t17 -48z" />
    <glyph glyph-name="daggerdbl" unicode="&#x2021;" horiz-adv-x="967" 
d="M864 596q0 -37 -21 -54t-54 -17q-25 0 -108 21.5t-173 31.5q10 -99 30 -183t20 -111q0 -33 -17.5 -54t-55.5 -21q-34 0 -53.5 21t-19.5 54q0 31 17 104t29 190q-111 -14 -183 -33.5t-98 -19.5q-33 0 -54 16.5t-21 54.5q0 34 21 52.5t54 18.5q30 0 99.5 -18.5t181.5 -30.5
q-4 54 -14 100t-14 98v32q3 51 14 98t14 100q-98 -10 -176.5 -29.5t-104.5 -19.5q-33 0 -54 18t-21 53q0 37 21 54t54 17q26 0 96.5 -19.5t184.5 -33.5q-12 107 -29 188t-17 106q0 33 19 54t54 21q37 0 55 -21t18 -54q0 -27 -19.5 -111t-30.5 -183q108 12 181.5 32.5
t99.5 20.5q33 0 54 -16.5t21 -54.5q0 -34 -21 -52.5t-54 -18.5q-25 0 -108 19.5t-173 29.5q3 -54 14 -100.5t14 -97.5v-32q-4 -52 -14 -98t-14 -100q108 12 181.5 30.5t99.5 18.5q33 0 54 -18t21 -53z" />
    <glyph glyph-name="quotesinglbase" unicode="&#x201a;" horiz-adv-x="464" 
d="M388 35q0 -66 -28.5 -120.5t-68.5 -94.5q-40 -41 -88 -73.5t-77 -47.5l-34 59q41 24 78.5 49.5t57.5 48.5q27 30 43 62.5t20 85.5h-48q-63 0 -98 32t-35 89q0 41 32 77.5t87 36.5q85 0 122 -56.5t37 -147.5z" />
    <glyph glyph-name="quotedblbase" unicode="&#x201e;" horiz-adv-x="840" 
d="M391 35q0 -66 -29 -120.5t-68 -94.5q-40 -41 -88 -73.5t-77 -47.5l-34 59q41 24 78.5 49.5t57.5 48.5q27 30 43 62.5t20 85.5h-48q-63 0 -98 32t-35 89q0 41 32 77.5t87 36.5q85 0 122 -56.5t37 -147.5zM761 35q0 -66 -29 -120.5t-68 -94.5q-40 -41 -88 -73.5t-77 -47.5
l-34 59q41 24 78.5 49.5t57.5 48.5q27 30 43 62.5t20 85.5h-48q-63 0 -98 32t-35 89q0 41 32 77.5t87 36.5q85 0 122 -56.5t37 -147.5z" />
    <glyph glyph-name="perthousand" unicode="&#x2030;" horiz-adv-x="2469" 
d="M788 1083q0 -176 -95 -273t-245 -97t-244.5 97t-94.5 273q0 166 92.5 268t247.5 102q153 0 246 -102t93 -268zM619 1083q0 130 -43 213t-127 83q-86 0 -128.5 -83t-42.5 -213q0 -133 43 -214.5t127 -81.5t127.5 81.5t43.5 214.5zM1565 338q0 -176 -95 -273t-245 -97
t-244.5 97t-94.5 273q0 166 92.5 268t247.5 102q153 0 246 -102t93 -268zM1396 338q0 130 -43 213t-127 83q-86 0 -128.5 -83t-42.5 -213q0 -133 43 -214.5t127 -81.5t127.5 81.5t43.5 214.5zM1499 1424l-1179 -1424h-138l1176 1424h141zM2360 338q0 -176 -95 -273t-245 -97
t-244.5 97t-94.5 273q0 166 92.5 268t247.5 102q153 0 246 -102t93 -268zM2191 338q0 130 -43 213t-127 83q-86 0 -128.5 -83t-42.5 -213q0 -133 43 -214.5t127 -81.5t127.5 81.5t43.5 214.5z" />
    <glyph glyph-name="Acircumflex" unicode="&#xc2;" horiz-adv-x="1374" 
d="M1421 0h-591v71q78 5 129.5 20t51.5 37q0 9 -2 22t-6 23l-118 318h-497q-28 -70 -45.5 -122t-31.5 -96q-13 -43 -18 -70t-5 -44q0 -40 63 -62t142 -26v-71h-534v71q26 2 65 11.5t64 25.5q40 27 62 56.5t43 81.5q107 267 236 600t230 593h80l473 -1224q15 -39 34 -63
t53 -47q23 -14 60 -23.5t62 -10.5v-71zM849 580l-215 550l-211 -550h426zM1026 1539l-48 -32l-279 212l-275 -212l-48 32l234 284q18 22 35.5 33.5t57.5 11.5q41 0 56.5 -11t30.5 -30z" />
    <glyph glyph-name="Ecircumflex" unicode="&#xca;" horiz-adv-x="1338" 
d="M1291 418l-27 -418h-1178v71q30 2 80 8.5t65 13.5q32 15 44.5 39t12.5 61v1020q0 33 -11 58.5t-46 41.5q-27 13 -72.5 23t-72.5 12v71h1098v-342h-75q-20 76 -86.5 161.5t-126.5 93.5q-31 4 -74 6t-98 2h-223v-564h160q77 0 112.5 14.5t62.5 48.5q22 29 37.5 77.5
t20.5 91.5h75v-555h-75q-4 48 -21.5 101.5t-36.5 77.5q-31 39 -70.5 51t-104.5 12h-160v-426q0 -64 9 -101t35 -56t71 -24.5t128 -5.5h87t91 4q38 4 78.5 14.5t57.5 28.5q46 48 96.5 145.5t64.5 143.5h72zM1004 1539l-48 -32l-279 212l-275 -212l-48 32l234 284
q18 22 35.5 33.5t57.5 11.5q41 0 56.5 -11t30.5 -30z" />
    <glyph glyph-name="Aacute" unicode="&#xc1;" horiz-adv-x="1374" 
d="M1421 0h-591v71q78 5 129.5 20t51.5 37q0 9 -2 22t-6 23l-118 318h-497q-28 -70 -45.5 -122t-31.5 -96q-13 -43 -18 -70t-5 -44q0 -40 63 -62t142 -26v-71h-534v71q26 2 65 11.5t64 25.5q40 27 62 56.5t43 81.5q107 267 236 600t230 593h80l473 -1224q15 -39 34 -63
t53 -47q23 -14 60 -23.5t62 -10.5v-71zM849 580l-215 550l-211 -550h426zM893 1675q-44 -22 -136.5 -66.5t-209.5 -101.5l-31 39q91 87 148.5 143.5t113.5 115.5q32 34 58.5 48.5t56.5 14.5q38 0 65 -23t27 -57q0 -43 -26 -68t-66 -45z" />
    <glyph glyph-name="Edieresis" unicode="&#xcb;" horiz-adv-x="1338" 
d="M1291 418l-27 -418h-1178v71q30 2 80 8.5t65 13.5q32 15 44.5 39t12.5 61v1020q0 33 -11 58.5t-46 41.5q-27 13 -72.5 23t-72.5 12v71h1098v-342h-75q-20 76 -86.5 161.5t-126.5 93.5q-31 4 -74 6t-98 2h-223v-564h160q77 0 112.5 14.5t62.5 48.5q22 29 37.5 77.5
t20.5 91.5h75v-555h-75q-4 48 -21.5 101.5t-36.5 77.5q-31 39 -70.5 51t-104.5 12h-160v-426q0 -64 9 -101t35 -56t71 -24.5t128 -5.5h87t91 4q38 4 78.5 14.5t57.5 28.5q46 48 96.5 145.5t64.5 143.5h72zM1031 1730q0 -51 -34.5 -87t-83.5 -36t-83.5 36t-34.5 87t34.5 87
t83.5 36t83.5 -36t34.5 -87zM581 1730q0 -51 -34.5 -87t-83.5 -36t-83.5 36t-34.5 87t34.5 87t83.5 36t83.5 -36t34.5 -87z" />
    <glyph glyph-name="Egrave" unicode="&#xc8;" horiz-adv-x="1338" 
d="M1291 418l-27 -418h-1178v71q30 2 80 8.5t65 13.5q32 15 44.5 39t12.5 61v1020q0 33 -11 58.5t-46 41.5q-27 13 -72.5 23t-72.5 12v71h1098v-342h-75q-20 76 -86.5 161.5t-126.5 93.5q-31 4 -74 6t-98 2h-223v-564h160q77 0 112.5 14.5t62.5 48.5q22 29 37.5 77.5
t20.5 91.5h75v-555h-75q-4 48 -21.5 101.5t-36.5 77.5q-31 39 -70.5 51t-104.5 12h-160v-426q0 -64 9 -101t35 -56t71 -24.5t128 -5.5h87t91 4q38 4 78.5 14.5t57.5 28.5q46 48 96.5 145.5t64.5 143.5h72zM846 1546l-31 -39q-117 58 -209.5 102t-136.5 66q-49 25 -70.5 48.5
t-21.5 64.5q0 35 25 57.5t67 22.5q30 0 55.5 -13.5t59.5 -49.5q46 -48 103.5 -105.5t158.5 -153.5z" />
    <glyph glyph-name="Iacute" unicode="&#xcd;" horiz-adv-x="798" 
d="M718 0h-639v71q27 2 78 6t72 12q33 13 48 35.5t15 62.5v1028q0 35 -11 58.5t-52 39.5q-30 12 -75.5 22.5t-74.5 12.5v71h639v-71q-31 -1 -74 -7.5t-75 -16.5q-38 -12 -51 -39t-13 -60v-1027q0 -33 14.5 -58.5t49.5 -40.5q21 -8 68.5 -17.5t80.5 -10.5v-71zM546 1675
q-44 -22 -136.5 -66.5t-209.5 -101.5l-31 39q91 87 148.5 143.5t113.5 115.5q32 34 58.5 48.5t56.5 14.5q38 0 65 -23t27 -57q0 -43 -26 -68t-66 -45z" />
    <glyph glyph-name="Icircumflex" unicode="&#xce;" horiz-adv-x="798" 
d="M718 0h-639v71q27 2 78 6t72 12q33 13 48 35.5t15 62.5v1028q0 35 -11 58.5t-52 39.5q-30 12 -75.5 22.5t-74.5 12.5v71h639v-71q-31 -1 -74 -7.5t-75 -16.5q-38 -12 -51 -39t-13 -60v-1027q0 -33 14.5 -58.5t49.5 -40.5q21 -8 68.5 -17.5t80.5 -10.5v-71zM726 1539
l-48 -32l-279 212l-275 -212l-48 32l234 284q18 22 35.5 33.5t57.5 11.5q41 0 56.5 -11t30.5 -30z" />
    <glyph glyph-name="Idieresis" unicode="&#xcf;" horiz-adv-x="798" 
d="M718 0h-639v71q27 2 78 6t72 12q33 13 48 35.5t15 62.5v1028q0 35 -11 58.5t-52 39.5q-30 12 -75.5 22.5t-74.5 12.5v71h639v-71q-31 -1 -74 -7.5t-75 -16.5q-38 -12 -51 -39t-13 -60v-1027q0 -33 14.5 -58.5t49.5 -40.5q21 -8 68.5 -17.5t80.5 -10.5v-71zM734 1730
q0 -51 -34.5 -87t-83.5 -36t-83.5 36t-34.5 87t34.5 87t83.5 36t83.5 -36t34.5 -87zM304 1730q0 -51 -34.5 -87t-83.5 -36t-83.5 36t-34.5 87t34.5 87t83.5 36t83.5 -36t34.5 -87z" />
    <glyph glyph-name="Igrave" unicode="&#xcc;" horiz-adv-x="798" 
d="M718 0h-639v71q27 2 78 6t72 12q33 13 48 35.5t15 62.5v1028q0 35 -11 58.5t-52 39.5q-30 12 -75.5 22.5t-74.5 12.5v71h639v-71q-31 -1 -74 -7.5t-75 -16.5q-38 -12 -51 -39t-13 -60v-1027q0 -33 14.5 -58.5t49.5 -40.5q21 -8 68.5 -17.5t80.5 -10.5v-71zM676 1546
l-31 -39q-117 58 -209.5 102t-136.5 66q-49 25 -70.5 48.5t-21.5 64.5q0 35 25 57.5t67 22.5q30 0 55.5 -13.5t59.5 -49.5q46 -48 103.5 -105.5t158.5 -153.5z" />
    <glyph glyph-name="Oacute" unicode="&#xd3;" horiz-adv-x="1524" 
d="M1244 1251q94 -98 147 -236.5t53 -306.5q0 -169 -54 -307t-150 -235q-93 -96 -216 -148t-262 -52q-148 0 -273.5 55.5t-215.5 154.5q-90 97 -141.5 235.5t-51.5 296.5q0 173 54 308.5t149 234.5q94 98 218.5 150t260.5 52q141 0 266 -53t216 -149zM1095 245
q56 91 81.5 206t25.5 257q0 146 -28.5 268t-83.5 208q-55 85 -138 132.5t-190 47.5q-120 0 -204 -55t-137 -147q-50 -88 -74.5 -206t-24.5 -248q0 -144 26 -260t82 -206q54 -88 136 -137.5t196 -49.5q107 0 193 50t140 140zM913 1675q-44 -22 -136.5 -66.5t-209.5 -101.5
l-31 39q91 87 148.5 143.5t113.5 115.5q32 34 58.5 48.5t56.5 14.5q38 0 65 -23t27 -57q0 -43 -26 -68t-66 -45z" />
    <glyph glyph-name="Ocircumflex" unicode="&#xd4;" horiz-adv-x="1524" 
d="M1244 1251q94 -98 147 -236.5t53 -306.5q0 -169 -54 -307t-150 -235q-93 -96 -216 -148t-262 -52q-148 0 -273.5 55.5t-215.5 154.5q-90 97 -141.5 235.5t-51.5 296.5q0 173 54 308.5t149 234.5q94 98 218.5 150t260.5 52q141 0 266 -53t216 -149zM1095 245
q56 91 81.5 206t25.5 257q0 146 -28.5 268t-83.5 208q-55 85 -138 132.5t-190 47.5q-120 0 -204 -55t-137 -147q-50 -88 -74.5 -206t-24.5 -248q0 -144 26 -260t82 -206q54 -88 136 -137.5t196 -49.5q107 0 193 50t140 140zM1087 1539l-48 -32l-279 212l-275 -212l-48 32
l234 284q18 22 35.5 33.5t57.5 11.5q41 0 56.5 -11t30.5 -30z" />
    <glyph glyph-name="Ograve" unicode="&#xd2;" horiz-adv-x="1524" 
d="M1244 1251q94 -98 147 -236.5t53 -306.5q0 -169 -54 -307t-150 -235q-93 -96 -216 -148t-262 -52q-148 0 -273.5 55.5t-215.5 154.5q-90 97 -141.5 235.5t-51.5 296.5q0 173 54 308.5t149 234.5q94 98 218.5 150t260.5 52q141 0 266 -53t216 -149zM1095 245
q56 91 81.5 206t25.5 257q0 146 -28.5 268t-83.5 208q-55 85 -138 132.5t-190 47.5q-120 0 -204 -55t-137 -147q-50 -88 -74.5 -206t-24.5 -248q0 -144 26 -260t82 -206q54 -88 136 -137.5t196 -49.5q107 0 193 50t140 140zM1031 1546l-31 -39q-117 58 -209.5 102t-136.5 66
q-49 25 -70.5 48.5t-21.5 64.5q0 35 25 57.5t67 22.5q30 0 55.5 -13.5t59.5 -49.5q46 -48 103.5 -105.5t158.5 -153.5z" />
    <glyph glyph-name="Uacute" unicode="&#xda;" horiz-adv-x="1549" 
d="M1533 1348q-28 -1 -82 -12t-88 -33q-34 -23 -47 -95t-13 -176v-617q0 -118 -49 -205t-129 -143q-79 -54 -166.5 -77.5t-167.5 -23.5q-128 0 -228 33.5t-168 90.5q-67 57 -101 130.5t-34 153.5v839q0 35 -11.5 58.5t-46.5 43.5q-25 14 -64 22.5t-64 10.5v71h591v-71
q-28 -1 -70.5 -9t-62.5 -15q-34 -12 -45.5 -40t-11.5 -61v-784q0 -57 12.5 -119.5t49.5 -116.5q39 -55 106 -90t184 -35q110 0 184.5 35t117.5 92q41 54 58 113t17 119v582q0 111 -16 181.5t-47 92.5q-35 25 -95.5 39t-92.5 16v71h580v-71zM960 1675q-44 -22 -136.5 -66.5
t-209.5 -101.5l-31 39q91 87 148.5 143.5t113.5 115.5q32 34 58.5 48.5t56.5 14.5q38 0 65 -23t27 -57q0 -43 -26 -68t-66 -45z" />
    <glyph glyph-name="Ucircumflex" unicode="&#xdb;" horiz-adv-x="1549" 
d="M1533 1348q-28 -1 -82 -12t-88 -33q-34 -23 -47 -95t-13 -176v-617q0 -118 -49 -205t-129 -143q-79 -54 -166.5 -77.5t-167.5 -23.5q-128 0 -228 33.5t-168 90.5q-67 57 -101 130.5t-34 153.5v839q0 35 -11.5 58.5t-46.5 43.5q-25 14 -64 22.5t-64 10.5v71h591v-71
q-28 -1 -70.5 -9t-62.5 -15q-34 -12 -45.5 -40t-11.5 -61v-784q0 -57 12.5 -119.5t49.5 -116.5q39 -55 106 -90t184 -35q110 0 184.5 35t117.5 92q41 54 58 113t17 119v582q0 111 -16 181.5t-47 92.5q-35 25 -95.5 39t-92.5 16v71h580v-71zM1135 1539l-48 -32l-279 212
l-275 -212l-48 32l234 284q18 22 35.5 33.5t57.5 11.5q41 0 56.5 -11t30.5 -30z" />
    <glyph glyph-name="Ugrave" unicode="&#xd9;" horiz-adv-x="1549" 
d="M1533 1348q-28 -1 -82 -12t-88 -33q-34 -23 -47 -95t-13 -176v-617q0 -118 -49 -205t-129 -143q-79 -54 -166.5 -77.5t-167.5 -23.5q-128 0 -228 33.5t-168 90.5q-67 57 -101 130.5t-34 153.5v839q0 35 -11.5 58.5t-46.5 43.5q-25 14 -64 22.5t-64 10.5v71h591v-71
q-28 -1 -70.5 -9t-62.5 -15q-34 -12 -45.5 -40t-11.5 -61v-784q0 -57 12.5 -119.5t49.5 -116.5q39 -55 106 -90t184 -35q110 0 184.5 35t117.5 92q41 54 58 113t17 119v582q0 111 -16 181.5t-47 92.5q-35 25 -95.5 39t-92.5 16v71h580v-71zM1021 1546l-31 -39
q-117 58 -209.5 102t-136.5 66q-49 25 -70.5 48.5t-21.5 64.5q0 35 25 57.5t67 22.5q30 0 55.5 -13.5t59.5 -49.5q46 -48 103.5 -105.5t158.5 -153.5z" />
    <glyph glyph-name="dotlessi" unicode="&#x131;" horiz-adv-x="600" 
d="M551 0h-477v66q23 2 47.5 4t42.5 8q28 9 41.5 31.5t13.5 58.5v609q0 32 -14.5 58.5t-40.5 44.5q-19 12 -55 20.5t-66 10.5v65l348 22l14 -14v-804q0 -35 13.5 -58t42.5 -34q22 -9 43 -14.5t47 -7.5v-66z" />
    <glyph glyph-name="circumflex" unicode="&#x2c6;" horiz-adv-x="1024" 
d="M837 1150l-48 -32l-279 273l-275 -273l-48 32l237 347q17 25 32.5 35t57.5 10q40 0 55 -10.5t29 -30.5z" />
    <glyph glyph-name="tilde" unicode="&#x2dc;" horiz-adv-x="1024" 
d="M894 1467q-10 -38 -30 -78t-55 -79q-36 -39 -75.5 -62.5t-94.5 -23.5q-57 0 -100 16.5t-74 34.5q-35 20 -66.5 36t-69.5 16q-31 0 -46.5 -8t-32.5 -27q-16 -18 -32 -47.5t-30 -53.5l-58 25q10 32 34 77t52 79q30 36 73 61.5t90 25.5q56 0 96.5 -16.5t74.5 -35.5
q38 -21 64 -36t64 -15q40 0 64.5 9.5t38.5 26.5q16 19 26.5 41t25.5 57z" />
    <glyph glyph-name="ring" unicode="&#x2da;" horiz-adv-x="1024" 
d="M770 1337q0 -98 -71 -160.5t-187 -62.5q-117 0 -187.5 61t-70.5 162q0 98 75 160t183 62q112 0 185 -60.5t73 -161.5zM644 1337q0 68 -33.5 113t-98.5 45q-63 0 -97.5 -43t-34.5 -115q0 -69 34 -114t98 -45t98 44t34 115z" />
    <glyph glyph-name="cedilla" unicode="&#xb8;" horiz-adv-x="1024" 
d="M630 -129q34 -16 55 -45.5t21 -73.5q0 -58 -32 -98t-89 -62q-55 -20 -122 -28t-156 -8v72q41 0 89 1t82 9q40 9 62 27.5t22 52.5q0 49 -55 62t-110 13v224h79v-116q45 0 81 -5.5t73 -24.5z" />
    <glyph glyph-name="caron" unicode="&#x2c7;" horiz-adv-x="1024" 
d="M837 1510l-239 -351q-17 -22 -29 -31.5t-55 -9.5q-45 0 -59.5 11t-30.5 34l-237 347l48 32l275 -273l279 273z" />
    <glyph glyph-name="Scaron" unicode="&#x160;" horiz-adv-x="1149" 
d="M981 651q45 -50 66.5 -109.5t21.5 -138.5q0 -188 -139 -310t-345 -122q-95 0 -190 29.5t-164 71.5l-43 -73h-80l-14 486h81q25 -90 58.5 -162.5t88.5 -135.5q52 -59 121.5 -94t161.5 -35q69 0 120.5 18t83.5 51t47.5 77.5t15.5 102.5q0 85 -48 158.5t-143 111.5
q-65 26 -149 57.5t-145 59.5q-120 54 -186.5 141.5t-66.5 228.5q0 81 33 151t94 125q58 52 137 81.5t165 29.5q98 0 175.5 -30t141.5 -70l41 68h80l8 -471h-81q-22 81 -49.5 155t-71.5 134q-43 58 -105 92.5t-152 34.5q-95 0 -162 -61t-67 -149q0 -92 43 -152.5t125 -99.5
q73 -35 143.5 -60.5t136.5 -54.5q60 -26 115.5 -59t96.5 -77zM908 1836l-234 -284q-21 -26 -32.5 -35.5t-60.5 -9.5q-41 0 -56.5 11t-30.5 30l-236 288l48 32l279 -214l275 214z" />
    <glyph glyph-name="scaron" unicode="&#x161;" horiz-adv-x="885" 
d="M723 483q41 -36 63 -83t22 -115q0 -137 -102.5 -224t-265.5 -87q-86 0 -158.5 31t-103.5 57l-20 -65h-75l-10 343h69q8 -39 34 -91t63 -94q39 -44 93.5 -74t122.5 -30q96 0 148 43.5t52 124.5q0 42 -16.5 72.5t-48.5 53.5q-33 23 -81 41.5t-107 36.5q-47 14 -104.5 38.5
t-98.5 57.5q-44 35 -72 86t-28 120q0 121 90 205t241 84q58 0 118.5 -15t98.5 -36l23 52h72l15 -317h-69q-21 106 -90.5 172.5t-169.5 66.5q-82 0 -129 -41t-47 -99q0 -45 15.5 -75t46.5 -51q30 -20 75.5 -37.5t112.5 -39.5q66 -21 124.5 -49t96.5 -62zM777 1510l-239 -351
q-17 -22 -29 -31.5t-55 -9.5q-45 0 -59.5 11t-30.5 34l-237 347l48 32l275 -273l279 273z" />
    <glyph glyph-name="Zcaron" unicode="&#x17d;" horiz-adv-x="1232" 
d="M1214 443l-47 -443h-1140v35l893 1305h-327q-57 0 -95.5 -2t-70.5 -8q-66 -13 -148.5 -109t-124.5 -203h-70l43 401h1063v-35l-893 -1305h337q85 0 181 12t125 41q65 62 121 152t83 159h70zM953 1836l-234 -284q-21 -26 -32.5 -35.5t-60.5 -9.5q-41 0 -56.5 11t-30.5 30
l-236 288l48 32l279 -214l275 214z" />
    <glyph glyph-name="zcaron" unicode="&#x17e;" horiz-adv-x="909" 
d="M853 0h-798v53l558 852h-138q-87 0 -136 -3t-90 -20q-28 -11 -52.5 -63t-42.5 -136h-61v303h754v-41l-567 -864q36 -1 79 -1.5t93 -0.5q40 0 83.5 1t111.5 5q40 2 60.5 27t31.5 57q11 29 26.5 80t27.5 99h60v-348zM784 1510l-239 -351q-17 -22 -29 -31.5t-55 -9.5
q-45 0 -59.5 11t-30.5 34l-237 347l48 32l275 -273l279 273z" />
    <glyph glyph-name="brokenbar" unicode="&#xa6;" horiz-adv-x="768" 
d="M448 723h-127v800h127v-800zM448 -424h-127v810h127v-810z" />
    <glyph glyph-name="Eth" unicode="&#xd0;" horiz-adv-x="1534" 
d="M1457 701q0 -181 -68 -314t-177 -218q-110 -85 -247 -127t-283 -42h-588v71q29 0 75.5 5.5t61.5 12.5q30 13 43.5 38.5t13.5 61.5v512h-186v98h186v414q0 34 -11.5 61t-45.5 43q-31 15 -67 22t-62 9v71h620q128 0 252 -39.5t216 -106.5q125 -89 196 -233t71 -339z
M1212 702q0 143 -38 258.5t-111 201.5q-69 82 -169.5 129t-223.5 47q-41 0 -92.5 -1.5t-76.5 -2.5v-535h301v-98h-301v-458q0 -91 53 -126t163 -35q127 0 222 45t154 125q62 84 90.5 194.5t28.5 255.5z" />
    <glyph glyph-name="eth" unicode="&#xf0;" horiz-adv-x="1089" 
d="M1014 611q0 -294 -128 -468t-354 -174q-89 0 -171.5 33.5t-148.5 100.5q-65 66 -103.5 163t-38.5 220q0 221 127 360t327 139q94 0 165.5 -42.5t105.5 -96.5l8 2q-15 128 -64.5 238t-109.5 197l-231 -138l-50 78l228 131q-31 40 -75.5 77.5t-90.5 68.5l50 56
q46 -23 110 -67t103 -81l203 123l51 -78l-190 -110q137 -146 207 -323t70 -409zM746 190q30 63 44.5 146t14.5 176q0 177 -70 285.5t-190 108.5q-77 0 -128.5 -35.5t-83.5 -93.5q-28 -51 -42 -126t-14 -152q0 -228 70 -341t196 -113q71 0 122 40t81 105z" />
    <glyph glyph-name="Yacute" unicode="&#xdd;" horiz-adv-x="1260" 
d="M1314 1348q-17 -1 -54 -13.5t-53 -24.5q-39 -24 -53 -37t-54 -68q-78 -110 -144 -223t-165 -287q-37 -64 -49 -103t-12 -113v-271q0 -36 14.5 -62.5t49.5 -42.5q21 -8 75 -19.5t87 -12.5v-71h-664v71q28 2 84 7.5t78 14.5q36 15 49.5 41t13.5 64v345q0 16 -19.5 58.5
t-46.5 94.5q-60 116 -133 251t-127 231q-33 57 -58.5 86t-58.5 51q-24 15 -57.5 23t-60.5 10v71h605v-71q-102 -2 -144 -14t-42 -34q0 -6 6 -21t17 -38q13 -26 31 -59.5t34 -64.5q47 -89 96 -177.5t128 -230.5q157 253 239.5 394.5t82.5 169.5q0 23 -17 37t-45 22
q-29 8 -63 10.5t-63 5.5v71h493v-71zM871 1675q-44 -22 -136.5 -66.5t-209.5 -101.5l-31 39q91 87 148.5 143.5t113.5 115.5q32 34 58.5 48.5t56.5 14.5q38 0 65 -23t27 -57q0 -43 -26 -68t-66 -45z" />
    <glyph glyph-name="yacute" unicode="&#xfd;" horiz-adv-x="1008" 
d="M-3 -322q0 50 27.5 81.5t68.5 31.5q32 0 55 -12t41 -31q15 -15 32 -41t27 -43q50 27 119.5 141t100.5 200q-95 237 -172 424t-161 387q-19 46 -64 71.5t-90 32.5v66h450v-70q-30 -1 -72 -12.5t-42 -26.5q0 -6 4.5 -20t10.5 -29q38 -99 116 -285.5t121 -298.5
q45 107 93.5 221.5t108.5 270.5q7 19 20 52.5t13 57.5q0 26 -45.5 48.5t-86.5 27.5v64h366v-62q-30 -5 -79 -34.5t-73 -83.5q-119 -276 -211.5 -503t-140.5 -334q-63 -140 -112.5 -218.5t-96.5 -123.5q-46 -42 -83.5 -56.5t-77.5 -14.5q-78 0 -122.5 37t-44.5 85zM759 1460
q0 -38 -17.5 -62t-51.5 -51q-50 -40 -130.5 -102t-173.5 -135l-38 32q90 133 125.5 187.5t76.5 120.5q31 51 60 69.5t67 18.5q36 0 59 -24.5t23 -53.5z" />
    <glyph glyph-name="Thorn" unicode="&#xde;" horiz-adv-x="1258" 
d="M1189 757q0 -114 -44 -197t-116 -135q-72 -51 -163.5 -76.5t-195.5 -25.5h-169v-130q0 -35 11 -61.5t47 -40.5q18 -7 62.5 -13t82.5 -7v-71h-606v71q24 2 69.5 7t63.5 13q30 13 43.5 38t13.5 64v1022q0 33 -11 58t-46 40q-29 13 -67.5 23t-67.5 12v71h597v-71
q-29 -1 -71.5 -9t-62.5 -15q-34 -12 -46 -38.5t-12 -60.5v-93h252q189 0 312.5 -103t123.5 -272zM886 529q34 50 44.5 102t10.5 94q0 58 -14 118t-48 105q-37 48 -94.5 74.5t-142.5 26.5h-141v-638h109q108 0 175 34t101 84z" />
    <glyph glyph-name="thorn" unicode="&#xfe;" horiz-adv-x="1145" 
d="M948 869q59 -70 91.5 -162.5t32.5 -211.5q0 -117 -38.5 -214t-103.5 -164q-67 -69 -149 -106t-174 -37q-89 0 -146 20t-93 47h-8v-296q0 -36 14 -60t43 -35q23 -9 68 -17.5t74 -9.5v-67h-551v67q31 2 60 4.5t52 10.5q30 10 42 35t12 59v1584q-3 32 -17 67t-39 52
q-18 12 -63.5 18t-73.5 8v64l365 23l14 -15v-656l6 -4q52 60 129 100t153 40q92 0 168.5 -39.5t131.5 -104.5zM863 487q0 74 -16 151t-50 134q-34 58 -89 94t-132 36q-74 0 -126 -32.5t-90 -77.5v-583q9 -27 29.5 -56t45.5 -50q31 -25 67 -40.5t88 -15.5q56 0 108 29.5
t87 83.5q40 62 59 144t19 183z" />
    <glyph glyph-name="multiply" unicode="&#xd7;" horiz-adv-x="1317" 
d="M1108 199l-89 -89l-361 363l-362 -364l-88 89l364 362l-364 361l89 88l361 -362l362 363l88 -88l-364 -362z" />
    <glyph glyph-name="onesuperior" unicode="&#xb9;" horiz-adv-x="1024" 
d="M789 490h-565v71q30 1 84 4.5t74 10.5t32.5 23t12.5 42v631h-207v78h62q78 0 146 28.5t102 66.5h73q-2 -45 -4.5 -119.5t-2.5 -117.5v-559q0 -23 11.5 -41t31.5 -27q19 -8 68.5 -14t81.5 -6v-71z" />
    <glyph glyph-name="twosuperior" unicode="&#xb2;" horiz-adv-x="1024" 
d="M900 490h-753v111q39 65 119 128t193 134q35 22 77.5 58.5t65.5 67.5q30 40 45.5 83.5t15.5 109.5q0 96 -49 146t-129 50q-57 0 -97.5 -19.5t-58.5 -45.5q6 -24 13.5 -54.5t7.5 -63.5q0 -31 -27.5 -54t-80.5 -23q-48 0 -68.5 31.5t-20.5 70.5q0 91 104.5 162t242.5 71
q157 0 256 -75.5t99 -202.5q0 -75 -22.5 -130.5t-59.5 -94.5q-39 -41 -87.5 -71t-100.5 -55q-64 -31 -155.5 -83t-150.5 -107h621v-144z" />
    <glyph glyph-name="threesuperior" unicode="&#xb3;" horiz-adv-x="1024" 
d="M795 927q37 -27 61 -70.5t24 -105.5q0 -126 -115 -211t-307 -85q-135 0 -233 58t-98 142q0 45 23.5 72.5t60.5 27.5q52 0 79 -22.5t27 -49.5q0 -22 -7.5 -52t-13.5 -50q25 -21 70 -37t98 -16q101 0 162.5 57.5t61.5 169.5q0 35 -8.5 68.5t-30.5 57.5t-62.5 38t-102.5 14
h-107v94h76q103 0 147.5 49t44.5 150q0 72 -41.5 113.5t-120.5 41.5q-45 0 -82 -15t-60 -44q5 -17 12 -50.5t7 -56.5q0 -26 -28.5 -48.5t-78.5 -22.5q-46 0 -66.5 28.5t-20.5 64.5q0 37 22 73t69 70q40 30 111 51.5t148 21.5q93 0 157.5 -24t102.5 -62q36 -37 48.5 -75.5
t12.5 -63.5q0 -30 -10.5 -65.5t-33.5 -63.5q-24 -29 -64.5 -55.5t-105.5 -44.5v-9q41 -4 90 -20.5t82 -42.5z" />
    <glyph glyph-name="onehalf" unicode="&#xbd;" horiz-adv-x="2150" 
d="M702 490h-565v71q30 1 84 4.5t74 10.5t32.5 23t12.5 42v631h-207v78h62q78 0 146 28.5t102 66.5h73q-2 -45 -4.5 -119.5t-2.5 -117.5v-559q0 -23 11.5 -41t31.5 -27q19 -8 68.5 -14t81.5 -6v-71zM1437 1419l-739 -1419h-135l737 1419h137zM2044 2h-753v111q39 65 119 128
t193 134q35 22 77.5 58.5t65.5 67.5q30 40 45.5 83.5t15.5 109.5q0 96 -49 146t-129 50q-57 0 -97.5 -19.5t-58.5 -45.5q6 -24 13.5 -54.5t7.5 -63.5q0 -31 -27.5 -54t-80.5 -23q-48 0 -68.5 31.5t-20.5 70.5q0 91 104.5 162t242.5 71q157 0 256 -75.5t99 -202.5
q0 -75 -22.5 -130.5t-59.5 -94.5q-39 -41 -87.5 -71t-100.5 -55q-64 -31 -155.5 -83t-150.5 -107h621v-144z" />
    <glyph glyph-name="onequarter" unicode="&#xbc;" horiz-adv-x="2150" 
d="M702 490h-565v71q30 1 84 4.5t74 10.5t32.5 23t12.5 42v631h-207v78h62q78 0 146 28.5t102 66.5h73q-2 -45 -4.5 -119.5t-2.5 -117.5v-559q0 -23 11.5 -41t31.5 -27q19 -8 68.5 -14t81.5 -6v-71zM1447 1419l-739 -1419h-135l737 1419h137zM1988 214h-159v-232h-166v232
h-495v126l543 623h118v-640h159v-109zM1663 323v453l-393 -453h393z" />
    <glyph glyph-name="threequarters" unicode="&#xbe;" horiz-adv-x="2150" 
d="M787 927q37 -27 61 -70.5t24 -105.5q0 -126 -115 -211t-307 -85q-135 0 -233 58t-98 142q0 45 23.5 72.5t60.5 27.5q52 0 79 -22.5t27 -49.5q0 -22 -7.5 -52t-13.5 -50q25 -21 70 -37t98 -16q101 0 162.5 57.5t61.5 169.5q0 35 -8.5 68.5t-30.5 57.5t-62.5 38t-102.5 14
h-107v94h76q103 0 147.5 49t44.5 150q0 72 -41.5 113.5t-120.5 41.5q-45 0 -82 -15t-60 -44q5 -17 12 -50.5t7 -56.5q0 -26 -28.5 -48.5t-78.5 -22.5q-46 0 -66.5 28.5t-20.5 64.5q0 37 22 73t69 70q40 30 111 51.5t148 21.5q93 0 157.5 -24t102.5 -62q36 -37 48.5 -75.5
t12.5 -63.5q0 -30 -10.5 -65.5t-33.5 -63.5q-24 -29 -64.5 -55.5t-105.5 -44.5v-9q41 -4 90 -20.5t82 -42.5zM1599 1419l-739 -1419h-135l737 1419h137zM2078 214h-159v-232h-166v232h-495v126l543 623h118v-640h159v-109zM1753 323v453l-393 -453h393z" />
    <glyph glyph-name="macron" unicode="&#xaf;" horiz-adv-x="1317" 
d="M1322 1603h-1327v101h1327v-101z" />
    <glyph glyph-name="periodcentered" unicode="&#xb7;" horiz-adv-x="572" 
d="M425 559q0 -56 -40.5 -95.5t-96.5 -39.5t-96.5 39.5t-40.5 95.5t40.5 96.5t96.5 40.5t96.5 -40.5t40.5 -96.5z" />
    <glyph glyph-name="foursuperior" unicode="&#x2074;" horiz-adv-x="1024" 
d="M906 702h-159v-232h-166v232h-495v126l543 623h118v-640h159v-109zM581 811v453l-393 -453h393z" />
    <glyph glyph-name="Dieresis" unicode="&#x308;" horiz-adv-x="1024" 
d="M855 1730q0 -51 -34.5 -87t-83.5 -36t-83.5 36t-34.5 87t34.5 87t83.5 36t83.5 -36t34.5 -87zM405 1730q0 -51 -34.5 -87t-83.5 -36t-83.5 36t-34.5 87t34.5 87t83.5 36t83.5 -36t34.5 -87z" />
    <glyph glyph-name="Acute" unicode="&#x301;" horiz-adv-x="1024" 
d="M633 1675q-44 -22 -136.5 -66.5t-209.5 -101.5l-31 39q91 87 148.5 143.5t113.5 115.5q32 34 58.5 48.5t56.5 14.5q38 0 65 -23t27 -57q0 -43 -26 -68t-66 -45z" />
    <glyph glyph-name="Grave" unicode="&#x300;" horiz-adv-x="1024" 
d="M768 1546l-31 -39q-117 58 -209.5 102t-136.5 66q-49 25 -70.5 48.5t-21.5 64.5q0 35 25 57.5t67 22.5q30 0 55.5 -13.5t59.5 -49.5q46 -48 103.5 -105.5t158.5 -153.5z" />
    <glyph glyph-name="Circumflex" unicode="&#x302;" horiz-adv-x="1024" 
d="M837 1539l-48 -32l-279 212l-275 -212l-48 32l234 284q18 22 35.5 33.5t57.5 11.5q41 0 56.5 -11t30.5 -30z" />
    <glyph glyph-name="Caron" unicode="&#x30c;" horiz-adv-x="1024" 
d="M837 1836l-234 -284q-21 -26 -32.5 -35.5t-60.5 -9.5q-41 0 -56.5 11t-30.5 30l-236 288l48 32l279 -214l275 214z" />
    <glyph glyph-name="currency" unicode="&#xa4;" horiz-adv-x="1170" 
d="M1005 228l-86 -87l-188 184q-31 -19 -68.5 -30.5t-77.5 -11.5q-36 0 -75 11.5t-69 30.5l-189 -186l-85 90l184 186q-20 31 -31 69.5t-11 74.5q0 42 10.5 76t31.5 68l-184 189l88 86l186 -185q25 17 69 29.5t75 12.5q40 0 78.5 -12t66.5 -29l185 184l90 -85l-186 -190
q20 -31 31.5 -69.5t11.5 -74.5q0 -39 -12.5 -78t-30.5 -66zM747 559q0 68 -47.5 116.5t-114.5 48.5t-114.5 -48t-47.5 -117q0 -67 47.5 -116t114.5 -49t114.5 48t47.5 117z" />
    <glyph glyph-name="te_arasunna" unicode="&#xc01;" horiz-adv-x="471" 
d="M408 32q-65 13 -132 49t-121 93.5t-88.5 137t-34.5 180.5q0 100 33 179.5t86.5 138t120.5 96.5t136 56l23 -67q-57 -24 -106 -61t-85.5 -87t-57.5 -113.5t-21 -141.5q0 -79 23 -143t61 -113.5t87.5 -85t102.5 -57.5z" />
    <glyph glyph-name="te_sunna" unicode="&#xc02;" horiz-adv-x="824" 
d="M767 355q0 -75 -28 -139.5t-77 -112.5t-114 -75.5t-139 -27.5q-73 0 -137.5 28.5t-113 77t-76.5 113.5t-28 138q0 74 28 139t76.5 113t113 75.5t138.5 27.5q73 0 138 -28t113.5 -76.5t77 -113.5t28.5 -139zM658 404q0 46 -19.5 87t-53 71.5t-78.5 48t-96 17.5
q-53 0 -98 -19.5t-78.5 -51.5t-52.5 -73t-19 -83q0 -51 19 -93.5t52.5 -72.5t78.5 -47t98 -17q51 0 96 17t78.5 48t53 74t19.5 94z" />
    <glyph glyph-name="te_visarga" unicode="&#xc03;" horiz-adv-x="436" 
d="M400 756q0 -36 -11.5 -68.5t-34.5 -57t-57.5 -39t-80.5 -14.5q-36 0 -68.5 14.5t-57 39t-39 56t-14.5 66.5q0 37 15 69t40 54.5t58.5 35.5t69.5 13q40 0 73 -13t57 -35.5t37 -53.5t13 -67zM295 754q0 48 -23.5 75.5t-68.5 27.5q-42 0 -66 -28.5t-24 -70.5q0 -45 28 -72
t64 -27q37 0 63.5 23t26.5 72zM400 227q0 -36 -11.5 -68.5t-34.5 -57t-57.5 -39t-80.5 -14.5q-36 0 -68.5 14.5t-57 39t-39 56t-14.5 66.5q0 37 15 69t40 54.5t58.5 35.5t69.5 13q40 0 73 -13t57 -35.5t37 -53.5t13 -67zM295 225q0 48 -23.5 75.5t-68.5 27.5
q-42 0 -66 -28.5t-24 -70.5q0 -45 28 -72t64 -27q37 0 63.5 23t26.5 72z" />
    <glyph glyph-name="te_a" unicode="&#xc05;" horiz-adv-x="1454" 
d="M515 773q0 42 -28.5 73t-88.5 31q-23 0 -41 -8.5t-31 -22t-20 -31t-7 -34.5t8 -35.5t22 -34t34.5 -25.5t46.5 -10q24 0 43.5 8.5t33 22t21 31t7.5 35.5zM1117 385h-707v100h564q-36 18 -72.5 44t-65.5 61t-47.5 79.5t-18.5 98.5q0 52 19.5 97t54 78t83 52t107.5 19
q81 0 147.5 -35t114 -92.5t73 -131t25.5 -151.5q0 -121 -45.5 -234.5t-129.5 -202t-203 -142t-266 -53.5q-101 0 -191.5 23.5t-167 65.5t-138 101t-104.5 130t-66 152t-23 167q0 81 23.5 154.5t67 128.5t105 87.5t138.5 32.5q52 0 94.5 -18.5t71.5 -50t45 -75t16 -92.5
q0 -50 -18.5 -90t-47.5 -68t-66 -43.5t-74 -15.5q-39 0 -76.5 12.5t-66.5 37t-46.5 61.5t-17.5 86v11t1 12q-16 -29 -27.5 -70.5t-11.5 -101.5q0 -101 44.5 -177.5t122.5 -128t184 -77.5t229 -26q126 0 225 31t168 85.5t105 128t36 158.5q0 56 -18.5 104t-51.5 83.5
t-77.5 55.5t-96.5 20q-24 0 -49 -8t-45 -24.5t-33 -40.5t-13 -56q0 -42 20 -75t53.5 -60t77.5 -49.5t92 -43.5z" />
    <glyph glyph-name="te_aa" unicode="&#xc06;" horiz-adv-x="1460" 
d="M763 -28q-160 0 -289.5 51.5t-221.5 139t-142 203.5t-50 245q0 81 23.5 154.5t67 128.5t105 87.5t138.5 32.5q52 0 94.5 -18.5t71.5 -50t45 -75t16 -92.5q0 -50 -18.5 -90t-47.5 -68t-66 -43.5t-74 -15.5q-39 0 -76.5 12.5t-66.5 37t-46.5 61.5t-17.5 86v11t1 12
q-16 -29 -27.5 -70.5t-11.5 -101.5q0 -101 49 -177.5t131.5 -128t191.5 -77.5t229 -26q90 0 169.5 17.5t139.5 46t94.5 65t34.5 74.5q0 28 -9 52q-63 -34 -135.5 -52t-150.5 -18h-504v100h511q69 0 122.5 13.5t95.5 36.5q-30 25 -66 48t-66.5 52t-51 68.5t-20.5 98.5
q0 53 19.5 93t51.5 66.5t73.5 39.5t86.5 13q43 0 85 -16.5t75 -48.5t53.5 -79t20.5 -108q0 -69 -26 -126.5t-72 -105.5q21 -28 34 -62.5t13 -82.5q0 -90 -39.5 -165.5t-114.5 -130.5t-184 -86t-248 -31zM1036 796q0 -35 17 -61t44.5 -48t61 -42t66.5 -43q33 37 49 76t16 73
q0 42 -12 71t-31.5 47t-44 26.5t-49.5 8.5q-17 0 -37 -6t-38 -18.5t-30 -33t-12 -50.5zM515 773q0 42 -28.5 73t-88.5 31q-23 0 -41 -8.5t-31 -22t-20 -31t-7 -34.5t8 -35.5t22 -34t34.5 -25.5t46.5 -10q24 0 43.5 8.5t33 22t21 31t7.5 35.5z" />
    <glyph glyph-name="te_i" unicode="&#xc07;" horiz-adv-x="1188" 
d="M520 639q0 33 -11.5 77t-35.5 84t-60.5 67.5t-87.5 27.5q-53 0 -84 -19.5t-46.5 -46t-20 -53t-4.5 -39.5q0 -50 26 -85.5t56 -59.5l-82 -62q-17 14 -36.5 36.5t-36 51t-27 62t-10.5 69.5q0 64 23 113.5t59.5 83t81 51t88.5 17.5q61 0 103.5 -14t73.5 -37.5t53 -55
t42 -66.5q37 81 100.5 126.5t160.5 45.5q53 0 104 -20.5t90.5 -65t64 -115.5t24.5 -173q0 -85 -28 -173t-80 -170q51 -66 78.5 -146.5t27.5 -174.5q0 -48 -8.5 -81.5t-22 -55.5t-30.5 -32t-33 -10q-26 0 -45 22.5t-19 61.5q0 13 2.5 26t5.5 29.5t5.5 39.5t2.5 56
q0 47 -10.5 88t-30.5 76q-44 -49 -96.5 -90t-113.5 -70.5t-129 -46t-142 -16.5q-35 0 -73 5.5t-74 17.5t-68.5 32t-57 49t-39 68t-14.5 90q0 55 27.5 103.5t81 84.5t133 57t184.5 21q109 0 203 -30t167 -87q39 52 61.5 116t22.5 140q0 121 -45 188.5t-133 67.5
q-60 0 -100 -27.5t-64 -67t-34 -83.5t-10 -78h-110zM469 180q109 0 207.5 30.5t174.5 90.5q-66 51 -145.5 75t-155.5 24q-68 0 -117 -10.5t-80 -28t-45.5 -38.5t-14.5 -42q0 -24 14 -43t38 -31.5t56 -19.5t68 -7z" />
    <glyph glyph-name="te_ii" unicode="&#xc08;" horiz-adv-x="1835" 
d="M60 560h158q7 79 37 151.5t80.5 131.5t119.5 101t154 60l-181 186l115 115l181 -277l356 429l113 -111l-345 -346q79 -18 145.5 -58.5t116 -98t80.5 -129.5t39 -154h272q30 7 59 22.5t51.5 36t36.5 45t14 48.5q0 51 -25.5 72t-65.5 21q-35 0 -55 -17t-20 -46
q0 -22 6.5 -34t20.5 -27l-70 -70q-8 6 -20 18t-22.5 29.5t-18 39.5t-7.5 48q0 19 9.5 48.5t31.5 58t58.5 49t90.5 20.5q38 0 74 -13t64 -38t45 -61.5t17 -84.5q0 -36 -11.5 -65t-28.5 -52.5t-38 -41t-40 -30.5q57 -23 87.5 -66.5t30.5 -106.5q0 -53 -17 -93t-45 -66.5
t-65 -40t-76 -13.5q-41 0 -76.5 15t-62 39.5t-42 56.5t-15.5 65q0 48 11 77t34 57h-191q-7 -108 -46.5 -197.5t-105.5 -154t-156 -100.5t-198 -36q-98 0 -185.5 34t-156 97t-112 153.5t-52.5 203.5h-158v100zM724 905q-67 0 -134 -23.5t-121 -67.5t-89 -108.5t-38 -145.5
h762q-3 73 -35.5 136t-84.5 109.5t-119.5 73t-140.5 26.5zM724 180q61 0 120.5 20t109.5 57t87 88.5t53 114.5h-744q15 -76 54.5 -129t92 -86.5t112 -49t115.5 -15.5zM1662 358q0 45 -21 73.5t-66 28.5q-18 0 -33 -9t-25 -24t-15.5 -35t-5.5 -42q0 -34 22 -60t64 -26
q11 0 25 5t26 16t20.5 29t8.5 44z" />
    <glyph glyph-name="te_u" unicode="&#xc09;" horiz-adv-x="1318" 
d="M873 298q0 33 14.5 62t40.5 51t60.5 34.5t75.5 12.5q37 0 72 -13.5t62 -39t43.5 -62t16.5 -81.5q0 -78 -27.5 -133t-70.5 -90t-96.5 -51t-104.5 -16q-88 0 -162 45t-122 142q-82 -187 -266 -187q-82 0 -146.5 37.5t-109.5 99t-69 141.5t-24 164q0 97 22.5 178t61.5 146
t93 114t117 83t132.5 53t139.5 24v293l103 25v-319q79 -7 148 -31.5t127 -58.5t105 -73.5t83 -77.5q-16 -17 -28 -29q-11 -11 -19.5 -20t-8.5 -8q-42 38 -90 74t-106 64t-127.5 45t-154.5 17q-81 0 -156 -21t-138 -61t-110 -98t-71 -133h1021v-100h-1041q-2 -5 -2 -8.5v-7.5
q0 -67 16 -129.5t46 -111t73.5 -77.5t99.5 -29q44 0 79.5 13t63.5 45t49.5 85.5t37.5 133.5h103q3 -46 16 -93t39 -86t66.5 -65.5t98.5 -31.5q-42 30 -59 72.5t-17 87.5zM1158 272q0 19 -7.5 35t-20.5 28t-30 18.5t-35 6.5q-25 0 -42.5 -8t-28 -20.5t-15.5 -27.5t-5 -28
q0 -42 25.5 -76t64.5 -51q18 6 34.5 15.5t30 24t21.5 35t8 48.5z" />
    <glyph glyph-name="te_uu" unicode="&#xc0a;" horiz-adv-x="1820" 
d="M1647 398q0 45 -21 73.5t-66 28.5q-18 0 -33 -9t-25 -24t-15.5 -35t-5.5 -42q0 -34 22 -60t64 -26q11 0 25 5t26 16t20.5 29t8.5 44zM1158 272q0 19 -7.5 35t-20.5 28t-30 18.5t-35 6.5q-25 0 -42.5 -8t-28 -20.5t-15.5 -27.5t-5 -28q0 -45 27 -78t69 -47q17 6 33 15.5
t28 24t19.5 34.5t7.5 47zM873 298q0 33 14.5 62t40.5 51t60.5 34.5t75.5 12.5q37 0 72 -13.5t62 -39t43.5 -62t16.5 -81.5q0 -78 -27.5 -133t-70.5 -90t-96.5 -51t-104.5 -16q-88 0 -162 45.5t-122 141.5q-82 -187 -266 -187q-82 0 -146.5 37.5t-109.5 99t-69 141.5t-24 164
q0 132 40.5 234t108 175t155 117.5t182.5 61.5v303l103 25v-317q5 0 10.5 0.5t11.5 0.5q9 0 17.5 -0.5t17.5 -0.5v292l103 25v-331q64 -14 120 -39t104.5 -56.5t88 -66.5t70.5 -68l-56 -56q-42 38 -90 74t-106 64t-127.5 45t-154.5 17q-81 0 -156 -21t-138 -61t-110 -98
t-71 -133h1303q30 7 59 22.5t51.5 36t36.5 45t14 48.5q0 51 -25.5 72t-65.5 21q-35 0 -55 -17t-20 -46q0 -22 6.5 -34t20.5 -27l-70 -70q-8 6 -20 18t-22.5 29.5t-18 39.5t-7.5 48q0 19 9.5 48.5t31.5 58t58.5 49t90.5 20.5q38 0 74 -13t64 -38t45 -61.5t17 -84.5
q0 -36 -11.5 -65t-28.5 -52.5t-38 -41t-40 -30.5q57 -23 87.5 -66.5t30.5 -106.5q0 -53 -17 -93t-45 -66.5t-65 -40t-76 -13.5q-41 0 -76.5 15t-62 39.5t-42 56.5t-15.5 65q0 48 11 77t34 57h-1243q-2 -7 -2 -13.5v-13.5q0 -66 16.5 -126.5t47.5 -107t74.5 -74.5t96.5 -28
q44 0 79.5 13t63.5 45t49.5 85.5t37.5 133.5h103q3 -48 17.5 -97t43.5 -89t73.5 -65.5t108.5 -25.5q-54 24 -76.5 67t-22.5 94z" />
    <glyph glyph-name="te_vocalic_r" unicode="&#xc0b;" horiz-adv-x="2745" 
d="M128 595q-34 33 -51 79t-17 88q0 60 24 106.5t62 78.5t86 48.5t96 16.5q61 0 110 -20t83.5 -55t53.5 -83t19 -103q0 -66 -32 -112.5t-79.5 -81t-103.5 -62.5t-103.5 -56.5t-79.5 -62.5t-32 -81q0 -26 11.5 -48.5t30.5 -40t42 -27.5t47 -10q66 0 119 24.5t95 65t73 94
t53 111.5h99q7 -48 31.5 -100t62.5 -95.5t87 -71.5t105 -28q48 0 86.5 17.5t68.5 45t51 62.5t35 71t20.5 69t6.5 56q0 173 -79.5 281t-226.5 153l47 90q97 -28 165.5 -81t112 -122.5t63 -152.5t19.5 -171q0 -11 -0.5 -21.5t-1.5 -21.5q10 -47 35.5 -96t62.5 -89t84 -65
t101 -25q48 0 86.5 17.5t68.5 45t51 62.5t35 71t20.5 69t6.5 56q0 173 -79.5 281t-226.5 153l47 90q97 -28 165.5 -81t112 -122.5t63 -152.5t19.5 -171q0 -11 -0.5 -22.5t-1.5 -33.5q12 -46 37.5 -92.5t62 -84t82 -61.5t97.5 -24q48 0 86.5 17.5t68.5 45t51 62.5t35 71
t20.5 69t6.5 56q0 173 -79.5 281t-226.5 153l47 90q97 -28 165.5 -81t112 -122.5t63 -152.5t19.5 -171q0 -116 -30.5 -211t-81.5 -162.5t-118.5 -104.5t-140.5 -37q-72 0 -125 26t-91 65.5t-63 86t-40 87.5q-24 -62 -59 -111t-77.5 -83.5t-91 -52.5t-99.5 -18
q-73 0 -126.5 27t-92 67.5t-63 88t-39.5 88.5q-24 -63 -59 -113.5t-78 -85.5t-91.5 -53.5t-100.5 -18.5q-58 0 -103.5 17.5t-81 45.5t-61 63.5t-44 71.5t-30 70t-18.5 58q-9 -24 -23.5 -57.5t-34.5 -70t-47.5 -72t-63 -63.5t-80 -45.5t-98.5 -17.5q-68 0 -119 23t-85 61.5
t-51.5 87.5t-17.5 102q0 78 32 131.5t80.5 92.5t104.5 69.5t104.5 61.5t80.5 67.5t32 89.5q0 30 -15 55t-39 43t-54 28t-60 10q-37 0 -67 -12.5t-51 -31.5t-32.5 -41t-11.5 -40q0 -26 12 -56t35 -57z" />
    <glyph glyph-name="te_vocalic_l" unicode="&#xc0c;" horiz-adv-x="1504" 
d="M1128 672q0 -59 -21 -110t-55 -96.5t-78 -86.5t-89.5 -80t-89.5 -77t-78 -78t-55 -82.5t-21 -89.5q0 -100 57 -153t178 -53q105 0 187.5 47.5t140 126.5t88 182t30.5 215q0 193 -52.5 353.5t-152.5 283.5l88 66q50 -65 93.5 -137.5t76 -157.5t51 -185t18.5 -220
q0 -95 -14 -188.5t-43 -179t-74 -158.5t-106.5 -127t-141.5 -84.5t-178 -30.5q-87 0 -159.5 25t-124.5 72.5t-81 116.5t-29 158q0 93 36.5 163t91 127t118 105.5t118 98.5t91 106t36.5 128q0 44 -14 79t-37 59t-51.5 37t-56.5 13q-44 0 -80 -22t-61.5 -55t-39.5 -71.5
t-14 -72.5h-110q0 33 -11.5 71.5t-35.5 72t-61 55.5t-88 22q-44 0 -73.5 -14t-47.5 -34t-25.5 -41t-7.5 -34q0 -50 26 -85.5t56 -59.5l-82 -62q-17 14 -36.5 36.5t-36 51t-27 62t-10.5 69.5q0 64 23 113.5t59.5 83t81 51t88.5 17.5q61 0 103.5 -14t73.5 -37.5t53 -55
t42 -66.5q37 81 100.5 126.5t160.5 45.5q53 0 104 -16t90.5 -55t64 -104.5t24.5 -165.5z" />
    <glyph glyph-name="te_e" unicode="&#xc0e;" horiz-adv-x="1466" 
d="M605 480q25 -41 60.5 -90t79 -91t95 -70.5t108.5 -28.5q84 0 148.5 39.5t108.5 103.5t66.5 145t22.5 165q0 150 -45 288.5t-137.5 252t-232.5 193.5t-330 112l27 104q205 -36 360 -126.5t259.5 -218.5t157.5 -284.5t53 -323.5q0 -85 -12 -168.5t-36.5 -158.5t-61 -139.5
t-85.5 -111.5t-110 -73.5t-135 -26.5q-54 0 -104.5 27t-94.5 68t-80 90t-61 93q-11 -60 -36.5 -111t-62 -88t-83 -58t-100.5 -21q-68 0 -120.5 30.5t-89 81.5t-55.5 118t-19 141q0 61 22.5 117t61.5 98t90.5 67t109.5 25q42 0 82.5 -13t75 -35.5t61 -54t42.5 -67.5zM164 374
q0 -36 14.5 -68t39 -55.5t57 -37t69.5 -13.5q41 0 74.5 15t57 39.5t36 55.5t12.5 64q0 40 -15 72.5t-39.5 55.5t-57 36t-68.5 13q-30 0 -61.5 -11.5t-57.5 -34t-43 -55.5t-18 -76z" />
    <glyph glyph-name="te_ee" unicode="&#xc0f;" horiz-adv-x="1466" 
d="M605 480q25 -41 60.5 -90t79 -91t95 -70.5t108.5 -28.5q84 0 148.5 39.5t108.5 103.5t66.5 145t22.5 165q0 150 -45 288.5t-137.5 252t-232.5 193.5t-330 112l27 104q205 -36 360 -126.5t259.5 -218.5t157.5 -284.5t53 -323.5q0 -85 -12 -168.5t-36.5 -158.5t-61 -139.5
t-85.5 -111.5t-110 -73.5t-135 -26.5q-54 0 -104.5 27t-94.5 68t-80 90t-61 93q-11 -60 -36.5 -111t-62 -88t-83 -58t-100.5 -21q-68 0 -120.5 30.5t-89 81.5t-55.5 118t-19 141q0 61 22.5 117t61.5 98t90.5 67t109.5 25q42 0 82.5 -13t75 -35.5t61 -54t42.5 -67.5zM164 374
q0 -36 14.5 -68t39 -55.5t57 -37t69.5 -13.5q41 0 74.5 15t57 39.5t36 55.5t12.5 64q0 40 -15 72.5t-39.5 55.5t-57 36t-68.5 13q-30 0 -61.5 -11.5t-57.5 -34t-43 -55.5t-18 -76zM332 1258q-33 52 -55 117t-22 140t24.5 142t64 121.5t88 93.5t96.5 58l75 -81
q-49 -21 -93 -51t-77 -69t-52.5 -88.5t-19.5 -110.5q0 -60 22.5 -120t66.5 -120z" />
    <glyph glyph-name="te_ai" unicode="&#xc10;" horiz-adv-x="1268" 
d="M1208 514q0 -65 -9.5 -130.5t-28.5 -126t-47.5 -112.5t-67.5 -90.5t-88 -60.5t-108 -22q-48 0 -89.5 17.5t-76 45t-61.5 62.5t-47 70q-12 -50 -38.5 -86.5t-62 -60.5t-77.5 -36t-84 -12q-51 0 -98.5 19t-84 56.5t-58.5 93t-22 129.5q0 62 19.5 113.5t54 88.5t83 57.5
t106.5 20.5q40 0 75.5 -12t65.5 -32.5t54 -48t41 -59.5q20 -36 48 -74.5t65.5 -70.5t84.5 -52.5t105 -20.5q46 0 81 19.5t61 50t44 68.5t28.5 75.5t15 70.5t4.5 53q0 94 -22.5 160.5t-56.5 108.5t-73 61.5t-72 19.5q-44 0 -82.5 -21.5t-67 -53.5t-45 -70t-16.5 -72h-110
q0 33 -13 70t-38.5 68t-63.5 51.5t-89 20.5q-44 0 -73.5 -14t-47.5 -34t-25.5 -41t-7.5 -34q0 -35 13 -62l-93 -44q-14 26 -22 56t-8 62q0 64 24.5 113.5t62.5 83t84 51t89 17.5q57 0 99.5 -12t74 -34t55 -51.5t43.5 -64.5q45 78 105.5 120t151.5 42q61 0 121.5 -30.5
t108 -92t77 -156t29.5 -221.5zM162 311q0 -25 11.5 -48.5t32.5 -42t51 -29.5t66 -11q41 0 71.5 11t50.5 29.5t29.5 43t9.5 51.5q0 66 -44.5 101t-116.5 35q-30 0 -58.5 -9t-51.5 -26.5t-37 -43.5t-14 -61z" />
    <glyph glyph-name="te_o" unicode="&#xc12;" horiz-adv-x="1310" 
d="M1159 542q91 -120 91 -235q0 -87 -26.5 -150.5t-69.5 -104.5t-96 -60.5t-107 -19.5q-58 0 -102 17t-77 45t-56 63.5t-38.5 71.5t-24.5 70t-14 59q-7 -25 -17 -58.5t-26 -69.5t-39 -71.5t-54.5 -63.5t-73.5 -45.5t-96 -17.5q-68 0 -119 23t-85 61.5t-51.5 87.5t-17.5 102
q0 82 32 137t80.5 94.5t104.5 68.5t104.5 58.5t80.5 65t32 88.5q0 30 -15 55t-39 43t-54 28t-60 10q-37 0 -67 -12.5t-51 -31.5t-32.5 -41t-11.5 -40q0 -26 12 -56t35 -57l-83 -61q-34 33 -51 79t-17 88q0 60 24 106.5t62 78.5t86 48.5t96 16.5q61 0 110 -20t83.5 -55
t53.5 -83t19 -103q0 -66 -32 -113.5t-79.5 -84.5t-103.5 -67t-103.5 -60t-79.5 -64.5t-32 -79.5q0 -26 11.5 -46.5t30.5 -35.5t42 -23t47 -8q66 0 115 21t84 59.5t59 93t41 121.5h99q9 -54 28 -107t49.5 -95t73 -67.5t98.5 -25.5q91 0 144 43t53 121q0 39 -11.5 69.5
t-43.5 61.5z" />
    <glyph glyph-name="te_oo" unicode="&#xc13;" horiz-adv-x="1310" 
d="M1159 542q45 -59 68 -118.5t23 -116.5q0 -87 -26.5 -150.5t-69.5 -104.5t-96 -60.5t-107 -19.5q-57 0 -101.5 17t-77 45t-55.5 63.5t-38.5 71.5t-25 70t-14.5 59q-7 -24 -17.5 -58t-26.5 -70t-38.5 -71.5t-54.5 -63.5t-73.5 -45.5t-95.5 -17.5q-68 0 -119 23t-85 61.5
t-51.5 87.5t-17.5 102q0 82 32 137t80.5 94.5t104.5 68.5t104.5 58.5t80.5 65t32 88.5q0 30 -15 55t-39 43t-54 28t-60 10q-37 0 -67 -12.5t-51 -31.5t-32.5 -41t-11.5 -40q0 -26 12 -56t35 -57l-83 -61q-34 33 -51 79.5t-17 87.5q0 47 15.5 86t41 69t59.5 51t72 32
q-12 9 -25 22t-23 31t-16.5 42t-6.5 55q0 38 15.5 70t42.5 55.5t64 37t81 13.5q30 0 58.5 -12t53.5 -34t44 -53t31 -70l-88 -44q-23 45 -50.5 67.5t-50.5 22.5q-18 0 -36 -6t-32 -17t-22.5 -26.5t-8.5 -34.5q0 -41 15.5 -66t38.5 -41q60 -1 108 -21.5t82 -55t52.5 -82
t18.5 -102.5q0 -50 -18.5 -88.5t-48.5 -70t-69 -57.5t-79 -49t-79 -45t-69 -46t-48.5 -51.5t-18.5 -61.5q0 -26 11.5 -46.5t30.5 -35.5t42 -23t47 -8q66 0 115 21t84 59.5t59 93t41 121.5h99q9 -54 28 -107t49.5 -95t73 -67.5t98.5 -25.5q43 0 79 10.5t62.5 31t41 49.5
t14.5 67q0 41 -10.5 72.5t-44.5 64.5z" />
    <glyph glyph-name="te_au" unicode="&#xc14;" horiz-adv-x="1529" 
d="M1216 542q91 -120 91 -235q0 -87 -26.5 -150.5t-69.5 -104.5t-96 -60.5t-107 -19.5q-58 0 -102 17t-76.5 45t-55.5 63t-38.5 71.5t-25 70.5t-14.5 59q-7 -25 -17.5 -58.5t-26.5 -69.5t-39 -71.5t-54.5 -63.5t-73 -45.5t-95.5 -17.5q-68 0 -119 23t-85 61.5t-51.5 87.5
t-17.5 102q0 82 32 137t80.5 94.5t104.5 68.5t104.5 58.5t80.5 65t32 88.5q0 30 -15 55t-39 43t-54 28t-60 10q-37 0 -67 -12.5t-51 -31.5t-32.5 -41t-11.5 -40q0 -26 12 -56t35 -57l-83 -61q-34 33 -51 79t-17 88q0 60 24 106.5t62 78.5t86 48.5t96 16.5q61 0 110 -20
t83.5 -55t53.5 -83t19 -103q0 -66 -32 -113.5t-79.5 -84.5t-103.5 -67t-103.5 -60t-79.5 -64.5t-32 -79.5q0 -26 11.5 -46.5t30.5 -35.5t42 -23t47 -8q66 0 115 21t84 59.5t59 93t41 121.5h99q9 -54 28 -107t49.5 -95t73 -67.5t98.5 -25.5q91 0 144 43t53 121
q0 39 -11.5 69.5t-43.5 61.5zM1090 1159q0 -20 7.5 -40t23.5 -36.5t42 -27t62 -10.5q28 0 50.5 10t38.5 26.5t24 37t8 42.5q0 33 -10.5 56.5t-28 39t-40.5 22.5t-48 7q-32 0 -56.5 -11.5t-40.5 -30t-24 -41t-8 -44.5zM0 1394h1215q68 0 116.5 -20.5t79 -54t44.5 -77.5
t14 -91q0 -40 -16 -78.5t-47.5 -69t-77.5 -49.5t-105 -19q-50 0 -95 16t-79.5 43.5t-54.5 65t-20 81.5q0 57 17.5 91t45.5 54h-346q29 -19 43 -52.5t14 -65.5q0 -42 -18 -71.5t-52 -47.5t-82 -26t-109 -8l-370 -1v111h367q19 0 39 2.5t36.5 11t26.5 23.5t10 41q0 16 -8 31
t-21.5 26.5t-31.5 18.5t-39 7h-496v108z" />
    <glyph glyph-name="te_ka" unicode="&#xc15;" horiz-adv-x="884" 
d="M138 753q0 43 13 82t40 71t67.5 56.5t94.5 37.5l-185 190l115 115l181 -277l356 429l113 -111l-349 -350q47 -16 85.5 -44.5t66 -64t42.5 -75.5t15 -79l-67 -24q-17 38 -40 72t-54 59.5t-72.5 40t-95.5 14.5q-38 0 -74.5 -11t-65 -31.5t-46 -50t-17.5 -65.5
q0 -32 28.5 -56t77.5 -41q24 -8 47.5 -17t46.5 -17l154 -56q50 -18 89 -38t66 -47t41 -62.5t14 -84.5v-23q0 -82 -34.5 -142.5t-87.5 -100.5t-116.5 -59.5t-120.5 -19.5q-55 0 -118 18t-120.5 55.5t-102.5 95t-65 137.5l75 70q37 -57 75 -91t78 -51t83 -22t91 -5q37 0 77 8
t73.5 26t55.5 46t22 67q0 26 -6.5 43.5t-20.5 30t-35 22.5t-50 20l-252 91q-38 17 -72 37t-60 44.5t-41 54t-15 65.5v18z" />
    <glyph glyph-name="te_kha" unicode="&#xc16;" horiz-adv-x="1517" 
d="M1055 1014q84 -28 157.5 -77.5t127.5 -115.5t85.5 -147t31.5 -172q0 -139 -35 -239t-94 -164.5t-136.5 -95.5t-162.5 -31q-46 0 -85.5 10.5t-74 28.5t-65 42.5t-58.5 52.5q-58 -60 -141.5 -97t-198.5 -37q-77 0 -140.5 22.5t-109.5 61.5t-71 92t-25 115q0 48 19 94
t56.5 82.5t91.5 58.5t125 22q64 0 115.5 -15.5t94 -40.5t79 -57t71.5 -65q42 52 64 110t22 115q0 91 -31 155.5t-77.5 107t-101 65t-101.5 28.5q31 -26 45 -55.5t14 -59.5q0 -34 -16 -66t-44 -56.5t-66.5 -39.5t-82.5 -15q-55 0 -96 15.5t-68.5 42t-41 61.5t-13.5 74
q0 42 21 76.5t59 60t92.5 39.5t120.5 14q110 0 201.5 -33.5t157 -94t102 -145t36.5 -187.5q0 -69 -16 -152.5t-54 -162.5q42 -26 91.5 -42.5t112.5 -16.5q50 0 103 19.5t96.5 58.5t71.5 97.5t28 136.5q0 97 -35.5 175t-108.5 136q-42 33 -89 56.5t-92 41.5zM363 180
q75 0 138 19.5t114 53.5q-27 30 -55.5 57t-60 47.5t-66.5 32t-76 11.5q-49 0 -82 -9t-53 -24t-28.5 -33t-8.5 -36q0 -57 43.5 -88t134.5 -31zM416 824q0 13 -3.5 27.5t-13.5 27.5t-27.5 21.5t-45.5 8.5q-18 0 -33.5 -7.5t-26 -18.5t-16.5 -24.5t-6 -26.5q0 -14 4.5 -29.5
t14.5 -28.5t26.5 -21.5t39.5 -8.5q25 0 42 7.5t27 19.5t14 26t4 27zM739 55h11q9 -11 22.5 -24t25.5 -28.5t20.5 -32.5t8.5 -34q0 -15 -5.5 -30.5t-16 -28t-27 -20t-38.5 -7.5t-38 7.5t-26 19.5t-15 27.5t-5 31.5q0 17 7.5 33t18 31t22.5 28.5t21 26.5h14z" />
    <glyph glyph-name="te_ga" unicode="&#xc17;" horiz-adv-x="1118" 
d="M554 895q-62 0 -128 -21.5t-121 -68t-90.5 -118.5t-35.5 -172q0 -77 14.5 -133.5t37.5 -104t52.5 -91.5t59.5 -95l-161 -128q-14 20 -35 71.5t-40.5 120.5t-33 147.5t-13.5 152.5q0 127 32.5 221.5t86 161t122 106t140.5 56.5l-185 190l115 115l181 -277l356 429
l113 -111l-345 -346q71 -17 139.5 -56.5t122.5 -106t87 -161t33 -221.5q0 -74 -13.5 -152.5t-33 -147.5t-40.5 -120.5t-35 -71.5l-158 125q30 51 59 95.5t51.5 92.5t36.5 105t14 134q0 67 -17 121t-46 96.5t-68 73t-81.5 50.5t-87 29.5t-85.5 9.5z" />
    <glyph glyph-name="te_gha" unicode="&#xc18;" horiz-adv-x="1865" 
d="M164 321q0 -27 11 -52.5t31 -45t47.5 -31.5t60.5 -12q36 0 63.5 13.5t47 34t29.5 45.5t10 48q0 32 -10 59.5t-29.5 47.5t-47 31.5t-63.5 11.5q-32 0 -59.5 -10t-47.5 -29.5t-31.5 -47.5t-11.5 -63zM339 887l-302 303l115 115l181 -277l356 429l113 -111zM314 570
q53 0 99 -14.5t81 -45t56 -77.5t24 -111q19 -32 44 -60t55 -48.5t63.5 -32.5t69.5 -12q48 0 86.5 17.5t68.5 45t51 62.5t35 71t20.5 69t6.5 56q0 173 -79.5 281t-226.5 153l47 90q97 -28 165.5 -81t112 -122.5t63 -152.5t19.5 -171q0 -49 -6 -94q16 -42 42.5 -82t61 -71.5
t76 -51t87.5 -19.5q48 0 86.5 17.5t68.5 45t51 62.5t35 71t20.5 69t6.5 56q0 173 -79.5 281t-226.5 153l47 90q97 -28 165.5 -81t112 -122.5t63 -152.5t19.5 -171q0 -116 -30.5 -211t-81.5 -162.5t-118.5 -104.5t-140.5 -37q-67 0 -118 23t-88.5 59t-63 79t-41.5 84
q-25 -57 -59.5 -102.5t-76 -77t-88 -48.5t-95.5 -17q-48 0 -87.5 12.5t-72 33t-58 47.5t-44.5 57q-31 -70 -88.5 -110t-139.5 -40q-68 0 -116 25.5t-78.5 68t-45 99t-14.5 118.5q0 57 18 109t51 91.5t80 63t105 23.5zM548 55h11q9 -11 22 -24.5t25.5 -28.5t21 -31.5
t8.5 -34.5q0 -15 -5.5 -30.5t-16 -28t-27 -20t-38.5 -7.5t-38 7.5t-26 19.5t-15 27.5t-5 31.5q0 17 7.5 33t18 31t22.5 28.5t21 26.5h14z" />
    <glyph glyph-name="te_nga" unicode="&#xc19;" horiz-adv-x="1310" 
d="M1159 542q91 -120 91 -235q0 -87 -26.5 -150.5t-69.5 -104.5t-96 -60.5t-107 -19.5q-58 0 -102 17.5t-76.5 45t-55.5 63t-38.5 72t-24.5 70t-15 58.5q-7 -25 -17 -59t-25.5 -70.5t-38.5 -71.5t-54.5 -63t-73.5 -45t-97 -17q-68 0 -119 23t-85 61.5t-51.5 87.5t-17.5 102
q0 82 32 137t80.5 94.5t104.5 68.5t104.5 58.5t80.5 65t32 88.5q0 30 -15 55t-39 43t-54 28t-60 10q-37 0 -67 -12.5t-51 -31.5t-32.5 -41t-11.5 -40q0 -26 12 -56t35 -57l-83 -61q-34 33 -51 79t-17 88q0 60 24 106.5t62 78.5t86 48.5t96 16.5q54 0 98.5 -15.5t78 -44
t55.5 -67.5t30 -85h245v214h100v-214h205v-100h-552q-13 -54 -49.5 -94t-83.5 -72.5t-98.5 -60t-94 -56t-70.5 -61t-28 -74.5q0 -26 11.5 -46.5t30.5 -35.5t42 -23t47 -8q66 0 115 21t84 59.5t59 93t41 121.5h99q9 -54 28 -107t49.5 -95t73 -67.5t98.5 -25.5q91 0 144 43
t53 121q0 39 -11.5 69.5t-43.5 61.5z" />
    <glyph glyph-name="te_ca" unicode="&#xc1a;" horiz-adv-x="1432" 
d="M722 913l-275 277l115 115l181 -277l356 429l113 -111l-341 -342q61 -12 122 -38.5t116.5 -65.5t103.5 -90.5t83.5 -113t55.5 -132.5t20 -150q0 -93 -21 -173.5t-62 -140.5t-102.5 -94t-143.5 -34q-93 0 -160 45t-109 141q-42 -96 -109 -141t-160 -45q-68 0 -124.5 26
t-96.5 70.5t-62 103t-22 124.5q0 28 7.5 62.5t21.5 64.5l-199 32l28 116l305 -71q-25 -40 -34.5 -75.5t-9.5 -69.5q0 -39 14 -71.5t38 -55.5t55.5 -35.5t66.5 -12.5q29 0 62.5 6.5t65.5 30.5t59 70.5t43 126.5h103q16 -80 42.5 -126.5t58 -70.5t64 -30.5t60.5 -6.5
q42 0 80.5 18t68 49.5t47 74t17.5 92.5q0 73 -22.5 138.5t-62 121t-92.5 99.5t-113 75.5t-124.5 48t-127.5 16.5z" />
    <glyph glyph-name="te_cha" unicode="&#xc1b;" horiz-adv-x="1432" 
d="M722 913l-275 277l115 115l181 -277l356 429l113 -111l-341 -342q61 -12 122 -38.5t116.5 -65.5t103.5 -90.5t83.5 -113t55.5 -132.5t20 -150q0 -93 -21 -173.5t-62 -140.5t-102.5 -94t-143.5 -34q-93 0 -160 45t-109 141q-42 -96 -109 -141t-160 -45q-68 0 -124.5 26
t-96.5 70.5t-62 103t-22 124.5q0 28 7.5 62.5t21.5 64.5l-199 32l28 116l305 -71q-25 -40 -34.5 -75.5t-9.5 -69.5q0 -39 14 -71.5t38 -55.5t55.5 -35.5t66.5 -12.5q29 0 62.5 6.5t65.5 30.5t59 70.5t43 126.5h103q16 -80 42.5 -126.5t58 -70.5t64 -30.5t60.5 -6.5
q42 0 80.5 18t68 49.5t47 74t17.5 92.5q0 73 -22.5 138.5t-62 121t-92.5 99.5t-113 75.5t-124.5 48t-127.5 16.5zM775 55h11q9 -11 22.5 -24t25.5 -28.5t20.5 -32.5t8.5 -34q0 -15 -5.5 -30.5t-16 -28t-27 -20t-38.5 -7.5t-38 7.5t-26 19.5t-15 27.5t-5 31.5q0 17 7.5 33
t18 31t22.5 28.5t21 26.5h14z" />
    <glyph glyph-name="te_ja" unicode="&#xc1c;" horiz-adv-x="1310" 
d="M1159 542q91 -120 91 -235q0 -87 -26.5 -150.5t-69.5 -104.5t-96 -60.5t-107 -19.5q-58 0 -102.5 17t-77.5 45t-56.5 63.5t-39 71.5t-24 70t-12.5 59q-6 -26 -15.5 -60t-25.5 -70t-39 -71t-55.5 -63t-74.5 -45t-96 -17q-68 0 -119 23t-85 61.5t-51.5 87.5t-17.5 102
q0 82 32 137t80.5 94.5t104.5 68.5t104.5 58.5t80.5 65t32 88.5q0 30 -15 55t-39 43t-54 28t-60 10q-37 0 -67 -12.5t-51 -31.5t-32.5 -41t-11.5 -40q0 -26 12 -56t35 -57l-83 -61q-34 33 -51 79t-17 88q0 60 24 106.5t62 78.5t86 48.5t96 16.5q51 0 93.5 -14t75.5 -39
t55.5 -60.5t32.5 -77.5q20 -21 50.5 -47t70 -48.5t87.5 -38t104 -15.5q45 0 81.5 11.5t61.5 30t38.5 42t13.5 48.5q0 34 -26 54.5t-61 20.5q-12 0 -25 -5t-27.5 -12.5t-28.5 -16.5t-27 -17l-54 81q15 12 33.5 24t38.5 22.5t41.5 17t42.5 6.5q46 0 83.5 -14.5t64 -40
t41 -59.5t14.5 -73q0 -46 -24 -87t-65 -72t-96.5 -49t-119.5 -18q-54 0 -101 13t-86 33t-70 44t-52 45q-13 -54 -49 -94.5t-83.5 -73t-99 -60t-94 -56t-70.5 -61t-28 -74.5q0 -26 11.5 -46.5t30.5 -35.5t42 -23t47 -8q66 0 115 21t84 59.5t59 93t41 121.5h99q9 -54 28 -107
t49.5 -95t73 -67.5t98.5 -25.5q91 0 144 43t53 121q0 39 -11.5 69.5t-43.5 61.5z" />
    <glyph glyph-name="te_jha" unicode="&#xc1d;" horiz-adv-x="2426" 
d="M60 512q0 86 27 166.5t77.5 146.5t123.5 113t165 66l-181 186l115 115l181 -277l356 429l113 -111l-345 -346q85 -20 155.5 -65.5t121.5 -110t79 -146t28 -173.5q0 -19 -1 -37.5t-3 -36.5q12 -46 37.5 -92.5t62 -84t82 -61.5t97.5 -24q48 0 86.5 17.5t68.5 45t51 62.5
t35 71t20.5 69t6.5 56q0 173 -79.5 281t-226.5 153l47 90q97 -28 165.5 -81t112 -122.5t63 -152.5t19.5 -171q0 -8 -1 -26.5t-1 -29.5q12 -46 37.5 -92.5t62 -84t82 -61.5t97.5 -24q48 0 86.5 17.5t68.5 45t51 62.5t35 71t20.5 69t6.5 56q0 173 -79.5 281t-226.5 153l47 90
q97 -28 165.5 -81t112 -122.5t63 -152.5t19.5 -171q0 -116 -30.5 -211t-81.5 -162.5t-118.5 -104.5t-140.5 -37q-72 0 -125 26t-91 65.5t-63 86t-40 87.5q-24 -62 -59 -111t-77.5 -83.5t-91 -52.5t-99.5 -18q-75 0 -130 28.5t-93.5 71.5t-63 92.5t-38.5 90.5
q-30 -65 -75 -117.5t-103 -89t-128 -56.5t-150 -20q-102 0 -194 37.5t-162 108t-111 170t-41 224.5zM186 546q0 -100 36 -169.5t91.5 -113t123.5 -63.5t131 -20q70 0 138.5 26.5t122.5 74.5t87 114.5t33 146.5q0 76 -31 142.5t-83.5 115.5t-121.5 77t-145 28
q-68 0 -136 -24.5t-123 -70.5t-89 -112.5t-34 -151.5zM1676 55h11q9 -11 22.5 -24t25.5 -28.5t20.5 -32.5t8.5 -34q0 -15 -5.5 -30.5t-16 -28t-27 -20t-38.5 -7.5t-38 7.5t-26 19.5t-15 27.5t-5 31.5q0 17 7.5 33t18 31t22.5 28.5t21 26.5h14z" />
    <glyph glyph-name="te_nya" unicode="&#xc1e;" horiz-adv-x="1516" 
d="M520 639q0 33 -11.5 77t-35.5 84t-60.5 67.5t-87.5 27.5q-53 0 -84 -19.5t-46.5 -46t-20 -53t-4.5 -39.5q0 -50 26 -85.5t56 -59.5l-82 -62q-17 14 -36.5 36.5t-36 51t-27 62t-10.5 69.5q0 64 23 113.5t59.5 83t81 51t88.5 17.5q61 0 103.5 -14t73.5 -37.5t53 -55
t42 -66.5q37 81 100.5 126.5t160.5 45.5q41 0 81 -12t74.5 -37.5t62 -66t44.5 -97.5h125v214h100v-214h144v-100h-351q3 -30 3 -61q0 -85 -28 -173t-80 -170q51 -66 78.5 -146.5t27.5 -174.5q0 -48 -8.5 -81.5t-22 -55.5t-30.5 -32t-33 -10q-26 0 -45 22.5t-19 61.5
q0 13 2.5 26t5.5 29.5t5.5 39.5t2.5 56q0 47 -10.5 88t-30.5 76q-44 -49 -96.5 -90t-113.5 -70.5t-129 -46t-142 -16.5q-35 0 -73 5.5t-74 17.5t-68.5 32t-57 49t-39 68t-14.5 90q0 55 27.5 103.5t81 84.5t133 57t184.5 21q109 0 203 -30t167 -87q39 52 61.5 116t22.5 140
q0 121 -45 188.5t-133 67.5q-60 0 -100 -27.5t-64 -67t-34 -83.5t-10 -78h-110zM469 180q109 0 207.5 30.5t174.5 90.5q-66 51 -145.5 75t-155.5 24q-68 0 -117 -10.5t-80 -28t-45.5 -38.5t-14.5 -42q0 -24 14 -43t38 -31.5t56 -19.5t68 -7z" />
    <glyph glyph-name="te_tta" unicode="&#xc1f;" horiz-adv-x="1490" 
d="M748 193q-13 -42 -41.5 -82t-69.5 -70.5t-92 -49.5t-109 -19q-97 0 -167.5 42.5t-117 114t-69 165.5t-22.5 196t30 192.5t83.5 160.5t127.5 114.5t163 53.5v295l107 25v-323q78 -16 117.5 -68t39.5 -137q0 -45 -16.5 -82t-45 -62.5t-66.5 -39.5t-81 -14q-48 0 -84 14.5
t-59.5 37t-35 50.5t-11.5 54q0 35 7.5 63t24.5 54q-53 -39 -89 -78.5t-59 -85.5t-33 -101.5t-10 -124.5q0 -65 21.5 -121t57 -97.5t82 -65.5t96.5 -24q62 0 109.5 21t81 52t53 66t25.5 63h104q7 -36 26.5 -72t51 -65t74 -47t95.5 -18q55 0 96.5 15t71.5 40.5t50.5 57.5
t32.5 66.5t17 68t5 60.5q0 99 -20.5 168.5t-61.5 119t-103 84.5t-145 65l34 89q114 -27 191.5 -84t125 -130t68.5 -155.5t21 -160.5q0 -109 -25.5 -202.5t-74.5 -162.5t-120.5 -108t-162.5 -39q-58 0 -104 17.5t-82.5 48t-64 70.5t-48.5 85zM605 807q0 33 -21.5 60.5
t-66.5 27.5q-40 0 -64 -23.5t-24 -58.5q0 -17 5.5 -33t17 -28t29 -19t42.5 -7q19 0 34.5 7.5t26 19t16 26t5.5 28.5z" />
    <glyph glyph-name="te_ttha" unicode="&#xc20;" horiz-adv-x="1136" 
d="M60 512q0 86 27 166.5t77.5 146.5t123.5 113t165 66l-181 186l115 115l181 -277l356 429l113 -111l-345 -346q85 -20 155.5 -65.5t121.5 -110t79 -146t28 -173.5q0 -116 -37 -214t-103.5 -169t-160 -110.5t-207.5 -39.5q-102 0 -194 37.5t-162 108t-111 170t-41 224.5z
M186 546q0 -100 36 -169.5t91.5 -113t123.5 -63.5t131 -20q70 0 138.5 26.5t122.5 74.5t87 114.5t33 146.5q0 76 -31 142.5t-83.5 115.5t-121.5 77t-145 28q-68 0 -136 -24.5t-123 -70.5t-89 -112.5t-34 -151.5zM475 533q0 39 26.5 65.5t65.5 26.5t65.5 -26.5t26.5 -65.5
q0 -38 -26.5 -64.5t-65.5 -26.5t-65.5 26.5t-26.5 64.5z" />
    <glyph glyph-name="te_dda" unicode="&#xc21;" horiz-adv-x="1318" 
d="M873 298q0 33 14.5 62t40.5 51t60.5 34.5t75.5 12.5q37 0 72 -13.5t62 -39t43.5 -62t16.5 -81.5q0 -78 -27.5 -133t-70.5 -90t-96.5 -51t-104.5 -16q-88 0 -162 45.5t-122 141.5q-82 -187 -266 -187q-82 0 -146.5 37.5t-109.5 99t-69 141.5t-24 164q0 130 39.5 231
t105 173.5t151.5 117.5t179 64l-184 190l115 115l181 -277l356 429l113 -111l-340 -341q70 -12 131.5 -37t113.5 -57.5t95 -69t76 -71.5l-56 -57q-42 38 -90 74t-106 64t-127.5 45t-154.5 17q-98 0 -188 -31t-158.5 -89.5t-109.5 -144t-41 -193.5q0 -63 18 -120.5t50 -101.5
t74.5 -70t92.5 -26q44 0 79.5 13t63.5 45t49.5 85.5t37.5 133.5h103q3 -48 17.5 -97t43.5 -89t73.5 -65.5t108.5 -25.5q-54 24 -76.5 67t-22.5 94zM1158 272q0 19 -7.5 35t-20.5 28t-30 18.5t-35 6.5q-25 0 -42.5 -8t-28 -20.5t-15.5 -27.5t-5 -28q0 -26 11 -44t29.5 -29
t43 -16.5t52.5 -5.5q11 0 20 8t15 21t9.5 29.5t3.5 32.5z" />
    <glyph glyph-name="te_ddha" unicode="&#xc22;" horiz-adv-x="1318" 
d="M873 298q0 33 14.5 62t40.5 51t60.5 34.5t75.5 12.5q37 0 72 -13.5t62 -39t43.5 -62t16.5 -81.5q0 -78 -27.5 -133t-70.5 -90t-96.5 -51t-104.5 -16q-88 0 -162 45.5t-122 141.5q-82 -187 -266 -187q-82 0 -146.5 37.5t-109.5 99t-69 141.5t-24 164q0 130 39.5 231
t105 173.5t151.5 117.5t179 64l-184 190l115 115l181 -277l356 429l113 -111l-340 -341q70 -12 131.5 -37t113.5 -57.5t95 -69t76 -71.5l-56 -57q-42 38 -90 74t-106 64t-127.5 45t-154.5 17q-98 0 -188 -31t-158.5 -89.5t-109.5 -144t-41 -193.5q0 -63 18 -120.5t50 -101.5
t74.5 -70t92.5 -26q44 0 79.5 13t63.5 45t49.5 85.5t37.5 133.5h103q3 -48 17.5 -97t43.5 -89t73.5 -65.5t108.5 -25.5q-54 24 -76.5 67t-22.5 94zM1158 272q0 19 -7.5 35t-20.5 28t-30 18.5t-35 6.5q-25 0 -42.5 -8t-28 -20.5t-15.5 -27.5t-5 -28q0 -26 11 -44t29.5 -29
t43 -16.5t52.5 -5.5q11 0 20 8t15 21t9.5 29.5t3.5 32.5zM684 55q9 -11 22.5 -24t25.5 -28.5t20.5 -32.5t8.5 -34q0 -15 -5.5 -30.5t-16 -28t-27 -20t-38.5 -7.5t-38 7.5t-26 19.5t-15 27.5t-5 31.5q0 17 7.5 33t18 31t22.5 28.5t21 26.5h25z" />
    <glyph glyph-name="te_nna" unicode="&#xc23;" horiz-adv-x="1255" 
d="M637 305q0 -9 -2.5 -37.5t-11.5 -65.5t-27 -77.5t-49 -74.5t-76.5 -56t-110.5 -22q-80 0 -136.5 30.5t-93 80.5t-53.5 113.5t-17 129.5q0 63 15 106.5t37 72t47.5 44.5t46.5 24q-18 4 -43 16t-48 35.5t-39 60.5t-16 90q0 55 22.5 99.5t61.5 75.5t91 47.5t112 16.5
q58 0 98.5 -13t68.5 -34t46.5 -47.5t32.5 -52.5q15 29 37.5 55.5t53.5 47t70.5 32.5t89.5 12q100 0 167 -42.5t108 -111t58.5 -156t17.5 -177.5q0 -35 -2 -89.5t-10.5 -116t-25.5 -124t-46 -112.5t-72.5 -81.5t-105.5 -31.5q-47 0 -88 18t-71.5 55.5t-48 96t-17.5 139.5
q0 61 18.5 111t49.5 85.5t71.5 55t85.5 19.5q30 0 54 -8.5t43.5 -23t34.5 -33t26 -38.5q2 23 3 48t1 53q0 31 -3.5 70.5t-12.5 81t-26 80.5t-44.5 70t-66.5 49.5t-92 18.5q-67 0 -107 -23.5t-61.5 -57.5t-30 -72.5t-12.5 -68.5l-3 -21h-87q0 8 -2 29.5t-8.5 48.5t-19.5 56
t-35.5 53.5t-56 40t-80.5 15.5q-84 0 -135 -34.5t-51 -113.5q0 -65 56 -107.5t166 -42.5v-113q-66 0 -108.5 -14.5t-68 -37.5t-35.5 -52t-10 -58q0 -55 19.5 -88t48 -50.5t61 -23t58.5 -5.5q49 0 79.5 12t49.5 33.5t30 50.5t22 63q0 -1 23.5 -8.5t84.5 -25.5zM929 452
q-48 0 -79.5 -36t-31.5 -99q0 -61 30 -99t75 -38q21 0 41.5 5t39 19t34.5 37.5t28 61.5q-9 23 -20.5 49t-28 48.5t-38 37t-50.5 14.5z" />
    <glyph glyph-name="te_ta" unicode="&#xc24;" horiz-adv-x="1476" 
d="M733 895l-284 295l115 115l181 -277l356 429l113 -111l-355 -360h318q32 -4 53.5 -15.5t36 -26.5t22.5 -31.5t12 -30.5q60 -51 87.5 -132t27.5 -181q0 -143 -53.5 -254.5t-144.5 -187.5t-212 -115.5t-256 -39.5q-146 0 -272 40.5t-219 117.5t-146 189t-53 255
q0 80 22.5 149t64.5 119.5t103.5 79t139.5 28.5q58 0 100 -17t69.5 -48.5t40.5 -75.5t13 -98q0 -50 -21 -87.5t-51.5 -62.5t-66 -37.5t-63.5 -12.5q-40 0 -75.5 14.5t-62.5 41.5t-42.5 65.5t-15.5 86.5q0 27 6 59q-11 -16 -22 -34t-20 -41.5t-14.5 -54.5t-5.5 -73
q0 -104 46 -178.5t126 -122.5t187.5 -71t231.5 -23q67 0 135 8t131 26.5t118 49.5t95.5 77.5t64 110t23.5 147.5q0 37 -3.5 63.5t-10 46.5t-16.5 35.5t-23 30.5q12 -42 12 -77q0 -48 -18.5 -83t-48 -58t-65 -34.5t-68.5 -11.5q-35 0 -72.5 13t-69 39t-51.5 65t-20 92
q0 55 17.5 99.5t52.5 75.5h-200zM965 733q0 -52 28.5 -84t80.5 -32q51 0 82 29.5t31 92.5q0 21 -9.5 41t-25.5 35.5t-37 25t-44 9.5q-19 0 -38 -9t-34 -25t-24.5 -37t-9.5 -46zM513 731q0 16 -6.5 36.5t-19 39t-32.5 31t-47 12.5q-30 0 -50.5 -13t-33.5 -31t-18.5 -37
t-5.5 -32q0 -54 28 -86.5t83 -32.5q48 0 75 29.5t27 83.5z" />
    <glyph glyph-name="te_tha" unicode="&#xc25;" horiz-adv-x="1316" 
d="M566 620q0 39 26.5 65.5t65.5 26.5t65.5 -26.5t26.5 -65.5q0 -38 -26.5 -64.5t-65.5 -26.5t-65.5 26.5t-26.5 64.5zM710 414q16 -80 41 -126.5t55.5 -70.5t65 -30.5t69.5 -6.5q46 0 83.5 16.5t64.5 47t42 73.5t15 97q0 73 -22.5 138.5t-60 121t-86.5 99.5t-103.5 75.5
t-110 48t-105.5 16.5t-105.5 -17.5t-109.5 -50t-103.5 -77.5t-87 -100.5t-59.5 -119.5t-22 -134q0 -42 16 -84t43.5 -75.5t65 -54t81.5 -20.5q29 0 62.5 6.5t65.5 30.5t59 70.5t43 126.5h103zM658 158q-42 -96 -109 -141t-160 -45q-82 0 -143.5 37.5t-103 99t-62 141.5
t-20.5 164q0 112 39.5 208t104.5 170.5t147.5 126t169.5 75.5l-190 196l115 115l181 -277l356 429l113 -111l-341 -342q61 -12 122 -38.5t116.5 -65.5t103.5 -90.5t83.5 -113t55.5 -132.5t20 -150q0 -84 -21 -164t-62 -141.5t-102.5 -99t-143.5 -37.5q-93 0 -160 45
t-109 141zM658 55h11q9 -11 22.5 -24t25.5 -28.5t20.5 -32.5t8.5 -34q0 -15 -5.5 -30.5t-16 -28t-27 -20t-38.5 -7.5t-38 7.5t-26 19.5t-15 27.5t-5 31.5q0 17 7.5 33t18 31t22.5 28.5t21 26.5h14z" />
    <glyph glyph-name="te_da" unicode="&#xc26;" horiz-adv-x="1316" 
d="M658 158q-42 -96 -109 -141t-160 -45q-82 0 -143.5 37.5t-103 99t-62 141.5t-20.5 164q0 112 39.5 208t104.5 170.5t147.5 126t169.5 75.5l-190 196l115 115l181 -277l356 429l113 -111l-341 -342q61 -12 122 -38.5t116.5 -65.5t103.5 -90.5t83.5 -113t55.5 -132.5
t20 -150q0 -84 -21 -164t-62 -141.5t-102.5 -99t-143.5 -37.5q-93 0 -160 45t-109 141zM710 414q16 -80 41 -126.5t55.5 -70.5t65 -30.5t69.5 -6.5q46 0 83.5 16.5t64.5 47t42 73.5t15 97q0 73 -22.5 138.5t-60 121t-86.5 99.5t-103.5 75.5t-110 48t-105.5 16.5
t-105.5 -17.5t-109.5 -50t-103.5 -77.5t-87 -100.5t-59.5 -119.5t-22 -134q0 -42 16 -84t43.5 -75.5t65 -54t81.5 -20.5q29 0 62.5 6.5t65.5 30.5t59 70.5t43 126.5h103z" />
    <glyph glyph-name="te_dha" unicode="&#xc27;" horiz-adv-x="1316" 
d="M710 414q16 -80 41 -126.5t55.5 -70.5t65 -30.5t69.5 -6.5q46 0 83.5 16.5t64.5 47t42 73.5t15 97q0 73 -22.5 138.5t-60 121t-86.5 99.5t-103.5 75.5t-110 48t-105.5 16.5t-105.5 -17.5t-109.5 -50t-103.5 -77.5t-87 -100.5t-59.5 -119.5t-22 -134q0 -42 16 -84
t43.5 -75.5t65 -54t81.5 -20.5q29 0 62.5 6.5t65.5 30.5t59 70.5t43 126.5h103zM658 158q-42 -96 -109 -141t-160 -45q-82 0 -143.5 37.5t-103 99t-62 141.5t-20.5 164q0 112 39.5 208t104.5 170.5t147.5 126t169.5 75.5l-190 196l115 115l181 -277l356 429l113 -111
l-341 -342q61 -12 122 -38.5t116.5 -65.5t103.5 -90.5t83.5 -113t55.5 -132.5t20 -150q0 -84 -21 -164t-62 -141.5t-102.5 -99t-143.5 -37.5q-93 0 -160 45t-109 141zM665 55h11q9 -11 22.5 -24t25.5 -28.5t20.5 -32.5t8.5 -34q0 -15 -5.5 -30.5t-16 -28t-27 -20t-38.5 -7.5
t-38 7.5t-26 19.5t-15 27.5t-5 31.5q0 17 7.5 33t18 31t22.5 28.5t21 26.5h14z" />
    <glyph glyph-name="te_na" unicode="&#xc28;" horiz-adv-x="1235" 
d="M822 -28q-75 0 -127.5 21.5t-88.5 56.5t-60 80t-42.5 91.5t-35 91.5t-37.5 80t-51 56.5t-75 21.5q-29 0 -54.5 -12.5t-44.5 -35t-30.5 -53t-11.5 -65.5q0 -24 5 -52.5t20.5 -58.5t43 -61t72.5 -59l-72 -102q-81 51 -127 131t-46 192q0 55 18 104.5t51 87.5t80 60.5
t105 22.5q60 0 101.5 -17t70.5 -44t49 -62t37.5 -72t36.5 -72t45.5 -62t64 -44t93.5 -17q72 0 122 30.5t81 74t45 92t14 83.5q0 85 -30 155t-80.5 124.5t-116.5 93t-138 60.5l-309 297l115 115l181 -277l356 429l113 -111l-373 -374q88 -32 159 -85.5t121 -121t76.5 -146.5
t26.5 -162q0 -116 -26 -206t-72.5 -152t-111.5 -94.5t-143 -32.5z" />
    <glyph glyph-name="te_pa" unicode="&#xc2a;" horiz-adv-x="1258" 
d="M337 -28q-68 0 -116 25.5t-78.5 68t-45 99t-14.5 118.5q0 57 18 109t51 91.5t80 63t105 23.5q53 0 99 -14.5t81 -45t56 -77.5t24 -111q19 -32 44 -60t55 -48.5t63.5 -32.5t69.5 -12q48 0 86.5 17.5t68.5 45t51 62.5t35 71t20.5 69t6.5 56q0 173 -79.5 281t-226.5 153
l47 90q97 -28 165.5 -81t112 -122.5t63 -152.5t19.5 -171q0 -116 -30.5 -211t-81.5 -162.5t-118.5 -104.5t-140.5 -37q-48 0 -87.5 12.5t-72 33t-58 47.5t-44.5 57q-31 -70 -88.5 -110t-139.5 -40zM362 887l-302 303l115 115l181 -277l356 429l113 -111zM187 321
q0 -27 11 -52.5t31 -45t47.5 -31.5t60.5 -12q36 0 63.5 13.5t47 34t29.5 45.5t10 48q0 32 -10 59.5t-29.5 47.5t-47 31.5t-63.5 11.5q-32 0 -59.5 -10t-47.5 -29.5t-31.5 -47.5t-11.5 -63z" />
    <glyph glyph-name="te_pha" unicode="&#xc2b;" horiz-adv-x="1258" 
d="M337 -28q-68 0 -116 25.5t-78.5 68t-45 99t-14.5 118.5q0 57 18 109t51 91.5t80 63t105 23.5q53 0 99 -14.5t81 -45t56 -77.5t24 -111q19 -32 44 -60t55 -48.5t63.5 -32.5t69.5 -12q48 0 86.5 17.5t68.5 45t51 62.5t35 71t20.5 69t6.5 56q0 173 -79.5 281t-226.5 153
l47 90q97 -28 165.5 -81t112 -122.5t63 -152.5t19.5 -171q0 -116 -30.5 -211t-81.5 -162.5t-118.5 -104.5t-140.5 -37q-48 0 -87.5 12.5t-72 33t-58 47.5t-44.5 57q-31 -70 -88.5 -110t-139.5 -40zM362 887l-302 303l115 115l181 -277l356 429l113 -111zM187 321
q0 -27 11 -52.5t31 -45t47.5 -31.5t60.5 -12q36 0 63.5 13.5t47 34t29.5 45.5t10 48q0 32 -10 59.5t-29.5 47.5t-47 31.5t-63.5 11.5q-32 0 -59.5 -10t-47.5 -29.5t-31.5 -47.5t-11.5 -63zM568 55h11q9 -11 22.5 -24t25.5 -28.5t20.5 -32.5t8.5 -34q0 -15 -5.5 -30.5
t-16 -28t-27 -20t-38.5 -7.5t-38 7.5t-26 19.5t-15 27.5t-5 31.5q0 17 7.5 33t18 31t22.5 28.5t21 26.5h14z" />
    <glyph glyph-name="te_ba" unicode="&#xc2c;" horiz-adv-x="1449" 
d="M128 595q-34 33 -51 79t-17 88q0 60 24 106.5t62 78.5t86 48.5t96 16.5q61 0 110 -20t83.5 -55t53.5 -83t19 -103q0 -66 -32 -112.5t-79.5 -81t-103.5 -62.5t-103.5 -56.5t-79.5 -62.5t-32 -81q0 -26 11.5 -48.5t30.5 -40t42 -27.5t47 -10q66 0 119 24.5t95 65t73 94
t53 111.5h99q7 -48 31.5 -100t62.5 -95.5t87 -71.5t105 -28q48 0 86.5 17.5t68.5 45t51 62.5t35 71t20.5 69t6.5 56q0 173 -79.5 281t-226.5 153l47 90q97 -28 165.5 -81t112 -122.5t63 -152.5t19.5 -171q0 -116 -30.5 -211t-81.5 -162.5t-118.5 -104.5t-140.5 -37
q-58 0 -103.5 17.5t-80.5 45.5t-61 63.5t-44.5 72t-30 70t-18.5 57.5q-9 -25 -23 -58.5t-34.5 -69.5t-48 -71.5t-63 -63.5t-80 -45.5t-98.5 -17.5q-68 0 -119 23t-85 61.5t-51.5 87.5t-17.5 102q0 78 32 131.5t80.5 92.5t104.5 69.5t104.5 61.5t80.5 67.5t32 89.5
q0 30 -15 55t-39 43t-54 28t-60 10q-37 0 -67 -12.5t-51 -31.5t-32.5 -41t-11.5 -40q0 -26 12 -56t35 -57z" />
    <glyph glyph-name="te_bha" unicode="&#xc2d;" horiz-adv-x="1463" 
d="M978 922l-264 268l115 115l181 -277l356 429l113 -111l-364 -365q73 -35 125 -88t85 -117.5t48.5 -138.5t15.5 -150q0 -116 -30.5 -211t-81.5 -162.5t-118.5 -104.5t-140.5 -37q-58 0 -103.5 17.5t-80.5 45.5t-61 63.5t-44.5 72t-30 70t-18.5 57.5q-9 -25 -23 -58.5
t-34.5 -69.5t-48 -71.5t-63 -63.5t-80 -45.5t-98.5 -17.5q-68 0 -119 23t-85 61.5t-51.5 87.5t-17.5 102q0 78 32 131.5t80.5 92.5t104.5 69.5t104.5 61.5t80.5 67.5t32 89.5q0 30 -15 55t-39 43t-54 28t-60 10q-37 0 -67 -12.5t-51 -31.5t-32.5 -41t-11.5 -40q0 -26 12 -56
t35 -57l-83 -61q-34 33 -51 79t-17 88q0 60 24 106.5t62 78.5t86 48.5t96 16.5q61 0 110 -20t83.5 -55t53.5 -83t19 -103q0 -66 -32 -112.5t-79.5 -81t-103.5 -62.5t-103.5 -56.5t-79.5 -62.5t-32 -81q0 -26 11.5 -48.5t30.5 -40t42 -27.5t47 -10q66 0 119 24.5t95 65t73 94
t53 111.5h99q7 -48 31.5 -100t62.5 -95.5t87 -71.5t105 -28q48 0 86.5 17.5t68.5 45t51 62.5t35 71t20.5 69t6.5 56q0 172 -79 280t-226 153zM679 55h11q9 -11 22.5 -24t25.5 -28.5t20.5 -32.5t8.5 -34q0 -15 -5.5 -30.5t-16 -28t-27 -20t-38.5 -7.5t-38 7.5t-26 19.5
t-15 27.5t-5 31.5q0 17 7.5 33t18 31t22.5 28.5t21 26.5h14z" />
    <glyph glyph-name="te_ma" unicode="&#xc2e;" horiz-adv-x="1885" 
d="M314 570q47 0 89.5 -12t76 -36.5t57 -62t32.5 -88.5q18 -39 44 -75t59 -64.5t72 -45.5t82 -17q73 0 124 28.5t83 72t46.5 96t14.5 101.5q0 92 -35.5 167.5t-92 134t-128 99t-143.5 62.5l-37 -35l-302 303l115 115l181 -277l356 429l113 -111l-344 -345q90 -32 167 -86
t132.5 -125.5t87 -157t31.5 -181.5q0 -19 -1 -37t-3 -35q16 -41 42.5 -80t60.5 -70t75 -49.5t87 -18.5q73 0 124 28.5t83 72t46.5 96t14.5 101.5q0 93 -35.5 168.5t-93 134t-129.5 99t-144 62.5l47 90q97 -28 180.5 -81.5t144.5 -127t96 -163.5t35 -190q0 -116 -30.5 -206.5
t-81.5 -153t-118.5 -95t-140.5 -32.5q-65 0 -115 22t-87 56t-62.5 75.5t-42.5 81.5q-24 -57 -59 -101t-77 -73.5t-90 -45t-97 -15.5q-52 0 -94.5 14.5t-76 38t-59.5 54t-45 63.5q-29 -79 -88 -124.5t-147 -45.5q-68 0 -116 25.5t-78.5 68t-45 99t-14.5 118.5q0 57 18 109
t51 91.5t80 63t105 23.5zM164 321q0 -27 11 -52.5t31 -45t47.5 -31.5t60.5 -12q36 0 63.5 13.5t47 34t29.5 45.5t10 48q0 32 -10 59.5t-29.5 47.5t-47 31.5t-63.5 11.5q-32 0 -59.5 -10t-47.5 -29.5t-31.5 -47.5t-11.5 -63z" />
    <glyph glyph-name="te_ya" unicode="&#xc2f;" horiz-adv-x="2426" 
d="M60 512q0 99 35.5 190t101.5 160.5t160 111t211 41.5q109 0 202.5 -39.5t161 -108t106 -161.5t38.5 -201q0 -19 -1 -37.5t-3 -36.5q12 -46 37.5 -92.5t62 -84t82 -61.5t97.5 -24q48 0 86.5 17.5t68.5 45t51 62.5t35 71t20.5 69t6.5 56q0 85 -18.5 155t-61.5 128
t-113 104.5t-172 84.5l-232 228l115 115l181 -277l356 429l113 -111l-357 -358q78 -34 133 -87t90 -118.5t51 -141t16 -154.5q0 -11 -1 -27t-1 -29q12 -46 37.5 -92.5t62 -84t82 -61.5t97.5 -24q48 0 86.5 17.5t68.5 45t51 62.5t35 71t20.5 69t6.5 56q0 173 -79.5 281
t-226.5 153l47 90q97 -28 165.5 -81t112 -122.5t63 -152.5t19.5 -171q0 -116 -30.5 -211t-81.5 -162.5t-118.5 -104.5t-140.5 -37q-72 0 -125 26t-91 65.5t-63 86t-40 87.5q-24 -62 -59 -111t-77.5 -83.5t-91 -52.5t-99.5 -18q-75 0 -130 28.5t-93.5 71.5t-63 92.5
t-38.5 90.5q-30 -65 -75 -117.5t-103 -89t-128 -56.5t-150 -20q-102 0 -194 37.5t-162 108t-111 170t-41 224.5zM186 546q0 -100 36 -169.5t91.5 -113t123.5 -63.5t131 -20q70 0 138.5 26.5t122.5 74.5t87 114.5t33 146.5q0 76 -31 142.5t-83.5 115.5t-121.5 77t-145 28
q-68 0 -136 -24.5t-123 -70.5t-89 -112.5t-34 -151.5z" />
    <glyph glyph-name="te_ra" unicode="&#xc30;" horiz-adv-x="1136" 
d="M60 512q0 86 27 166.5t77.5 146.5t123.5 113t165 66l-181 186l115 115l181 -277l356 429l113 -111l-345 -346q85 -20 155.5 -65.5t121.5 -110t79 -146t28 -173.5q0 -116 -37 -214t-103.5 -169t-160 -110.5t-207.5 -39.5q-102 0 -194 37.5t-162 108t-111 170t-41 224.5z
M186 546q0 -100 36 -169.5t91.5 -113t123.5 -63.5t131 -20q70 0 138.5 26.5t122.5 74.5t87 114.5t33 146.5q0 76 -31 142.5t-83.5 115.5t-121.5 77t-145 28q-68 0 -136 -24.5t-123 -70.5t-89 -112.5t-34 -151.5z" />
    <glyph glyph-name="te_rra" unicode="&#xc31;" horiz-adv-x="1490" 
d="M511 801q0 19 -4.5 38.5t-15.5 35t-30 25t-48 9.5q-23 0 -41 -9t-30 -24t-18 -33.5t-6 -37.5q0 -23 6.5 -44.5t19 -37.5t31 -25.5t43.5 -9.5q40 0 66.5 29.5t26.5 83.5zM1430 582q0 -128 -28.5 -239.5t-78.5 -194t-119 -129.5t-151 -47q-109 0 -180 45.5t-103 141.5
q-32 -96 -105.5 -141.5t-182.5 -45.5q-104 0 -183 51.5t-132 134.5t-80 187.5t-27 210.5q0 81 21 163t63 147.5t104 106.5t144 41q58 0 100 -16t69.5 -45t41 -69t13.5 -89q0 -57 -20 -96t-50 -63t-64 -35t-62 -11q-39 0 -73.5 14t-60 40.5t-40.5 64t-15 85.5v13.5t1 14.5
q-13 -15 -25 -40t-21.5 -56.5t-15.5 -66.5t-6 -69q0 -39 5 -84.5t18.5 -91t37 -88t59 -75t85.5 -52t117 -19.5q97 0 153.5 45.5t83.5 119.5h106q14 -34 39 -64t56.5 -52.5t66.5 -35.5t68 -13q79 0 130.5 37.5t81.5 97.5t42 135.5t12 150.5q0 29 -5.5 63t-17 68.5t-28 66.5
t-39.5 56.5t-52 39.5t-64 15q-72 0 -109.5 -44t-37.5 -116q0 -42 19.5 -74.5t49 -57.5t65 -42t67.5 -27l-26 -123h-707v100h570q-29 10 -60.5 29.5t-58.5 50t-44.5 72.5t-17.5 97q0 37 14.5 79t46 77.5t82 59t121.5 23.5q93 0 157.5 -41t104 -104.5t57.5 -140t18 -146.5z
" />
    <glyph glyph-name="te_la" unicode="&#xc32;" horiz-adv-x="1374" 
d="M474 790q0 16 -3 36.5t-12.5 39t-27.5 31t-48 12.5q-23 0 -39.5 -10.5t-27 -26.5t-15 -35t-4.5 -36t5 -35.5t16.5 -33.5t29 -24.5t42.5 -9.5q40 0 62 27.5t22 64.5zM1026 1014q81 -23 136 -69.5t88.5 -106t48.5 -126.5t15 -130q0 -129 -45 -240.5t-126.5 -193.5
t-195.5 -129t-251 -47q-154 0 -272.5 51.5t-199.5 139t-122.5 203.5t-41.5 245q0 81 24 154.5t67 128.5t101 87.5t126 32.5q94 0 146.5 -60t52.5 -162q0 -57 -17.5 -97t-44 -66t-58.5 -38t-62 -12q-36 0 -69.5 12t-59 36t-40.5 60.5t-15 86.5q0 20 3 44q-20 -27 -34 -76
t-14 -109q0 -95 31 -178t96 -144t166 -96t241 -35q96 0 171 19t132 51.5t96.5 74.5t64.5 88.5t36 93.5t11 90q0 72 -17.5 126t-47 92t-68.5 61t-82 33z" />
    <glyph glyph-name="te_lla" unicode="&#xc33;" horiz-adv-x="1366" 
d="M1061 977q44 -29 72 -60.5t43.5 -64.5t21.5 -66t6 -64q0 -60 -20.5 -123.5t-69.5 -118t-132 -95.5t-207 -57q32 -26 51.5 -63t19.5 -82q0 -48 -18.5 -86t-48.5 -63.5t-68.5 -39t-78.5 -13.5q-41 0 -80 14t-69 40t-48.5 63.5t-18.5 84.5q0 42 21.5 80t56.5 66
q-87 11 -153 35.5t-114 57.5t-80 71t-51.5 76t-27.5 73t-8 62q0 81 26.5 140t68.5 96.5t92.5 55.5t98.5 18q115 0 170.5 -52.5t55.5 -137.5q0 -56 -16.5 -92t-44 -57t-62.5 -29.5t-71 -8.5q-30 0 -61.5 10.5t-57 33t-41.5 56.5t-16 82v12t1 13q-21 -20 -30.5 -50.5
t-9.5 -81.5q0 -50 23.5 -89t62.5 -68t89 -49t103.5 -32.5t106 -18t96.5 -5.5q97 0 168.5 13t122 34.5t82.5 50t50 59.5t25 62.5t7 59.5q0 72 -38.5 122.5t-110.5 69.5l-270 269l115 115l181 -277l356 429l113 -111zM469 839q0 16 -8 30.5t-20.5 25t-29 17t-33.5 6.5
q-24 0 -41 -8t-28.5 -21t-17 -29.5t-5.5 -33.5q0 -34 21 -60t71 -26q28 0 45.5 8t27.5 21.5t14 31.5t4 38zM555 222q0 -14 3.5 -28.5t12 -27t22 -20.5t34.5 -8q23 0 39 7.5t26 19.5t14.5 27t4.5 29t-6 27.5t-16.5 24t-25 17t-30.5 6.5q-17 0 -31 -6.5t-24.5 -17t-16.5 -24
t-6 -26.5z" />
    <glyph glyph-name="te_va" unicode="&#xc35;" horiz-adv-x="1235" 
d="M314 570q53 0 99 -14.5t81 -45t56 -77.5t24 -111q19 -32 46.5 -58t59.5 -45t66 -29t66 -10q66 0 115 21t81.5 56t49 80.5t16.5 94.5q0 62 -18.5 116.5t-51 101t-75 85.5t-91 69.5t-99.5 53t-99 37.5l-304 303l115 115l181 -277l356 429l113 -111l-379 -380
q91 -31 173.5 -84.5t144.5 -125t98.5 -157.5t36.5 -182q0 -116 -30.5 -201t-81.5 -141t-118.5 -83.5t-140.5 -27.5q-48 0 -87.5 12.5t-72 33t-58 47.5t-44.5 57q-31 -70 -88.5 -110t-139.5 -40q-68 0 -116 25.5t-78.5 68t-45 99t-14.5 118.5q0 57 18 109t51 91.5t80 63
t105 23.5zM164 321q0 -27 11 -52.5t31 -45t47.5 -31.5t60.5 -12q36 0 63.5 13.5t47 34t29.5 45.5t10 48q0 32 -10 59.5t-29.5 47.5t-47 31.5t-63.5 11.5q-32 0 -59.5 -10t-47.5 -29.5t-31.5 -47.5t-11.5 -63z" />
    <glyph glyph-name="te_sha" unicode="&#xc36;" horiz-adv-x="926" 
d="M110 352q-7 10 -15.5 27.5t-16 39.5t-13 46t-5.5 47q0 42 16.5 81t52.5 69t92 48.5t135 18.5q85 0 171 -34t158 -97q20 22 32 49.5t12 64.5q0 41 -19 78.5t-53.5 65.5t-83.5 44.5t-109 16.5v48l-216 225l115 115l181 -277l356 429l113 -111l-370 -369q40 -17 75.5 -42.5
t62 -59t41.5 -75.5t15 -92q0 -57 -24 -101t-62 -79q45 -58 71.5 -128.5t26.5 -154.5q0 -54 -21 -103t-58 -87t-88 -60.5t-110 -22.5q-78 0 -135 24.5t-94.5 61.5t-56 80t-18.5 81q0 75 30.5 123t77.5 81t102.5 56.5t106.5 49.5q-48 42 -105.5 68t-112.5 26q-53 0 -90.5 -10
t-61 -26.5t-34 -38t-10.5 -44.5q0 -28 9.5 -51t26.5 -50zM697 333q0 30 -12 61.5t-33 61.5q-45 -27 -90.5 -50.5t-81.5 -47t-59 -49t-23 -56.5q0 -42 36.5 -69.5t94.5 -27.5q87 0 127.5 44.5t40.5 132.5z" />
    <glyph glyph-name="te_ssa" unicode="&#xc37;" horiz-adv-x="1241" 
d="M314 570q53 0 99 -14.5t81 -45t56 -77.5t24 -111q19 -32 44 -60t55 -48.5t63.5 -32.5t69.5 -12q48 0 86.5 17.5t68.5 45t51 62.5t35 71t20.5 69t6.5 56q0 173 -79.5 281t-226.5 153l47 90q97 -28 165.5 -81t112 -122.5t63 -152.5t19.5 -171q0 -149 -47.5 -260
t-123.5 -177q7 -26 18 -53t25 -37q14 -17 32.5 -32t37.5 -27t36 -20t28 -11l-62 -93q-81 31 -136.5 89t-72.5 127q-26 -10 -52.5 -15.5t-53.5 -5.5q-48 0 -87.5 12.5t-72 33t-58 47.5t-44.5 57q-31 -70 -88.5 -110t-139.5 -40q-68 0 -116 25.5t-78.5 68t-45 99t-14.5 118.5
q0 57 18 109t51 91.5t80 63t105 23.5zM362 887l-302 303l115 115l181 -277l356 429l113 -111zM164 321q0 -27 11 -52.5t31 -45t47.5 -31.5t60.5 -12q36 0 63.5 13.5t47 34t29.5 45.5t10 48q0 32 -10 59.5t-29.5 47.5t-47 31.5t-63.5 11.5q-32 0 -59.5 -10t-47.5 -29.5
t-31.5 -47.5t-11.5 -63z" />
    <glyph glyph-name="te_sa" unicode="&#xc38;" horiz-adv-x="1235" 
d="M362 887l-302 303l115 115l181 -277l356 429l113 -111zM822 -28q-75 0 -127.5 21.5t-88.5 56.5t-60 80t-42.5 91.5t-35 91.5t-37.5 80t-51 56.5t-75 21.5q-29 0 -54.5 -12.5t-44.5 -35t-30.5 -53t-11.5 -65.5q0 -24 5 -52.5t20.5 -58.5t43 -61t72.5 -59l-72 -102
q-81 51 -127 131t-46 192q0 55 18 104.5t51 87.5t80 60.5t105 22.5q60 0 101.5 -17t70.5 -44t49 -62t37.5 -72t36.5 -72t45.5 -62t64 -44t93.5 -17q72 0 122 35t81 84.5t45 102t14 88.5q0 173 -79.5 281t-226.5 153l47 90q97 -28 165.5 -81t112 -122.5t63 -152.5t19.5 -171
q0 -116 -26 -211t-72.5 -162.5t-111.5 -104.5t-143 -37z" />
    <glyph glyph-name="te_ha" unicode="&#xc39;" horiz-adv-x="1839" 
d="M1269 904h-280q100 -76 154.5 -187.5t54.5 -255.5q0 -116 -30.5 -207t-81.5 -153.5t-118.5 -95.5t-140.5 -33q-48 0 -87.5 12.5t-72 33t-58 47.5t-44.5 57q-31 -70 -88.5 -110t-139.5 -40q-68 0 -116 25.5t-78.5 68t-45 99t-14.5 118.5q0 57 18 109t51 91.5t80 63
t105 23.5q53 0 99 -14.5t81 -45t56 -77.5t24 -111q19 -32 44 -60t55 -48.5t63.5 -32.5t69.5 -12q72 0 123 33t83 79.5t47 97t15 85.5q0 95 -31.5 170.5t-84 132.5t-120 96t-140.5 61l46 90h753q68 0 117 -20.5t80.5 -54.5t46.5 -78t15 -91q0 -40 -16 -78.5t-47.5 -69
t-77.5 -49.5t-105 -19q-50 0 -95 16t-79.5 43.5t-54.5 65t-20 81.5q0 57 16 90.5t44 53.5h-75zM362 887l-302 303l115 115l181 -277l356 429l113 -111zM187 321q0 -27 11 -52.5t31 -45t47.5 -31.5t60.5 -12q36 0 63.5 13.5t47 34t29.5 45.5t10 48q0 32 -10 59.5t-29.5 47.5
t-47 31.5t-63.5 11.5q-32 0 -59.5 -10t-47.5 -29.5t-31.5 -47.5t-11.5 -63zM1400 778q0 -20 7.5 -40t23.5 -36.5t42 -27t62 -10.5q28 0 50.5 10t38.5 26.5t24 37t8 42.5q0 33 -10.5 56.5t-28 39t-40.5 22.5t-48 7q-32 0 -56.5 -11.5t-40.5 -30t-24 -41t-8 -44.5z" />
    <glyph glyph-name="te_avagraha" unicode="&#xc3d;" horiz-adv-x="1421" 
d="M909 0q-187 0 -319.5 10.5t-217 36.5t-123.5 71t-39 113q0 55 30 92t79 62.5t112 41t128.5 26.5t128.5 20.5t112 21.5t79 29.5t30 45.5q0 20 -22.5 35t-60 25.5t-85.5 17t-98.5 10t-99 5t-87.5 1.5h-396v110h352q129 0 224.5 -6t163 -18t110 -30t67 -42t33.5 -53t9 -64
q0 -52 -30 -87t-79 -58t-112 -36.5t-128.5 -23.5t-128.5 -19t-112 -22t-79 -33.5t-30 -53.5q0 -30 39 -50t98.5 -33t131 -20t137 -10.5t116 -4t67.5 -0.5h452v-110h-452z" />
    <glyph glyph-name="te_matra_aa" unicode="&#xc3e;" horiz-adv-x="1604" 
d="M60 1550v100h1194q78 0 133.5 -21.5t90 -58.5t50.5 -86t16 -104t-18 -101t-51.5 -79t-80 -51.5t-103.5 -18.5q-56 0 -102.5 18.5t-80 51t-52.5 77t-19 95.5q0 57 20 104.5t62 73.5h-1059zM1147 1397q0 -26 10.5 -49t29 -40.5t45 -28t59.5 -10.5t59 10.5t44 28.5t27.5 41
t9.5 48q0 66 -40 104.5t-107 38.5q-29 0 -54 -10.5t-43.5 -29.5t-29 -45.5t-10.5 -57.5z" />
    <glyph glyph-name="te_matra_i" unicode="&#xc3f;" horiz-adv-x="693" 
d="M364 1131q-37 0 -70.5 13t-59.5 37t-41.5 58t-15.5 77q0 37 13.5 72.5t39.5 63t63.5 44t85.5 16.5q53 0 99 -20.5t80.5 -57.5t54.5 -88t20 -111q0 -55 -19 -106.5t-55.5 -91t-89.5 -63.5t-120 -24q-69 0 -120 23t-86.5 54t-56 62.5t-26.5 47.5l64 62q33 -69 86.5 -111.5
t138.5 -42.5q46 0 81.5 17t59.5 44t37 61.5t14 69.5q-32 -53 -78 -79.5t-99 -26.5zM385 1413q-21 0 -40.5 -5.5t-34.5 -17.5t-24 -29.5t-9 -41.5q0 -39 26 -62t61 -23q37 0 61.5 13t40 32t24 39.5t13.5 35.5q-24 30 -56.5 44.5t-61.5 14.5z" />
    <glyph glyph-name="te_matra_ii" unicode="&#xc40;" horiz-adv-x="684" 
d="M288 951q-80 0 -137 30.5t-91 81.5l79 46q23 -29 60.5 -46t88.5 -17q46 0 81 14.5t58 37.5t34.5 51t11.5 55q0 44 -13.5 74.5t-38.5 47.5q8 -21 11 -39t3 -34q0 -36 -15 -60.5t-36 -39.5t-43.5 -21.5t-37.5 -6.5q-37 0 -66.5 11.5t-49.5 32.5t-31 50t-11 63q0 37 13.5 66
t36.5 49.5t53.5 32t64.5 13.5q0 34 11.5 61t31 45.5t46 28t56.5 9.5q71 0 116.5 -45.5t49.5 -122.5l-62 -25q-1 24 -8 45t-20 37t-32 25.5t-45 9.5q-32 0 -52 -15.5t-20 -58.5q40 -9 72.5 -30.5t56 -51.5t36 -67.5t12.5 -77.5q0 -49 -17.5 -95.5t-52 -83t-86 -58.5
t-118.5 -22zM295 1228q26 0 43 15t17 45q0 3 -1 13.5t-4 21.5t-8 19.5t-13 8.5q-11 0 -25.5 -2t-28.5 -9.5t-23.5 -21t-9.5 -36.5q0 -26 16.5 -40t36.5 -14z" />
    <glyph glyph-name="te_matra_u" unicode="&#xc41;" horiz-adv-x="858" 
d="M60 353q0 31 10.5 50t24.5 19q7 0 15 -5q13 -43 41 -85.5t66 -76t82.5 -54.5t91.5 -21q62 0 108.5 16t79 42t53.5 58.5t33 66t16.5 65t4.5 55.5q0 85 -30 156.5t-80 127.5t-116 95.5t-139 61.5l47 90q97 -28 176.5 -82t136 -125t87 -155t30.5 -172q0 -116 -26.5 -210
t-76.5 -160t-121 -102t-161 -36q-62 0 -110.5 21t-86 55t-65 76.5t-46 84.5t-29.5 80.5t-16 63.5z" />
    <glyph glyph-name="te_matra_uu" unicode="&#xc42;" horiz-adv-x="1436" 
d="M60 353q0 31 10.5 50t24.5 19q7 0 15 -5q13 -43 41 -85.5t66 -76t82.5 -54.5t91.5 -21q62 0 108.5 16t79 42t53.5 58.5t33 66t16.5 65t4.5 55.5q0 85 -30 156.5t-80 127.5t-116 95.5t-139 61.5l45 86l-2 4h753q68 0 117 -20.5t80.5 -54.5t46.5 -78t15 -91
q0 -40 -16 -78.5t-47.5 -69t-77.5 -49.5t-105 -19q-50 0 -95 16t-79.5 43.5t-54.5 65t-20 81.5q0 57 16 90.5t44 53.5h-359q51 -40 91 -88.5t67.5 -103t42.5 -113.5t15 -119q0 -116 -26.5 -210t-76.5 -160t-121 -102t-161 -36q-62 0 -110.5 21t-86 55t-65 76.5t-46 84.5
t-29.5 80.5t-16 63.5zM997 778q0 -20 7.5 -40t23.5 -36.5t42 -27t62 -10.5q28 0 50.5 10t38.5 26.5t24 37t8 42.5q0 33 -10.5 56.5t-28 39t-40.5 22.5t-48 7q-32 0 -56.5 -11.5t-40.5 -30t-24 -41t-8 -44.5z" />
    <glyph glyph-name="te_matra_r" unicode="&#xc43;" horiz-adv-x="976" 
d="M472 -434q85 0 147.5 33.5t103.5 90t61.5 129.5t20.5 153q0 107 -27.5 209t-72.5 194.5t-103 174.5t-118 149.5t-117.5 119.5t-102.5 85l75 110q115 -99 219.5 -214.5t184 -247t126.5 -277t47 -303.5q0 -110 -24 -215.5t-76 -188t-135 -132.5t-200 -50q-89 0 -165.5 33.5
t-133.5 90.5t-89.5 133t-32.5 161q0 63 19.5 118t54.5 96t82.5 64.5t104.5 23.5q43 0 80 -15.5t64 -42.5t42 -65t15 -83q0 -48 -15 -85.5t-41 -64t-61 -40.5t-75 -14q-58 0 -96.5 27.5t-62.5 65.5q6 -56 33 -97.5t68.5 -69.5t93 -42t106.5 -14zM308 -195q31 0 51.5 6.5
t32 17.5t16 25t4.5 29q0 38 -30.5 63.5t-77.5 25.5q-12 0 -28.5 -4t-33 -13.5t-32 -24.5t-25.5 -37q19 -34 49 -61t74 -27z" />
    <glyph glyph-name="te_matra_rr" unicode="&#xc44;" horiz-adv-x="1613" 
d="M1232 1014q85 0 146 -20.5t100 -56.5t57 -85.5t18 -107.5q0 -55 -19.5 -101t-56 -79t-89 -51.5t-118.5 -18.5q-65 0 -118.5 18t-91.5 51t-58.5 79t-20.5 102q0 57 23.5 98.5t51.5 61.5h-597q95 -93 178.5 -199t145.5 -223t97.5 -245t35.5 -265q0 -110 -24 -215.5
t-76 -188t-135 -132.5t-200 -50q-89 0 -165.5 33.5t-133.5 90.5t-89.5 133t-32.5 161q0 63 19.5 118t54.5 96t82.5 64.5t104.5 23.5q43 0 80 -15.5t64 -42.5t42 -65t15 -83q0 -48 -15 -85.5t-41 -64t-61 -40.5t-75 -14q-58 0 -96.5 27.5t-62.5 65.5q6 -56 33 -97.5
t68.5 -69.5t93 -42t106.5 -14q85 0 147.5 33.5t103.5 90t61.5 129.5t20.5 153q0 107 -27.5 209t-72.5 194.5t-103 174.5t-118 149.5t-117.5 119.5t-102.5 85l75 110h893zM1123 761q0 -26 10 -49t28.5 -40.5t44 -28t57.5 -10.5q34 0 60.5 10.5t44 28.5t26.5 41t9 48
q0 66 -36 104.5t-102 38.5q-32 0 -58.5 -10.5t-45 -29.5t-28.5 -45.5t-10 -57.5zM308 -195q31 0 51.5 6.5t32 17.5t16 25t4.5 29q0 38 -30.5 63.5t-77.5 25.5q-12 0 -28.5 -4t-33 -13.5t-32 -24.5t-25.5 -37q19 -34 49 -61t74 -27z" />
    <glyph glyph-name="te_matra_e" unicode="&#xc46;" horiz-adv-x="962" 
d="M60 1347h636q50 0 88.5 -13t64.5 -35.5t39.5 -52t13.5 -62.5q0 -36 -12.5 -67t-38 -54t-64.5 -36t-92 -13h-155v100h145q20 0 40 2.5t35.5 10t25.5 20.5t10 35q0 31 -27.5 48t-71.5 17h-637v100z" />
    <glyph glyph-name="te_matra_ee" unicode="&#xc47;" horiz-adv-x="962" 
d="M60 1347h583q-36 45 -36 91q0 25 9.5 46t27 37t41 25t51.5 9q71 0 116.5 -45.5t49.5 -122.5l-62 -25q-1 24 -9 45t-22 37.5t-33 26t-42 9.5q-24 0 -39 -14.5t-15 -38.5q0 -17 8 -37.5t28 -43.5q45 -3 79.5 -17t58.5 -36t36 -50t12 -59q0 -36 -12.5 -67t-38 -54t-64.5 -36
t-92 -13h-155v100h145q20 0 40 2.5t35.5 10t25.5 20.5t10 35q0 31 -27.5 48t-71.5 17h-637v100z" />
    <glyph glyph-name="te_matra_ai" unicode="&#xc48;" horiz-adv-x="1632" 
d="M60 1393h1151q61 0 103 -18t68 -45.5t37.5 -60.5t11.5 -63q0 -42 -14 -77.5t-43 -61t-73.5 -39.5t-105.5 -14h-149v111h145q20 0 40 2.5t36 11t26 23.5t10 40q0 16 -7.5 31.5t-21 27t-32 18.5t-39.5 7h-1143v107zM1572 -602v-100h-1194q-78 0 -133.5 21.5t-90 58.5
t-50.5 86t-16 104t18 101t51.5 79t80 51.5t103.5 18.5q55 0 102 -18.5t80.5 -51t52.5 -77t19 -95.5q0 -57 -20 -104.5t-62 -73.5h1059zM485 -449q0 26 -10.5 49t-29 40.5t-45 28t-59.5 10.5t-59 -10.5t-44 -28.5t-27.5 -41t-9.5 -48q0 -66 40 -104.5t107 -38.5q29 0 54 10.5
t43.5 29.5t29 45t10.5 58z" />
    <glyph glyph-name="te_matra_o" unicode="&#xc4a;" horiz-adv-x="1138" 
d="M746 1250q-57 0 -91 -21.5t-53 -53.5t-25 -70t-6 -72h-99q0 33 -8.5 71t-29 70.5t-54 54t-84.5 21.5q-44 0 -71 -13.5t-41.5 -32.5t-19.5 -39.5t-5 -33.5q0 -24 4.5 -43t11 -33t12.5 -24t9 -17h-105q-14 26 -22.5 56t-8.5 62q0 55 19 96t52.5 68.5t79 41t97.5 13.5
q51 0 86 -15t59 -37.5t38.5 -49t23.5 -48.5q8 23 21.5 49t40 48.5t69.5 37.5t111 15h91q68 0 112.5 -17.5t70.5 -44.5t36.5 -60t10.5 -63q0 -33 -10 -66t-32.5 -59.5t-58.5 -43t-89 -16.5q-29 0 -62 7.5t-61 25t-46.5 46.5t-18.5 73q0 48 18.5 75.5t40.5 41.5h-13zM798 1164
q0 -33 25 -58.5t67 -25.5q37 0 63 22.5t26 67.5q0 46 -26 63.5t-63 17.5q-46 0 -69 -24t-23 -63z" />
    <glyph glyph-name="te_matra_oo" unicode="&#xc4b;" horiz-adv-x="1138" 
d="M746 1250q-57 0 -91 -21.5t-53 -53.5t-25 -70t-6 -72h-99q0 33 -8.5 71t-29 70.5t-54 54t-84.5 21.5q-44 0 -71 -13.5t-41.5 -32.5t-19.5 -39.5t-5 -33.5q0 -24 4.5 -43t11 -33t12.5 -24t9 -17h-105q-14 26 -22.5 56t-8.5 62q0 55 19 96t52.5 68.5t79 41t97.5 13.5
q51 0 86 -15t59 -37.5t38.5 -49t23.5 -48.5q8 23 21.5 49t40 48.5t69.5 37.5t111 15h30q-30 40 -30 83q0 24 10 45.5t27.5 37.5t41 25t51.5 9q71 0 116.5 -45.5t49.5 -122.5l-62 -25q-1 24 -9 45t-22 37.5t-33 26t-42 9.5q-24 0 -39 -14.5t-15 -38.5q0 -15 6.5 -33.5
t22.5 -38.5q64 -2 106.5 -20t67 -45t34.5 -58.5t10 -61.5q0 -33 -10 -66t-32.5 -59.5t-58.5 -43t-89 -16.5q-29 0 -62 7.5t-61 25t-46.5 46.5t-18.5 73q0 48 18.5 75.5t40.5 41.5h-13zM798 1164q0 -33 25 -58.5t67 -25.5q37 0 63 22.5t26 67.5q0 46 -26 63.5t-63 17.5
q-46 0 -69 -24t-23 -63z" />
    <glyph glyph-name="te_matra_au" unicode="&#xc4c;" horiz-adv-x="1277" 
d="M60 1247h927q68 0 112.5 -17.5t70.5 -44.5t36.5 -60t10.5 -63q0 -33 -10 -66t-32.5 -59.5t-58.5 -43t-89 -16.5q-29 0 -62 7.5t-61 25t-46.5 46.5t-18.5 73q0 48 19.5 76t41.5 42h-204q28 -13 41.5 -38.5t13.5 -49.5q0 -72 -53.5 -109.5t-160.5 -37.5h-285v102h275
q20 0 41 3t38.5 11t28.5 20.5t11 32.5q0 23 -18.5 41.5t-44.5 24.5h-523v100zM937 1060q0 -33 25 -58.5t67 -25.5q37 0 63 22.5t26 67.5q0 46 -26 63.5t-63 17.5q-46 0 -69 -24t-23 -63z" />
    <glyph glyph-name="te_virama" unicode="&#xc4d;" horiz-adv-x="874" 
d="M222 914q-34 0 -63.5 11t-51.5 30.5t-34.5 47.5t-12.5 61q0 46 25.5 85t74.5 56q-53 20 -76.5 57t-23.5 93q0 37 15 68.5t42.5 54.5t65.5 36t85 13h546v-100h-544q-54 0 -82 -23.5t-28 -65.5q0 -23 9 -39.5t23 -27t31 -15t33 -4.5h282v-100h-320q-21 -1 -39.5 -20.5
t-18.5 -50.5q0 -29 21 -48t54 -19h186v-100h-199z" />
    <glyph glyph-name="te_vocalic_rr" unicode="&#xc60;" horiz-adv-x="3400" 
d="M2525 904q42 -39 72.5 -86.5t50 -101t28.5 -111.5t9 -118q0 -116 -30.5 -211t-81.5 -162.5t-118.5 -104.5t-140.5 -37q-72 0 -125 26t-91 65.5t-63 86t-40 87.5q-24 -62 -59 -111t-77.5 -83.5t-91 -52.5t-99.5 -18q-73 0 -126.5 27t-92 67.5t-63 88t-39.5 88.5
q-24 -63 -59 -113.5t-78 -85.5t-91.5 -53.5t-100.5 -18.5q-58 0 -103.5 17.5t-80.5 45.5t-61 63.5t-44.5 71.5t-30 69.5t-18.5 58.5q-9 -24 -23 -58t-34.5 -70t-48 -71.5t-63 -63.5t-80 -45.5t-98.5 -17.5q-68 0 -119 23t-85 61.5t-51.5 87.5t-17.5 102q0 78 32 131.5
t80.5 92.5t104.5 69.5t104.5 61.5t80.5 67.5t32 89.5q0 30 -15 55t-39 43t-54 28t-60 10q-37 0 -67 -12.5t-51 -31.5t-32.5 -41t-11.5 -40q0 -26 12 -56t35 -57l-83 -61q-34 33 -51 79.5t-17 87.5q0 60 24 106.5t62 78.5t86 48.5t96 16.5q61 0 110 -20t83.5 -55t53.5 -82.5
t19 -103.5q0 -66 -32 -112.5t-79.5 -81t-103.5 -62.5t-103.5 -56.5t-79.5 -62.5t-32 -81q0 -26 11.5 -48.5t30.5 -40t42 -27.5t47 -10q66 0 119 24.5t95 65t73 94t53 111.5h99q7 -48 32 -100t62.5 -95.5t86.5 -71.5t105 -28q48 0 86.5 17t68.5 45t51 63t35 71t20.5 68.5
t6.5 56.5q0 172 -80 281t-226 153l47 90q97 -28 165.5 -81t112 -122.5t63 -152.5t19.5 -171q0 -11 -0.5 -21.5t-1.5 -21.5q10 -47 35.5 -96t62.5 -88.5t84 -65t101 -25.5q48 0 86.5 17t68.5 45t51 63t35 71t20.5 68.5t6.5 56.5q0 172 -80 281t-226 153l47 90
q97 -28 165.5 -81t112 -122.5t63 -152.5t19.5 -171q0 -14 -0.5 -28t-1.5 -28q12 -46 37.5 -92.5t62 -84t82 -61.5t97.5 -24q48 0 86.5 17t68.5 45t51 63t35 71t20.5 68.5t6.5 56.5q0 172 -80 281t-226 153l50 90h753q68 0 117 -20.5t80.5 -54.5t46.5 -78t15 -91
q0 -40 -16 -78.5t-47.5 -69t-77.5 -49.5t-105 -19q-50 0 -95 16t-79.5 43.5t-54.5 65t-20 81.5q0 57 16 90.5t44 53.5h-380zM2961 778q0 -20 7.5 -40t23.5 -36.5t42 -27t62 -10.5q28 0 50.5 10t38.5 26.5t24 37t8 42.5q0 33 -10.5 56.5t-28 39t-40.5 22.5t-48 7
q-32 0 -56.5 -11.5t-40.5 -30t-24 -41t-8 -44.5z" />
    <glyph glyph-name="te_vocalic_ll" unicode="&#xc61;" horiz-adv-x="2296" 
d="M1726 904h-428q34 -54 61 -113t46 -127.5t29 -148t10 -175.5q0 -95 -14 -188.5t-43 -179t-74 -158.5t-106.5 -127t-141.5 -84.5t-178 -30.5q-87 0 -159.5 25t-124.5 72.5t-81 116.5t-29 158q0 92 36.5 162.5t91 127.5t118 105.5t118 98.5t91 106.5t36.5 127.5
q0 44 -14 79t-37 59t-51.5 37t-56.5 13q-44 0 -80 -22t-61.5 -55t-39.5 -71.5t-14 -72.5h-110q0 33 -11.5 71.5t-35.5 72t-61 55.5t-88 22q-44 0 -73.5 -14t-47.5 -34t-25.5 -41t-7.5 -34q0 -50 26 -85.5t56 -59.5l-82 -62q-17 14 -36.5 36.5t-36 51t-27 62t-10.5 69.5
q0 64 23 113.5t59.5 83t81.5 51t88 17.5q61 0 103.5 -14t73.5 -37.5t53 -55t42 -66.5q37 81 100.5 126.5t160.5 45.5q53 0 104 -16t90.5 -55t64 -104.5t24.5 -165.5q0 -59 -21 -110t-55 -96.5t-78 -86.5t-89.5 -80t-89.5 -77t-78 -78t-55 -82.5t-21 -89.5q0 -99 57 -152.5
t178 -53.5q105 0 187.5 47.5t140 126.5t88 182t30.5 215q0 95 -10.5 179.5t-33.5 160.5t-58.5 143t-85.5 128l88 66l5 -7l-3 7h753q68 0 117 -20.5t80.5 -54.5t46.5 -78t15 -91q0 -40 -16 -78.5t-47.5 -69t-77.5 -49.5t-105 -19q-50 0 -95 16t-79.5 43.5t-54.5 65t-20 81.5
q0 57 16 90.5t44 53.5h-75zM1857 778q0 -20 7.5 -40t23.5 -36.5t42 -27t62 -10.5q28 0 50.5 10t38.5 26.5t24 37t8 42.5q0 33 -10.5 56.5t-28 39t-40.5 22.5t-48 7q-32 0 -56.5 -11.5t-40.5 -30t-24 -41t-8 -44.5z" />
    <glyph glyph-name="te_matra_l" unicode="&#xc62;" horiz-adv-x="891" 
d="M655 -331q0 -46 -19.5 -82.5t-48.5 -68t-62.5 -59.5t-62.5 -56t-48.5 -58t-19.5 -65q0 -55 31.5 -85t88.5 -30q55 0 99 27t75 71t48 101.5t17 118.5q0 53 -3.5 95.5t-13.5 80.5t-27 74.5t-45 77.5l51 49q56 -73 86 -165t30 -210q0 -77 -17.5 -153.5t-55 -137.5t-97 -99
t-143.5 -38q-50 0 -90 14t-68 40.5t-43.5 65t-15.5 87.5q0 51 19.5 90t49 70t63.5 58t63.5 54.5t49 58t19.5 70.5q0 49 -21 74t-58 25q-28 0 -48.5 -12t-34 -30.5t-20 -40t-6.5 -40.5h-61q0 19 -6.5 40.5t-19.5 40t-34 30.5t-49 12q-23 0 -37.5 -8t-23 -18.5t-12 -22.5
t-3.5 -19q0 -23 8 -40t28 -41l-46 -24q-10 7 -20.5 19.5t-19.5 28.5t-15 34.5t-6 38.5q0 36 13 63.5t33 46.5t45 28.5t49 9.5q34 0 58 -9.5t41 -24.5t29.5 -34t23.5 -39q20 46 56 76.5t85 30.5q25 0 53.5 -8.5t52.5 -30t40 -58.5t16 -94z" />
    <glyph glyph-name="te_matra_ll" unicode="&#xc63;" horiz-adv-x="1332" 
d="M755 -200q37 -65 56.5 -142.5t19.5 -172.5q0 -77 -17.5 -153.5t-55 -137.5t-97 -99t-143.5 -38q-50 0 -90 14t-68 40.5t-43.5 65t-15.5 87.5q0 51 19.5 90t49 70t63.5 58t63.5 54.5t49 58t19.5 70.5q0 49 -21 74t-58 25q-28 0 -48.5 -12t-34 -30.5t-20 -40t-6.5 -40.5
h-61q0 19 -6.5 40.5t-19.5 40t-34 30.5t-49 12q-23 0 -37.5 -8t-23 -18.5t-12 -22.5t-3.5 -19q0 -23 8 -40t28 -41l-46 -24q-10 7 -20.5 19.5t-19.5 28.5t-15 34.5t-6 38.5q0 36 13 63.5t33 46.5t45 28.5t49 9.5q34 0 58 -9.5t41 -24.5t29.5 -34t23.5 -39q20 46 56 76.5
t85 30.5q25 0 53.5 -8.5t52.5 -30t40 -58.5t16 -95q0 -45 -19.5 -81.5t-48.5 -68t-62.5 -59.5t-62.5 -56t-48.5 -58t-19.5 -65q0 -55 31.5 -85t88.5 -30q55 0 99 27t75 71t48 101.5t17 118.5q0 53 -3.5 95.5t-13.5 80.5t-27 74.5t-45 77.5l51 49h413q38 0 65 -11.5
t44.5 -30.5t26 -43.5t8.5 -50.5q0 -22 -9 -43.5t-26.5 -38.5t-43 -27.5t-58.5 -10.5q-28 0 -53 9t-44 24t-30 36t-11 45q0 32 9 51.5t24 30.5h-275zM1060 -272q0 -11 4.5 -22t13.5 -20t23.5 -15t34.5 -6q32 0 49.5 20t17.5 45q0 37 -21 53.5t-49 16.5q-18 0 -31.5 -6.5
t-23 -17t-14 -23t-4.5 -25.5z" />
    <glyph glyph-name="te_0" unicode="&#xc66;" horiz-adv-x="1136" 
d="M60 512q0 99 35.5 189.5t101 160.5t159 111.5t210.5 41.5q110 0 203.5 -39t161.5 -107.5t106.5 -162t38.5 -201.5q0 -116 -37 -214t-103.5 -169t-160 -110.5t-207.5 -39.5q-102 0 -194 37.5t-162 108t-111 170t-41 224.5zM186 546q0 -100 36 -169.5t91.5 -113
t123.5 -63.5t131 -20q70 0 138.5 26.5t122.5 74.5t87 114.5t33 146.5q0 76 -31 142.5t-83.5 115.5t-121.5 77t-145 28q-68 0 -136 -24.5t-123 -70.5t-89 -112.5t-34 -151.5z" />
    <glyph glyph-name="te_1" unicode="&#xc67;" horiz-adv-x="1118" 
d="M554 895q-61 0 -127.5 -21.5t-121.5 -68t-90.5 -118.5t-35.5 -172q0 -77 14 -133.5t37.5 -104.5t53 -91.5t59.5 -94.5l-161 -128q-14 20 -35 71.5t-40.5 120.5t-33 147.5t-13.5 152.5q0 102 21.5 183.5t59 143.5t86.5 106t104.5 72t114 41t113.5 13t113.5 -13t114 -41
t104.5 -72t86.5 -106t59 -143.5t21.5 -183.5q0 -74 -13.5 -152.5t-33 -147.5t-40.5 -120.5t-35 -71.5l-158 125q30 51 59 95t51.5 92.5t36.5 105.5t14 134q0 100 -37 172t-94 118.5t-125 68t-129 21.5z" />
    <glyph glyph-name="te_2" unicode="&#xc68;" horiz-adv-x="1931" 
d="M50 0v120h1093q136 0 243.5 31t181 88.5t112.5 139t39 181.5q0 91 -26 155t-66.5 105.5t-90.5 62.5t-98 27q34 -34 49.5 -72t15.5 -76q0 -43 -17.5 -83t-49 -71t-75.5 -49.5t-96 -18.5q-49 0 -90.5 17.5t-72 48.5t-47.5 72t-17 89q0 52 22 97t62.5 78.5t97 52.5t126.5 19
q123 0 220.5 -37t165 -101.5t103.5 -152.5t36 -191q0 -120 -43 -218.5t-132 -168t-226.5 -107.5t-326.5 -38h-1093zM1389 775q0 20 -6.5 41t-20 38.5t-34.5 29t-49 11.5q-23 0 -44.5 -8.5t-38 -24t-27 -36.5t-10.5 -45q0 -28 8.5 -52t24.5 -41.5t37.5 -27.5t47.5 -10
q25 0 46 11t35.5 28.5t22.5 40t8 45.5z" />
    <glyph glyph-name="te_3" unicode="&#xc69;" horiz-adv-x="847" 
d="M594 508q42 -7 77.5 -28.5t61 -54.5t40 -77t14.5 -95q0 -78 -32 -131.5t-83 -86.5t-115 -48t-128 -15q-87 0 -148.5 27t-103.5 66t-68 82t-42 74l86 59q14 -26 35 -60t52 -65t73.5 -52t99.5 -21q45 0 83.5 14.5t67 39.5t45 57t16.5 67q0 47 -13.5 80t-36.5 54t-52.5 32.5
t-62.5 16.5t-66 6t-63 1v116q88 0 145 11.5t90 33.5t46 55t13 76t-20 75t-50 52.5t-65.5 30.5t-66.5 10q-45 0 -84 -14t-73 -39.5t-62.5 -60.5t-51.5 -76l-92 51q10 17 24.5 42t36 52t50.5 53.5t67.5 48t88 34.5t111.5 13q61 0 123.5 -14.5t112.5 -47t81.5 -84t31.5 -126.5
q0 -85 -52.5 -143.5t-140.5 -90.5z" />
    <glyph glyph-name="te_4" unicode="&#xc6a;" horiz-adv-x="1262" 
d="M634 450q145 0 236 28t141 70t68 90.5t18 90.5q0 72 -34.5 119t-105.5 81l34 85q66 -30 107 -65.5t64 -74t31.5 -77.5t8.5 -75q0 -60 -20.5 -123.5t-69.5 -118t-132 -95.5t-207 -57q32 -26 51.5 -63t19.5 -82q0 -48 -18.5 -86t-48.5 -63.5t-68.5 -39t-78.5 -13.5
q-41 0 -80 14t-69 40t-48.5 63.5t-18.5 84.5q0 42 21.5 80t56.5 65q-126 15 -209 56t-132.5 95.5t-70 118t-20.5 124.5q0 36 8.5 75t31.5 77.5t64 74t107 65.5l34 -85q-71 -34 -105.5 -81t-34.5 -119q0 -28 8 -59.5t27.5 -62.5t53.5 -59.5t86 -50t124.5 -34.5t169.5 -13z
M553 222q0 -13 3.5 -28t12 -27.5t22 -20.5t34.5 -8q23 0 39 7.5t26 19.5t14.5 27t4.5 29t-6 27.5t-16.5 24t-25 17t-30.5 6.5q-17 0 -31 -6.5t-24.5 -17t-16.5 -24t-6 -26.5z" />
    <glyph glyph-name="te_5" unicode="&#xc6b;" horiz-adv-x="1280" 
d="M64 858l50 156q99 -20 204.5 -49t201.5 -69t175 -90.5t124 -113.5q20 101 94 186.5t189 151.5l72 -135q-73 -36 -120.5 -71t-76 -69.5t-40 -69.5t-11.5 -71q0 -42 22 -78t54.5 -69t70.5 -65t70.5 -65t54.5 -69.5t22 -78.5q0 -41 -18.5 -77t-48 -65t-65.5 -48.5t-71 -26.5
l-48 80q17 6 37.5 17t38.5 25.5t30 30.5t12 33q0 42 -25.5 76t-62 68.5t-76.5 73.5t-68 89q-22 -59 -72 -112.5t-116 -101t-142.5 -87.5t-152 -72t-144 -55.5t-118.5 -36.5l-50 179q194 62 324.5 113t210 96.5t113.5 87t34 83.5q0 50 -37.5 89t-98 69.5t-136 53t-151 39
t-143 28t-112.5 20.5z" />
    <glyph glyph-name="te_6" unicode="&#xc6c;" horiz-adv-x="1183" 
d="M654 985v-119h-282q-41 0 -72 -13t-51.5 -34t-31 -47.5t-10.5 -53.5q0 -30 11.5 -57t31.5 -47.5t46 -33t55 -12.5h355v-111h-329q-36 0 -67.5 -15t-54 -39t-35.5 -55t-13 -62t12.5 -57.5t34 -46t50 -31t61.5 -11.5h758v-140h-788q-48 0 -97 21.5t-88.5 58t-64.5 86
t-25 105.5q0 78 31 136.5t93 93.5q-70 45 -97 97.5t-27 118.5q0 53 22 101.5t60 85.5t90 59t112 22h310z" />
    <glyph glyph-name="te_7" unicode="&#xc6d;" horiz-adv-x="965" 
d="M827 735q0 -42 -15 -72.5t-40.5 -53t-60 -40.5t-72.5 -35l-332 -91q-29 -10 -50 -19.5t-35 -22.5t-20.5 -30.5t-6.5 -43.5q0 -39 19 -75.5t53.5 -64.5t84 -44.5t109.5 -16.5t111 13.5t96 41t85 69.5t77 99l75 -70q-23 -67 -69 -123.5t-106 -97t-130 -63t-141 -22.5
q-77 0 -148.5 19t-127.5 58.5t-89.5 100.5t-33.5 144q0 98 54.5 158.5t155.5 96.5q15 5 37 12t48 14.5t54 15t55 14.5q63 17 134 34q49 17 77.5 41t28.5 56q0 36 -23.5 65.5t-59.5 50t-79 31.5t-81 11q-54 0 -102 -14.5t-87 -40t-68 -59.5t-45 -72l-67 24q14 51 45 101.5
t78.5 90t111 64.5t142.5 25q86 0 152.5 -20.5t112.5 -56t69.5 -83t23.5 -101.5v-18z" />
    <glyph glyph-name="te_8" unicode="&#xc6e;" horiz-adv-x="1489" 
d="M677 986h752v-119h-485q80 -69 126 -167.5t46 -216.5q0 -116 -40 -210.5t-110.5 -161.5t-167 -103t-210.5 -36q-102 0 -197.5 34t-169 100t-117.5 162.5t-44 221.5q0 90 29 174t84 151t134 112t179 59v-119q-59 -12 -113 -40t-95.5 -71t-66.5 -101.5t-25 -130.5
q0 -100 39 -171t98.5 -116t130.5 -66t134 -21q71 0 142.5 28t129 77.5t93.5 118t36 148.5q0 66 -25 123.5t-67.5 102.5t-99 76t-120.5 43v119z" />
    <glyph glyph-name="te_9" unicode="&#xc6f;" horiz-adv-x="1183" 
d="M344 0q-60 0 -112 22t-90 59t-60 85.5t-22 101.5q0 66 27 118.5t97 97.5q-62 35 -93 93.5t-31 136.5q0 56 25 105.5t64.5 86t88.5 58t97 21.5h788v-119h-758q-33 0 -61.5 -14.5t-50 -38t-34 -53.5t-12.5 -61q0 -32 13 -62.5t35.5 -54.5t54 -39t67.5 -15h330v-111h-356
q-29 0 -55 -12.5t-46 -33t-31.5 -47.5t-11.5 -57q0 -54 41 -90.5t124 -36.5h282v-140h-310z" />
    <glyph glyph-name="te_kssa" horiz-adv-x="1205" 
d="M932 425q64 -39 93 -96.5t29 -117.5q0 -74 -38 -135q0 -24 14 -46.5t34.5 -40t42.5 -30t38 -16.5l-62 -93q-23 9 -45 22t-41.5 31.5t-34.5 42.5t-22 55q-24 -14 -51.5 -21.5t-58.5 -7.5q-49 0 -88.5 12.5t-71 34t-55 50.5t-40.5 63q-39 -81 -103 -120.5t-152 -39.5
q-62 0 -110.5 22t-81.5 58t-50.5 82t-17.5 95q0 57 24.5 111.5t77.5 95.5l36 -64q-15 -21 -24 -49.5t-9 -57.5q0 -27 9 -52.5t29 -45.5t52 -32t79 -12q16 0 38 3.5t45.5 13.5t45 26t38.5 42q-44 7 -91 23.5t-89 47t-76 77t-50 112.5l75 70q25 -60 59.5 -96.5t73.5 -56
t81.5 -25.5t84.5 -6q92 0 143.5 37t51.5 98q0 26 -27 51.5t-86 42.5l-221 62q-35 12 -64 25t-50 31t-33 43t-12 61q0 77 46.5 128t134.5 70l-181 187l115 115l181 -277l356 429l113 -111l-349 -350q83 -26 133.5 -81t61.5 -129l-78 -24q-18 42 -41 68t-54.5 40.5t-72.5 19.5
t-95 5q-21 0 -46.5 -2t-48 -11t-37.5 -26.5t-15 -48.5q0 -32 25 -50.5t65 -31t91 -22t102 -24.5t91.5 -32t68 -41t42.5 -58t15 -83q0 -59 -21.5 -103.5t-56 -75t-78.5 -49.5t-90 -27q18 -22 39 -38t42.5 -27t42 -16.5t37.5 -5.5q40 0 68 11t45.5 28.5t25.5 39.5t8 44
q0 31 -12.5 59.5t-35.5 48.5z" />
    <glyph glyph-name="te_ka.ottu" horiz-adv-x="1094" 
d="M514 60h520v-114h-384q40 -33 65.5 -70.5t40.5 -73.5t20.5 -68.5t5.5 -56.5q0 -96 -31 -167t-80.5 -118.5t-112.5 -70.5t-127 -23q-93 0 -163 33.5t-116 91t-69 134.5t-23 163q0 67 27.5 131t68.5 127t89 124.5t89 122.5t68.5 122t27.5 122q0 31 -8 58.5t-25 47t-45 31
t-68 11.5q-46 0 -80 -12.5t-66 -30.5l-47 131q9 9 29 21t46 22.5t55.5 18t58.5 7.5q53 0 101.5 -16t85.5 -49.5t59 -85t22 -122.5q0 -79 -27 -152t-67.5 -141.5t-88 -132t-88 -123t-67.5 -115.5t-27 -109q0 -63 21.5 -106.5t57.5 -70.5t82 -39t95 -12q43 0 83.5 13.5t72 39
t51 62.5t19.5 84q0 24 -4.5 50.5t-20 55t-45.5 59.5t-81 64v132z" />
    <glyph glyph-name="te_kha.ottu" 
d="M167 -140q45 -15 84 -41.5t68.5 -62.5t46 -79.5t16.5 -92.5q0 -75 -19 -129t-50.5 -89t-73 -51.5t-86.5 -16.5q-51 0 -87.5 21.5t-66.5 51.5q-31 -32 -75.5 -52.5t-106.5 -20.5q-42 0 -76 12t-59 33.5t-38.5 50t-13.5 61.5q0 26 10.5 51t30.5 44.5t49.5 31t67.5 11.5
q34 0 61.5 -8t50.5 -21.5t42.5 -30t38.5 -34.5q23 28 34.5 59t11.5 61q0 49 -16.5 84t-41 58t-54 35t-55.5 15q17 -14 24.5 -29.5t7.5 -32.5q0 -18 -8.5 -35t-24 -30.5t-36 -21.5t-44.5 -8q-60 0 -89 30.5t-29 74.5t43 72.5t115 28.5q60 0 109 -18t84 -50.5t54.5 -78.5
t19.5 -101q0 -36 -8.5 -80.5t-28.5 -87.5q23 -14 49.5 -23t61.5 -9q27 0 55 10.5t51.5 31t38.5 52t15 73.5q0 82 -45.5 136.5t-129.5 83.5zM-206 -588q40 0 73.5 10.5t61.5 28.5q-29 33 -62 56.5t-77 23.5q-27 0 -45 -5t-29 -13t-15.5 -18t-4.5 -20q0 -30 24.5 -46.5
t73.5 -16.5zM-10 -657h13q5 -6 12.5 -13t14 -15.5t11.5 -17.5t5 -18q0 -17 -12 -31.5t-35 -14.5q-24 0 -35 14.5t-11 31.5q0 19 14 34.5t23 29.5zM-178 -241q0 7 -2 14.5t-7 14.5t-15 11.5t-25 4.5q-20 0 -32 -13.5t-12 -27.5q0 -16 10.5 -32t35.5 -16q29 0 38 14.5t9 29.5z
" />
    <glyph glyph-name="te_ga.ottu" 
d="M3 -193q-30 0 -66 -8.5t-67.5 -31t-52.5 -61.5t-21 -100q0 -39 7 -72.5t19 -64t29 -61t37 -64.5l-89 -66q-10 13 -24 43t-26.5 69.5t-21.5 84.5t-9 87q0 67 15 116.5t39 84t54.5 56.5t62 34.5t61 17t51.5 4.5t51.5 -4.5t61 -17t62 -34.5t54.5 -56.5t39 -84t15 -116.5
q0 -42 -9 -87t-22 -84.5t-26.5 -69.5t-23.5 -43l-89 66q20 34 37 64.5t29 61t19 64t7 72.5q0 61 -21 100t-52 61.5t-66.5 31t-63.5 8.5z" />
    <glyph glyph-name="te_gha.ottu" 
d="M-348 -701q-37 0 -63 14t-43 37.5t-25 54t-8 64.5q0 31 10 59.5t28 50t43.5 34.5t57.5 13q28 0 53.5 -8t44.5 -24.5t30.5 -42t13.5 -60.5q21 -35 53.5 -59.5t72.5 -24.5q39 0 67 20t45.5 48t25.5 58t8 49q0 94 -43.5 153.5t-123.5 83.5l26 49q53 -15 90 -44t60.5 -67.5
t34.5 -83.5t11 -93q0 -26 -3 -50q9 -23 23 -45t33 -39.5t41.5 -28t48.5 -10.5q39 0 66.5 20t45.5 48t26 58t8 49q0 94 -44 153.5t-123 83.5l26 49q53 -15 90 -44t60.5 -67.5t34.5 -83.5t11 -93q0 -63 -16.5 -115t-44.5 -89t-65 -57t-77 -20q-36 0 -64 13t-48.5 32.5
t-34.5 43t-23 45.5q-27 -63 -73.5 -98.5t-100.5 -35.5q-53 0 -87 25t-56 57q-17 -38 -47.5 -60t-75.5 -22zM-430 -510q0 -30 23 -53.5t59 -23.5q19 0 34.5 7t25.5 18.5t15.5 25t5.5 26.5q0 35 -21 58.5t-60 23.5q-35 0 -58.5 -22t-23.5 -60zM-232 -655h15q10 -11 25.5 -28.5
t15.5 -36.5q0 -17 -11.5 -32t-35.5 -15t-35 15t-11 32q0 19 14 35t23 30z" />
    <glyph glyph-name="te_nga.ottu" 
d="M279 -395q25 -32 37 -64t12 -63q0 -47 -14.5 -81.5t-37.5 -56.5t-51.5 -32.5t-57.5 -10.5q-47 0 -77.5 20t-49.5 47.5t-28.5 57.5t-13.5 51q-5 -21 -15 -51t-28.5 -57.5t-48.5 -47.5t-73 -20q-37 0 -64.5 12.5t-46 33t-28 47t-9.5 55.5q0 44 17.5 74t43.5 51.5t56.5 37
t56.5 31.5t43.5 35t17.5 48q0 16 -8 29.5t-21 23.5t-29.5 15.5t-32.5 5.5q-20 0 -36.5 -7t-28 -17.5t-17.5 -22t-6 -21.5q0 -14 6.5 -30.5t19.5 -30.5l-45 -33q-19 18 -28 43t-9 47q0 32 13 57t33.5 42.5t46.5 26.5t52 9q59 0 96.5 -31.5t45.5 -82.5h132v115h54v-115h111
v-54h-298q-7 -29 -26.5 -51t-45 -39.5t-53.5 -32t-51.5 -30t-38.5 -33t-15 -40.5q0 -28 22.5 -44.5t48.5 -16.5q71 0 107.5 43t54.5 116h53q5 -29 15.5 -57.5t27 -51t39.5 -36.5t53 -14q47 0 76.5 22t29.5 63q0 22 -5.5 39t-23.5 35z" />
    <glyph glyph-name="te_ca.ottu" horiz-adv-x="989" 
d="M459 -500q-13 -44 -32.5 -81t-45 -64t-57.5 -42t-71 -15q-48 0 -89 20t-71 57t-47 89.5t-17 117.5q0 39 8.5 74t23 66t33.5 60t40 56l-124 45l46 108l177 -100q-3 -20 -5 -35q-2 -13 -3 -23.5t-1 -8.5q-44 -51 -66 -97t-22 -94q0 -36 12.5 -61t32 -41t42 -23.5t42.5 -7.5
q36 0 62.5 13.5t45 35.5t30.5 51t19 61h75q7 -32 20.5 -61t32 -51.5t41 -35.5t47.5 -13q36 0 69 16.5t58 49t39.5 81.5t14.5 114q0 119 -41.5 245.5t-120 248t-191.5 231.5t-256 196q22 32 39 58l38 58q154 -111 270.5 -227.5t196 -245t123 -272t52.5 -306.5
q0 -46 -5.5 -97.5t-18.5 -101.5t-33 -95t-49 -79.5t-67 -55t-87 -20.5q-41 0 -75.5 16t-61.5 43t-45.5 64t-27.5 79z" />
    <glyph glyph-name="te_cha.ottu" horiz-adv-x="989" 
d="M459 -500q-13 -44 -32.5 -81t-45 -64t-57.5 -42t-71 -15q-48 0 -89 20t-71 57t-47 89.5t-17 117.5q0 39 8.5 74t23 66t33.5 60t40 56l-124 45l46 108l177 -100q-3 -20 -5 -35q-2 -13 -3 -23.5t-1 -8.5q-44 -51 -66 -97t-22 -94q0 -36 12.5 -61t32 -41t42 -23.5t42.5 -7.5
q36 0 62.5 13.5t45 35.5t30.5 51t19 61h20h55q7 -32 20.5 -61t32 -51.5t41 -35.5t47.5 -13q36 0 69 16.5t58 49t39.5 81.5t14.5 114q0 119 -41.5 245.5t-120 248t-191.5 231.5t-256 196l77 116q154 -111 270.5 -227.5t196 -245t123 -272t52.5 -306.5v-23q0 -46 -6.5 -95
t-20.5 -96.5t-35 -90t-50 -74.5t-66 -51t-82 -19q-41 0 -75.5 16t-61.5 43t-45.5 64t-27.5 79zM458 -638h11q9 -11 22.5 -24t25.5 -28.5t20.5 -32.5t8.5 -34q0 -15 -5.5 -30.5t-16 -28t-27 -20t-38.5 -7.5t-38 7.5t-26 19.5t-15 27.5t-5 31.5q0 17 7.5 33t18 31t22.5 28.5
t21 26.5h14z" />
    <glyph glyph-name="te_ja.ottu" 
d="M276 -394q50 -64 50 -127q0 -47 -14.5 -81.5t-38 -56.5t-52.5 -32.5t-58 -10.5q-47 0 -77.5 20t-49.5 48t-28 58t-13 50q-5 -20 -15 -50t-28.5 -58t-48.5 -48t-74 -20q-36 0 -63.5 12.5t-46 33.5t-28 47.5t-9.5 54.5q0 44 17.5 74t43.5 51t56.5 36.5t56.5 31.5t43.5 35.5
t17.5 48.5q0 16 -8.5 29.5t-21.5 23t-29 15t-32 5.5q-20 0 -36 -6.5t-27.5 -16.5t-17.5 -22t-6 -22q0 -14 6.5 -30.5t18.5 -30.5l-45 -34q-19 18 -28 43.5t-9 47.5q0 32 13 57t33.5 42.5t46.5 26.5t52 9q55 0 91 -28.5t47 -74.5q10 -11 26.5 -25t38 -26.5t48 -21t57.5 -8.5
q48 0 76.5 22.5t28.5 49.5q0 17 -14.5 28.5t-33.5 11.5q-8 0 -17.5 -4.5t-18.5 -9.5q-11 -6 -21 -13l-30 43q14 10 28 19q12 7 27 13t29 6q51 0 80.5 -29.5t29.5 -70.5q0 -25 -13 -47.5t-35 -39t-52 -26.5t-64 -10q-30 0 -55.5 7t-47 18t-38 24t-27.5 25q-7 -29 -26.5 -51
t-44.5 -39.5t-53 -32.5t-51 -30.5t-38 -33.5t-15 -41q0 -28 22 -44.5t48 -16.5q71 0 107.5 43.5t53.5 116.5h54q5 -29 15.5 -58t27 -51.5t39 -36.5t52.5 -14q48 0 77.5 22.5t29.5 63.5q0 22 -5.5 39t-24.5 35z" />
    <glyph glyph-name="te_jha.ottu" 
d="M-629 -412q0 54 19 103t54.5 86.5t86.5 60t114 22.5q59 0 109 -21.5t86.5 -58.5t57 -87.5t20.5 -108.5q0 -10 -0.5 -19.5t-1.5 -18.5q6 -24 20 -49.5t33.5 -46t44.5 -33.5t53 -13q39 0 66 20t44.5 47.5t25.5 57t8 47.5q0 94 -43.5 152.5t-121.5 82.5l25 48
q52 -15 89.5 -43.5t60.5 -66t34 -82.5t11 -92q0 -8 -0.5 -15t-0.5 -15q6 -24 20 -49.5t33.5 -45.5t44 -33t52.5 -13q38 0 65 20t44.5 47.5t25.5 57t8 47.5q0 94 -42.5 152.5t-121.5 82.5l25 48q52 -15 89 -43.5t60.5 -66t34 -82.5t10.5 -92q0 -63 -16.5 -114t-44 -87
t-63.5 -56t-75 -20t-67.5 14t-49 35.5t-34 46.5t-21.5 47q-26 -67 -73.5 -105t-102.5 -38q-41 0 -71 15.5t-51 39t-34 50t-20 48.5q-32 -70 -95.5 -111.5t-149.5 -41.5q-55 0 -105 20.5t-87.5 58t-59.5 91t-22 120.5zM-560 -393q0 -54 19 -91.5t49 -61t66.5 -34t70.5 -10.5
q37 0 74 14.5t66.5 40t47.5 61.5t18 79q0 41 -17 76.5t-45.5 62t-66 42t-77.5 15.5q-37 0 -73.5 -13t-66 -38t-47.5 -61t-18 -82zM236 -658h13q5 -5 12 -12.5t13.5 -15.5t11 -17.5t4.5 -18.5q0 -17 -11.5 -31.5t-34.5 -14.5q-25 0 -35.5 14.5t-10.5 31.5q0 19 14 35t24 29z
" />
    <glyph glyph-name="te_nya.ottu" 
d="M-122 -340q0 18 -6 42t-19 46t-33 37t-47 15q-29 0 -46 -11t-26 -25t-11.5 -29t-2.5 -22q0 -27 14.5 -46t31.5 -33l-46 -33q-9 7 -19 19t-19 28t-15 34t-6 38q0 34 12.5 61t32.5 45t44.5 27.5t48.5 9.5q33 0 56 -7.5t39.5 -20.5t28.5 -30t23 -36q20 45 54.5 69.5
t88.5 24.5q22 0 43.5 -6.5t40.5 -20.5t34 -35.5t24 -52.5h67v115h55v-115h79v-54h-192q1 -8 1.5 -16.5t0.5 -17.5q0 -46 -15 -94t-44 -93q27 -35 42.5 -79t15.5 -95q0 -52 -16.5 -75t-34.5 -23q-14 0 -24 12t-10 34q0 7 1.5 13.5t3 15.5t3 22t1.5 31q0 26 -6 48.5t-17 42.5
q-48 -54 -115 -88t-148 -34q-28 0 -59 6.5t-57 22.5t-43 43.5t-17 68.5q0 30 15 56.5t44 46.5t72 31.5t100 11.5q60 0 111 -17t91 -48q22 29 34 63.5t12 76.5q0 66 -24.5 103t-72.5 37q-32 0 -54 -15t-35.5 -36.5t-19 -46t-5.5 -42.5h-60zM-150 -590q59 0 112.5 17.5
t95.5 49.5q-35 26 -78.5 39t-85.5 13q-74 0 -106.5 -20.5t-32.5 -43.5q0 -27 28 -41t67 -14z" />
    <glyph glyph-name="te_tta.ottu" 
d="M-73 -251q0 17 -11.5 32t-36.5 15q-21 0 -34 -12.5t-13 -31.5t12 -33t38 -14q22 0 33.5 14.5t11.5 29.5zM4 -582q-7 -23 -22.5 -44.5t-37.5 -38.5t-50 -27t-59 -10q-52 0 -90 23t-63 61.5t-37 89t-12 105.5q0 58 18 109.5t50 90t76 61t96 22.5q60 0 90 -29.5t30 -84.5
q0 -24 -9 -44t-24.5 -34t-36 -21.5t-43.5 -7.5q-26 0 -45 8t-32 20.5t-19 27.5t-6 29q0 19 4 34t14 29q-29 -21 -48.5 -42.5t-32 -46.5t-18 -55t-5.5 -67q0 -35 11.5 -65t31 -52.5t44.5 -35t52 -12.5q33 0 58.5 11t43.5 27.5t29 35.5t14 34h56q4 -19 14.5 -38.5t27.5 -35
t40 -25t52 -9.5q44 0 72.5 17.5t45 43t23 54t6.5 50.5q0 54 -11 91.5t-33.5 64.5t-55.5 45.5t-78 34.5l18 48q61 -14 103 -45t67.5 -70.5t37 -84t11.5 -86.5q0 -59 -14 -109t-40.5 -87.5t-64.5 -58.5t-87 -21q-32 0 -56.5 9.5t-44 26t-34.5 38.5t-27 46z" />
    <glyph glyph-name="te_ttha.ottu" 
d="M-273 -412q0 54 19 103t54.5 86.5t86.5 60t114 22.5q59 0 109 -21.5t86.5 -58.5t57 -87t20.5 -108q0 -63 -19.5 -115.5t-55.5 -90.5t-86.5 -59.5t-111.5 -21.5q-55 0 -105 20.5t-87.5 58t-59.5 91t-22 120.5zM-205 -393q0 -54 19.5 -91.5t49.5 -61t66.5 -34t70.5 -10.5
q38 0 74.5 14.5t65.5 40t46.5 61.5t17.5 79q0 41 -16.5 76.5t-44.5 62t-65 41.5t-78 15q-37 0 -73.5 -13t-66 -38t-48 -60.5t-18.5 -81.5zM-49 -400q0 20 14.5 34.5t34.5 14.5t34.5 -14.5t14.5 -34.5t-14.5 -34.5t-34.5 -14.5t-34.5 14.5t-14.5 34.5z" />
    <glyph glyph-name="te_dda.ottu" 
d="M107 -526q0 17 8 32.5t21.5 27.5t32 19t40.5 7q20 0 39 -7t34 -20.5t24 -33.5t9 -45q0 -42 -15 -71.5t-38 -48.5t-52 -27.5t-56 -8.5q-48 0 -88.5 25t-65.5 76q-45 -101 -143 -101q-45 0 -80 20.5t-59 54t-37 76.5t-13 88q0 83 29 144t76 101t106 59.5t119 19.5
q49 0 91 -12.5t77 -31.5t63.5 -42.5t49.5 -45.5q-6 -12 -17.5 -22t-12.5 -10q-23 21 -49 40.5t-57.5 35t-69 24.5t-82.5 9q-53 0 -101.5 -16.5t-85.5 -48.5t-59 -78t-22 -105q0 -34 9.5 -65t27 -54.5t40.5 -37.5t50 -14q24 0 43 7.5t34 24.5t26.5 46t20.5 72h56
q1 -26 8.5 -52.5t23 -48t39.5 -35.5t59 -14q-29 14 -41 37.5t-12 49.5zM261 -540q0 21 -15.5 34.5t-35.5 13.5q-26 0 -37.5 -16t-11.5 -30q0 -27 21 -38.5t52 -11.5q13 0 20 15.5t7 32.5z" />
    <glyph glyph-name="te_ddha.ottu" 
d="M107 -526q0 17 8 32.5t21.5 27.5t32 19t40.5 7q20 0 39 -7t34 -20.5t24 -33.5t9 -45q0 -42 -15 -71.5t-38 -48.5t-52 -27.5t-56 -8.5q-48 0 -88.5 25t-65.5 76q-45 -101 -143 -101q-45 0 -80 20.5t-59 54t-37 76.5t-13 88q0 83 29 144t76 101t106 59.5t119 19.5
q49 0 91 -12.5t77 -31.5t63.5 -42.5t49.5 -45.5q-6 -12 -17.5 -22t-12.5 -10q-23 21 -49 40.5t-57.5 35t-69 24.5t-82.5 9q-53 0 -101.5 -16.5t-85.5 -48.5t-59 -78t-22 -105q0 -34 9.5 -65t27 -54.5t40.5 -37.5t50 -14q24 0 43 7.5t34 24.5t26.5 46t20.5 72h56
q1 -26 8.5 -52.5t23 -48t39.5 -35.5t59 -14q-29 14 -41 37.5t-12 49.5zM261 -540q0 21 -15.5 34.5t-35.5 13.5q-26 0 -37.5 -16t-11.5 -30q0 -27 21 -38.5t52 -11.5q13 0 20 15.5t7 32.5zM-8 -657h14q11 -11 26 -28.5t15 -36.5q0 -16 -11.5 -31t-34.5 -15q-24 0 -34.5 14.5
t-10.5 31.5q0 19 13.5 35t22.5 30z" />
    <glyph glyph-name="te_nna.ottu" 
d="M18 -522q0 -5 -1.5 -20.5t-6 -35.5t-14.5 -41.5t-26.5 -40t-41 -30.5t-59.5 -12q-43 0 -73.5 16.5t-50 43.5t-29 61.5t-9.5 70.5q0 34 8 57t20 38.5t25.5 24t25.5 12.5q-10 2 -23.5 8.5t-26 19t-21 32t-8.5 48.5q0 30 12 54t33 41t49 26t61 9q31 0 53 -7t37 -18.5t25 -26
t18 -28.5q16 32 48.5 56t86.5 24t90.5 -23t58.5 -60t31.5 -84t9.5 -95q0 -19 -1 -48.5t-6 -62.5t-14 -67t-24.5 -61t-39.5 -44t-57 -17q-26 0 -48 9.5t-38.5 30t-26 52t-9.5 75.5q0 33 10 60t26.5 46t39 29.5t46.5 10.5q32 0 52.5 -15.5t32.5 -38.5q1 12 1.5 25.5t0.5 27.5
q0 25 -4.5 59.5t-18 65.5t-40 52.5t-69.5 21.5q-36 0 -57.5 -13t-33.5 -32.5t-17 -42.5t-8 -44h-46q0 7 -2.5 28.5t-13.5 44.5t-32.5 41t-60.5 18q-46 0 -73.5 -18.5t-27.5 -61.5q0 -35 30 -57.5t90 -22.5v-60q-35 0 -58.5 -8t-37 -20.5t-19 -28t-5.5 -31.5q0 -30 10.5 -48
t26 -27t33 -12t31.5 -3q28 0 44.5 7t27 19t16 27.5t10.5 32.5q0 -1 9 -4t20 -6q12 -4 29 -9zM176 -442q-26 0 -43 -19.5t-17 -53.5q0 -33 16 -53.5t40 -20.5q23 0 43.5 13t33.5 53q-6 22 -17 40q-9 15 -22.5 28t-33.5 13z" />
    <glyph glyph-name="te_ta.ottu" 
d="M179 -442q-27 22 -42.5 54.5t-15.5 70.5q0 47 17 80t43.5 53.5t59 30t63.5 9.5q51 0 88 -16t61 -43.5t36 -63t12 -74.5q0 -32 -6 -67t-26 -65t-59 -49.5t-106 -19.5h-811v100h686zM221 -341q0 -13 4.5 -30.5t15 -33t28 -26.5t43.5 -11q42 0 65.5 28t23.5 73
q0 42 -24 67.5t-67 25.5q-15 0 -31 -5.5t-28.5 -16.5t-21 -29t-8.5 -42z" />
    <glyph glyph-name="te_tha.ottu" 
d="M5 -657q11 -11 26 -28.5t15 -36.5q0 -17 -11 -31.5t-35 -14.5q-23 0 -33 14.5t-10 31.5q0 19 13.5 35t21.5 30h13zM-47 -353q0 21 13.5 35.5t33.5 14.5q21 0 35 -14.5t14 -35.5t-14 -35.5t-35 -14.5q-20 0 -33.5 14.5t-13.5 35.5zM29 -462q8 -44 21.5 -69t30 -38
t35 -16.5t37.5 -3.5q50 0 81 34t31 93q0 58 -26 107.5t-65.5 85t-86 55.5t-87.5 20q-40 0 -86 -21t-85 -57.5t-65 -85.5t-26 -104q0 -23 8.5 -46t23.5 -41t35.5 -29t44.5 -11q15 0 33.5 3.5t35.5 16.5t32 38t23 69h55zM0 -601q-21 -51 -57.5 -76t-85.5 -25q-45 0 -78.5 20.5
t-56 54t-33.5 76.5t-11 89q0 72 30.5 131.5t77.5 102t104 65.5t110 23q54 0 111.5 -23t104.5 -65.5t77.5 -102t30.5 -131.5q0 -46 -11 -89t-33.5 -76.5t-56 -54t-78.5 -20.5q-100 0 -145 101z" />
    <glyph glyph-name="te_da.ottu" 
d="M0 -601q-21 -51 -57.5 -76t-85.5 -25q-45 0 -78.5 20.5t-56 54t-33.5 76.5t-11 89q0 72 30.5 131.5t77.5 102t104 65.5t110 23q54 0 111.5 -23t104.5 -65.5t77.5 -102t30.5 -131.5q0 -46 -11 -89t-33.5 -76.5t-56 -54t-78.5 -20.5q-100 0 -145 101zM29 -462
q8 -44 21.5 -69t30 -38t35 -16.5t37.5 -3.5q50 0 81 34t31 93q0 58 -26 107.5t-65.5 85t-86 55.5t-87.5 20q-40 0 -86 -21t-85 -57.5t-65 -85.5t-26 -104q0 -23 8.5 -46t23.5 -41t35.5 -29t44.5 -11q15 0 33.5 3.5t35.5 16.5t32 38t23 69h55z" />
    <glyph glyph-name="te_dha.ottu" 
d="M-2 -601q-21 -51 -57.5 -76t-85.5 -25q-45 0 -78.5 20.5t-56 54t-33.5 76.5t-11 89q0 72 30.5 131.5t77.5 102t104 65.5t110 23q54 0 111.5 -23t104.5 -65.5t77.5 -102t30.5 -131.5q0 -46 -11 -89t-33.5 -76.5t-56 -54t-78.5 -20.5q-100 0 -145 101zM27 -462
q8 -44 21.5 -69t30 -38t35 -16.5t37.5 -3.5q50 0 81 34t31 93q0 58 -26 107.5t-65.5 85t-86 55.5t-87.5 20q-40 0 -86 -21t-85 -57.5t-65 -85.5t-26 -104q0 -23 8.5 -46t23.5 -41t35.5 -29t44.5 -11q15 0 33.5 3.5t35.5 16.5t32 38t23 69h55zM-2 -657h5q11 -11 26 -28.5
t15 -36.5q0 -17 -11 -31.5t-35 -14.5q-23 0 -33 14.5t-10 31.5q0 19 13.5 35t21.5 30h8z" />
    <glyph glyph-name="te_na.ottu" horiz-adv-x="1193" 
d="M1133 -387q-3 -72 -24.5 -130.5t-59 -99.5t-88.5 -63t-112 -22q-40 0 -75.5 11t-68 29.5t-61.5 43.5t-56 53q-56 -63 -130.5 -100t-171.5 -37q-59 0 -109.5 18.5t-87.5 53t-58 82.5t-21 108q0 58 21.5 103t57.5 75t83 45.5t98 15.5q55 0 97 -13t75.5 -34.5t60.5 -49
t53 -55.5q45 71 62 160.5t17 181.5q0 104 -18 188.5t-50 153.5t-76 123t-95.5 98t-108.5 78.5t-116 63.5q16 36 29 64q11 24 20 44t9 21q152 -79 253 -177.5t161.5 -207.5t85.5 -224.5t25 -227.5q0 -120 -22 -232t-69 -205q34 -22 76 -35.5t99 -13.5q22 0 46 5.5t44.5 20
t36.5 40.5t22 68zM277 -317q-71 0 -109.5 -24.5t-38.5 -66.5q0 -30 15.5 -48t37 -28t43 -13t33.5 -3q69 0 122 16t94 44q-24 25 -47.5 47.5t-47.5 39.5t-49.5 26.5t-52.5 9.5z" />
    <glyph glyph-name="te_pa.ottu" horiz-adv-x="1004" 
d="M462 -500q-12 -40 -29 -76.5t-42 -64.5t-60 -44.5t-83 -16.5q-63 0 -108 26.5t-74 67.5t-42.5 90.5t-13.5 95.5q0 60 21.5 110t56.5 86t80 55.5t93 19.5q62 0 102 -20.5t65.5 -52t40 -69.5t26.5 -74q23 -69 64.5 -101t92.5 -32q36 0 69 16.5t58 49t39.5 81.5t14.5 114
q0 119 -38.5 247.5t-115 251.5t-190.5 232.5t-265 189.5l77 116q171 -110 293 -238.5t200 -267t114 -283t36 -285.5q0 -46 -6.5 -95t-20.5 -96.5t-35 -90t-50 -74.5t-66.5 -51t-82.5 -19q-41 0 -77 16t-65 43t-49.5 64t-29.5 79zM260 -500q27 0 50.5 7.5t41 22t27.5 36.5
t10 52q0 27 -11 49.5t-29 38.5t-41.5 25t-48.5 9q-34 -2 -59.5 -13.5t-42 -28.5t-25 -37.5t-8.5 -40.5q0 -56 33.5 -88t102.5 -32z" />
    <glyph glyph-name="te_pha.ottu" horiz-adv-x="1004" 
d="M462 -500q-12 -40 -29 -76.5t-42 -64.5t-60 -44.5t-83 -16.5q-63 0 -108 26.5t-74 67.5t-42.5 90.5t-13.5 95.5q0 60 21.5 110t56.5 86t80 55.5t93 19.5q62 0 102 -20.5t65.5 -52t40 -69.5t26.5 -74q23 -69 64.5 -101t92.5 -32q36 0 69 16.5t58 49t39.5 81.5t14.5 114
q0 119 -38.5 247.5t-115 251.5t-190.5 232.5t-265 189.5l77 116q171 -110 293 -238.5t200 -267t114 -283t36 -285.5q0 -46 -6.5 -95t-20.5 -96.5t-35 -90t-50 -74.5t-66.5 -51t-82.5 -19q-41 0 -77 16t-65 43t-49.5 64t-29.5 79zM260 -500q27 0 50.5 7.5t41 22t27.5 36.5
t10 52q0 27 -11 49.5t-29 38.5t-41.5 25t-48.5 9q-34 -2 -59.5 -13.5t-42 -28.5t-25 -37.5t-8.5 -40.5q0 -56 33.5 -88t102.5 -32zM461 -632h11q9 -11 22.5 -24t25.5 -28.5t20.5 -32.5t8.5 -34q0 -15 -5.5 -30.5t-16 -28t-27 -20t-38.5 -7.5t-38 7.5t-26 19.5t-15 27.5
t-5 31.5q0 17 7.5 33t18 31t22.5 28.5t21 26.5h14z" />
    <glyph glyph-name="te_ba.ottu" horiz-adv-x="989" 
d="M458 -500q-11 -41 -33 -77.5t-52 -64t-66 -44t-74 -16.5q-56 0 -98 20t-69.5 53.5t-41.5 76.5t-14 89q0 55 25.5 93t63.5 66.5t82.5 51t82.5 45.5t63.5 50.5t25.5 66.5q0 50 -30 70t-86 20q-23 0 -46 -7t-41.5 -20t-30 -32t-11.5 -43q0 -22 13 -49t37 -47l-72 -47
q-33 29 -49.5 66t-16.5 78q0 49 17.5 89t48 68t72.5 43.5t91 15.5q47 0 84.5 -18t64 -47.5t40.5 -68t14 -80.5q0 -49 -24.5 -85t-61.5 -64t-80 -49.5t-80 -41.5t-61.5 -40.5t-24.5 -46.5q0 -14 6.5 -27t20.5 -23.5t35.5 -17t52.5 -6.5q26 0 56 8.5t57 28t47.5 50t26.5 74.5
h20h55q7 -32 20 -61t31.5 -51.5t41 -35.5t47.5 -13q36 0 69 16.5t58 49t39.5 81.5t14.5 114q0 119 -38.5 247.5t-115 251.5t-190.5 232.5t-265 189.5l77 116q171 -110 293 -238.5t200 -267t114 -283t36 -285.5q0 -46 -6.5 -95t-20.5 -96.5t-35 -90t-50 -74.5t-66.5 -51
t-82.5 -19q-41 0 -75.5 16t-61.5 43t-45.5 64t-27.5 79z" />
    <glyph glyph-name="te_bha.ottu" horiz-adv-x="989" 
d="M458 -500q-11 -41 -33 -77.5t-52 -64t-66 -44t-74 -16.5q-56 0 -98 20t-69.5 53.5t-41.5 76.5t-14 89q0 55 25.5 93t63.5 66.5t82.5 51t82.5 45.5t63.5 50.5t25.5 66.5q0 50 -30 70t-86 20q-23 0 -46 -7t-41.5 -20t-30 -32t-11.5 -43q0 -22 13 -49t37 -47l-72 -47
q-33 29 -49.5 66t-16.5 78q0 49 17.5 89t48 68t72.5 43.5t91 15.5q47 0 84.5 -18t64 -47.5t40.5 -68t14 -80.5q0 -49 -24.5 -85t-61.5 -64t-80 -49.5t-80 -41.5t-61.5 -40.5t-24.5 -46.5q0 -14 6.5 -27t20.5 -23.5t35.5 -17t52.5 -6.5q26 0 56 8.5t57 28t47.5 50t26.5 74.5
h20h55q7 -32 20 -61t31.5 -51.5t41 -35.5t47.5 -13q36 0 69 16.5t58 49t39.5 81.5t14.5 114q0 119 -38.5 247.5t-115 251.5t-190.5 232.5t-265 189.5l77 116q171 -110 293 -238.5t200 -267t114 -283t36 -285.5q0 -46 -6.5 -95t-20.5 -96.5t-35 -90t-50 -74.5t-66.5 -51
t-82.5 -19q-41 0 -75.5 16t-61.5 43t-45.5 64t-27.5 79zM457 -623h11q9 -11 22.5 -24t25.5 -28.5t20.5 -32.5t8.5 -34q0 -15 -5.5 -30.5t-16 -28t-27 -20t-38.5 -7.5t-38 7.5t-26 19.5t-15 27.5t-5 31.5q0 17 7.5 33t18 31t22.5 28.5t21 26.5h14z" />
    <glyph glyph-name="te_ma.ottu" horiz-adv-x="911" 
d="M227 805q71 -3 131.5 -27t104.5 -67t69 -104.5t25 -138.5q0 -56 -11 -103.5t-29 -90.5t-41.5 -83.5t-48.5 -82.5q66 -5 115 -28.5t81.5 -59.5t48.5 -81t16 -93q0 -51 -14 -95.5t-41.5 -77.5t-69.5 -52.5t-97 -19.5q-66 0 -111.5 22.5t-74 59.5t-41.5 85t-13 100
q0 41 11 80q-46 -30 -76.5 -78.5t-30.5 -120.5q0 -52 22 -97.5t62 -79t94.5 -53t119.5 -19.5q54 0 104 15t91.5 48.5t73 87.5t47.5 133l107 -26q-4 -47 -17.5 -99.5t-38 -104t-59.5 -98.5t-81.5 -82.5t-104 -56.5t-126.5 -21q-74 0 -148 28.5t-133 83t-96 134.5t-37 183
q0 66 20 128.5t59 113.5t95.5 87t129.5 49q27 41 51 80.5t42 81.5t29 88t11 99q0 49 -18 89t-50 70t-76 49t-96 25zM346 -106q0 -21 8 -42.5t22.5 -39.5t35.5 -29.5t47 -11.5q23 0 43.5 4.5t36 15.5t24.5 29.5t9 47.5q0 42 -21 67.5t-51.5 38.5t-66 17t-64.5 4
q-5 -8 -9 -22.5t-7 -30.5t-5 -29.5t-2 -18.5z" />
    <glyph glyph-name="te_ya.ottu" horiz-adv-x="829" 
d="M54 -224q-17 23 -30.5 54.5t-13.5 65.5q0 42 15.5 78t43.5 62.5t65.5 41t81.5 14.5q45 0 82 -12.5t62.5 -35t39.5 -53.5t14 -67q0 -34 -14.5 -60.5t-36.5 -49.5t-48 -43.5t-48 -43t-36.5 -48t-14.5 -57.5q0 -24 14.5 -46.5t40 -39t60.5 -26.5t76 -10q75 0 124 15.5
t77 43.5t39 67t11 86q0 60 -21 116t-55.5 108.5t-78.5 102.5t-90 99t-90 97t-78.5 97t-55.5 99.5t-21 103.5q0 60 22 105t59 75t84.5 44.5t98.5 14.5t96.5 -17t79 -48t53.5 -74.5t20 -95.5q0 -56 -27 -106.5t-78 -87.5l-93 102q13 9 25.5 19t22.5 23t16.5 30.5t6.5 40.5
q0 21 -10.5 41.5t-28.5 36t-42 25.5t-50 10q-49 0 -80 -14.5t-48.5 -35.5t-24 -45t-6.5 -43q0 -63 37.5 -122t93.5 -120t121.5 -127t121.5 -142.5t93.5 -165.5t37.5 -197q0 -77 -24 -143.5t-68.5 -115t-108.5 -76.5t-145 -28q-74 0 -133.5 21.5t-102.5 59.5t-66 89.5
t-23 111.5q0 44 16.5 80.5t41.5 66.5t53.5 55t53.5 47t41.5 42t16.5 41q0 32 -27 54t-78 22q-23 0 -44 -6t-37.5 -17.5t-26.5 -28.5t-10 -38q0 -20 9.5 -35t22.5 -29z" />
    <glyph glyph-name="te_ra.ottu_b1" 
d="M-505 -11l80 25q0 -104 32.5 -185t89.5 -136.5t135 -84.5t169 -29t170.5 29t138 85t92 136.5t33.5 184.5l80 -25q0 -104 -35.5 -200t-102.5 -169t-162 -116.5t-214 -43.5q-122 0 -216.5 43.5t-159 116.5t-97.5 168.5t-33 200.5z" />
    <glyph glyph-name="te_ra.ottu_b2" 
d="M-590 -130l80 25q0 -110 42 -192t113 -136t163 -80.5t193 -26.5q109 0 202 27.5t161.5 82.5t107 136.5t38.5 188.5l80 -25q0 -108 -34 -206t-106 -172.5t-184.5 -118.5t-269.5 -44q-152 0 -262.5 42t-182.5 115.5t-106.5 172t-34.5 211.5z" />
    <glyph glyph-name="te_ra.ottu_b3" 
d="M764 -23q-9 -76 -29.5 -155.5t-57.5 -155t-93.5 -142.5t-138.5 -117t-192 -79.5t-253 -29.5q-137 0 -244.5 29.5t-189 80t-139 118t-96 142.5t-60 154t-29.5 153l81 20q14 -101 55.5 -196.5t121 -169.5t202 -118.5t298.5 -44.5q125 0 221.5 21t169.5 57.5t124 86.5
t85 108.5t53.5 122.5t28.5 130z" />
    <glyph glyph-name="te_ra.ottu_b4" 
d="M1049 -50q-25 -83 -65.5 -173t-101 -177.5t-143.5 -166.5t-191.5 -138.5t-245 -95t-305.5 -35.5q-171 0 -308 36t-245 96.5t-189 140.5t-139.5 168.5t-97.5 180t-62 174.5l86 31q25 -77 63.5 -155t95 -150.5t131.5 -135t172.5 -109t220 -73t272.5 -26.5q153 0 276.5 27
t222 73.5t174.5 109t132 134t95 148.5t65 152z" />
    <glyph glyph-name="te_ra.ottu" horiz-adv-x="708" 
d="M45 -626q96 87 184.5 186.5t156.5 208.5t108.5 225t40.5 238q0 45 -4 77t-10.5 56t-14.5 44t-16 41q-3 -39 -19.5 -75.5t-43.5 -64.5t-64 -44.5t-82 -16.5q-55 0 -96.5 22.5t-69 58.5t-41.5 80t-14 87q0 55 15 105t45.5 88.5t75.5 61t105 22.5q65 0 116.5 -24t90 -64.5
t65.5 -94t44 -111.5t24.5 -117t7.5 -111q0 -152 -39.5 -293.5t-105 -268.5t-150 -237.5t-173.5 -200.5zM301 660q-63 -2 -94.5 -37t-31.5 -89q0 -27 10.5 -49t27.5 -37t40 -23t48 -8q27 0 50 9t40 25.5t27 39.5t10 52q0 52 -35 84.5t-92 32.5z" />
    <glyph glyph-name="te_rra.ottu" 
d="M-138 -255q0 20 -11 39t-41 19q-26 0 -39.5 -17.5t-13.5 -38.5q0 -26 13.5 -45t40.5 -19q22 0 36.5 16.5t14.5 45.5zM357 -372q0 -70 -15.5 -130t-42.5 -104.5t-64 -70t-81 -25.5q-59 0 -98 25t-56 76q-16 -51 -56 -76t-98 -25q-56 0 -98.5 27.5t-71.5 72.5t-43.5 101.5
t-14.5 114.5q0 43 11.5 87t34 79t56 57.5t77.5 22.5q63 0 92.5 -32.5t29.5 -86.5q0 -30 -11 -51t-27.5 -33.5t-35 -18.5t-33.5 -6q-42 0 -72 28t-30 81q0 10 1 15q-7 -8 -13.5 -22t-12 -30.5t-8.5 -35t-3 -36.5q0 -32 7 -70t26 -72t53 -56.5t88 -22.5q53 0 83.5 24t45.5 64
h55q8 -18 21.5 -34t30.5 -28t36 -19t37 -7q42 0 70 20t44 52.5t22.5 73t6.5 81.5q0 23 -7 52t-20.5 54.5t-34.5 42.5t-49 17q-38 0 -58.5 -24t-20.5 -63q0 -22 10.5 -39t26.5 -30.5t35 -22.5t37 -15l-14 -67h-382v54h307q-15 6 -32.5 16.5t-32 26.5t-24 38.5t-9.5 51.5
q0 20 8 43t25 42.5t44 32t66 12.5q50 0 84.5 -22.5t56.5 -56.5t31.5 -75t9.5 -78z" />
    </font>
</defs>
</svg>
