<?xml version="1.0" encoding="UTF-8"?>
<svg id="SVGDoc" width="188" height="193" xmlns="http://www.w3.org/2000/svg" version="1.1" xmlns:xlink="http://www.w3.org/1999/xlink" xmlns:avocode="https://avocode.com/" viewBox="0 0 188 193"><defs><mask id="Mask1018" x="-1" y="-1" width="2" height="2"><rect width="167" height="167" x="6" y="6" fill="#ffffff"></rect><path d="M89.17798,6.52362c45.93801,0 83.17807,37.2401 83.17807,83.17789c0,45.93798 -37.24006,83.17809 -83.17807,83.17809c-45.93793,0 -83.17798,-37.2401 -83.17798,-83.17809c0,-45.93779 37.24006,-83.17789 83.17798,-83.17789z" fill="#000000"></path></mask><filter id="Filter1022" width="215" height="219.4" x="-15" y="-15" filterUnits="userSpaceOnUse"><feOffset dx="6" dy="10.4" result="FeOffset1023Out" in="SourceGraphic"></feOffset><feGaussianBlur stdDeviation="4.4 4.4" result="FeGaussianBlur1024Out" in="FeOffset1023Out"></feGaussianBlur></filter><clipPath id="ClipPath1028"><path d="M0,179v-179h179v179zM6,89.70151c0,45.93799 37.24005,83.17809 83.17798,83.17809c45.93801,0 83.17807,-37.24011 83.17807,-83.17809c0,-45.93779 -37.24006,-83.17789 -83.17807,-83.17789c-45.93792,0 -83.17798,37.2401 -83.17798,83.17789z" fill="#ffffff"></path></clipPath></defs><desc>Generated with Avocode.</desc><g><g><title>Shape 17</title><g filter="url(#Filter1022)"><path d="M89.17798,6.52362c45.93801,0 83.17807,37.2401 83.17807,83.17789c0,45.93798 -37.24006,83.17809 -83.17807,83.17809c-45.93793,0 -83.17798,-37.2401 -83.17798,-83.17809c0,-45.93779 37.24006,-83.17789 83.17798,-83.17789z" fill="none" stroke-opacity="1" stroke-width="0" mask="url(&quot;#Mask1018&quot;)"></path><path d="M89.17798,6.52362c45.93801,0 83.17807,37.2401 83.17807,83.17789c0,45.93798 -37.24006,83.17809 -83.17807,83.17809c-45.93793,0 -83.17798,-37.2401 -83.17798,-83.17809c0,-45.93779 37.24006,-83.17789 83.17798,-83.17789z" fill="#231f20" fill-opacity="1"></path></g><path d="M89.17798,6.52362c45.93801,0 83.17807,37.2401 83.17807,83.17789c0,45.93798 -37.24006,83.17809 -83.17807,83.17809c-45.93793,0 -83.17798,-37.2401 -83.17798,-83.17809c0,-45.93779 37.24006,-83.17789 83.17798,-83.17789z" fill="#b45205" fill-opacity="1"></path><path d="M89.17798,6.52362c45.93801,0 83.17807,37.2401 83.17807,83.17789c0,45.93798 -37.24006,83.17809 -83.17807,83.17809c-45.93793,0 -83.17798,-37.2401 -83.17798,-83.17809c0,-45.93779 37.24006,-83.17789 83.17798,-83.17789z" fill-opacity="0" fill="#ffffff" stroke-linejoin="round" stroke-linecap="round" stroke-opacity="1" stroke="#ffffff" stroke-miterlimit="50" stroke-width="12" clip-path="url(&quot;#ClipPath1028&quot;)"></path></g></g></svg>